<?xml version="1.0" encoding="UTF-8"?>
<svg width="46px" height="46px" viewBox="0 0 46 46" version="1.1" xmlns="http://www.w3.org/2000/svg" xmlns:xlink="http://www.w3.org/1999/xlink">
    <!-- Generator: Sketch 52.5 (67469) - http://www.bohemiancoding.com/sketch -->
    <title>money-coins</title>
    <desc>Created with Sketch.</desc>
    <g id="Page-1" stroke="none" strokeWidth="1" fill="none" fill-rule="evenodd">
        <g id="blaze-cash-balance-bonus-page" transform="translate(-1091.000000, -152.000000)" strokeWidth="2">
            <g id="Group-15" transform="translate(492.000000, 143.000000)">
                <g id="Group-14" transform="translate(600.000000, 0.000000)">
                    <g id="money-coins" transform="translate(0.000000, 10.000000)">
                        <polyline id="Path" stroke="#F12C4C" strokeLinecap="square" points="20 28 0 28 0 0 40 0 40 13"></polyline>
                        <ellipse id="Oval" stroke="#FFFFFF" strokeLinecap="square" cx="35" cy="22" rx="9" ry="4"></ellipse>
                        <path d="M26,22 L26,28 C26,30.209 30.029,32 35,32 C39.971,32 44,30.209 44,28 L44,22" id="Path" stroke="#FFFFFF"></path>
                        <path d="M26,28 L26,34 C26,36.209 30.029,38 35,38 C39.971,38 44,36.209 44,34 L44,28" id="Path" stroke="#FFFFFF"></path>
                        <path d="M26,34 L26,40 C26,42.209 30.029,44 35,44 C39.971,44 44,42.209 44,40 L44,34" id="Path" stroke="#FFFFFF"></path>
                        <circle id="Oval" stroke="#F12C4C" strokeLinecap="square" cx="20" cy="14" r="4"></circle>
                    </g>
                </g>
            </g>
        </g>
    </g>
</svg>