<?xml version="1.0" encoding="UTF-8"?>
<svg width="44px" height="46px" viewBox="0 0 44 46" version="1.1" xmlns="http://www.w3.org/2000/svg" xmlns:xlink="http://www.w3.org/1999/xlink">
    <!-- Generator: Sketch 52.5 (67469) - http://www.bohemiancoding.com/sketch -->
    <title>payment</title>
    <desc>Created with Sketch.</desc>
    <g id="Page-1" stroke="none" strokeWidth="1" fill="none" fill-rule="evenodd">
        <g id="blaze-cash-balance-bonus-page" transform="translate(-805.000000, -152.000000)" strokeWidth="2">
            <g id="Group-15" transform="translate(492.000000, 143.000000)">
                <g id="Group-13" transform="translate(314.000000, 0.000000)">
                    <g id="payment" transform="translate(0.000000, 10.000000)">
                        <path d="M7,9 L7,5 C7,3.343 8.343,2 10,2 C11.657,2 13,3.343 13,5 L13,9" id="Path" stroke="#F12C4C"></path>
                        <path d="M13,9 L13,4 C13,2.343 14.343,1 16,1 C17.657,1 19,2.343 19,4 L19,9" id="Path" stroke="#F12C4C"></path>
                        <path d="M25,9 L25,4 C25,2.343 26.343,1 28,1 C29.657,1 31,2.343 31,4 L31,9" id="Path" stroke="#F12C4C"></path>
                        <path d="M19,9 L19,3 C19,1.343 20.343,0 22,0 C23.657,0 25,1.343 25,3 L25,9" id="Path" stroke="#F12C4C"></path>
                        <polyline id="Path" stroke="#FFFFFF" points="24.081 29 0 29 0 9 42 9 42 29 37 29"></polyline>
                        <circle id="Oval" stroke="#FFFFFF" strokeLinecap="square" cx="20" cy="19" r="4"></circle>
                        <path d="M10,15 L6,15" id="Path" stroke="#FFFFFF" strokeLinecap="square"></path>
                        <path d="M7,29 C7,37.284 13.716,44 22,44 C30.284,44 37,37.284 37,29 L37,16 C33.536,16 31,18.536 31,22 L31,26 C26.272,26 22,29.656 22,34" id="Path" stroke="#F12C4C"></path>
                    </g>
                </g>
            </g>
        </g>
    </g>
</svg>