<?xml version="1.0" standalone="no"?><!DOCTYPE svg PUBLIC "-//W3C//DTD SVG 1.1//EN" "http://www.w3.org/Graphics/SVG/1.1/DTD/svg11.dtd"><svg t="1667965345060" class="icon" viewBox="0 0 1024 1024" version="1.1" xmlns="http://www.w3.org/2000/svg" p-id="5157" xmlns:xlink="http://www.w3.org/1999/xlink" width="200" height="200"><path d="M832.279273 191.720727c176.872727 176.872727 176.872727 463.639273 0 640.558546a28.020364 28.020364 0 1 1-39.563637-39.610182 397.032727 397.032727 0 0 0 0-561.338182 28.020364 28.020364 0 0 1 39.563637-39.610182z m-380.276364 0.930909a28.020364 28.020364 0 0 1 45.474909 21.876364V809.425455a28.020364 28.020364 0 0 1-45.474909 21.876363l-204.8-163.84H86.946909a28.020364 28.020364 0 0 1-27.973818-28.020363V384.465455c0-15.453091 12.520727-27.973818 27.973818-27.973819H247.156364z m230.260364 149.085091a240.500364 240.500364 0 0 1 0 340.061091 28.020364 28.020364 0 0 1-39.610182-39.563636 184.506182 184.506182 0 0 0 0-260.887273 28.020364 28.020364 0 1 1 39.563636-39.563636z" fill="#f12c4c" p-id="5158"></path></svg>
