<svg width="20" height="18" viewBox="0 0 20 18" fill="none" xmlns="http://www.w3.org/2000/svg"><g clip-path="url(#clip0)"><path fill-rule="evenodd" clip-rule="evenodd" d="M19.29 13.8499H16.72C16.2274 15.4328 15.3355 16.862 14.13 17.9999H19.29C19.3819 18.0012 19.4732 17.9844 19.5587 17.9505C19.6441 17.9165 19.722 17.8661 19.7879 17.802C19.8539 17.7379 19.9065 17.6615 19.9429 17.5771C19.9793 17.4926 19.9987 17.4019 20 17.3099V14.5399C19.9987 14.448 19.9793 14.3572 19.9429 14.2728C19.9065 14.1884 19.8539 14.1119 19.7879 14.0479C19.722 13.9838 19.6441 13.9333 19.5587 13.8994C19.4732 13.8654 19.3819 13.8486 19.29 13.8499Z" fill="#8C9099"></path><path fill-rule="evenodd" clip-rule="evenodd" d="M7.14 4.15005C6.2149 4.1315 5.29529 4.29655 4.43437 4.63564C3.57346 4.97473 2.78831 5.48114 2.12434 6.12558C1.46037 6.77002 0.930748 7.53971 0.566115 8.39012C0.201481 9.24054 0.00906694 10.1548 0 11.0801C0.0103792 12.0045 0.20376 12.9176 0.568979 13.7669C0.934198 14.6162 1.46402 15.3847 2.12786 16.028C2.7917 16.6714 3.5764 17.1769 4.43667 17.5154C5.29694 17.8539 6.21573 18.0186 7.14 18.0001C8.0651 18.0199 8.98497 17.8562 9.8464 17.5183C10.7078 17.1805 11.4937 16.6752 12.1586 16.0317C12.8235 15.3881 13.3542 14.6192 13.7201 13.7693C14.0859 12.9193 14.2796 12.0053 14.29 11.0801C14.281 10.1539 14.0882 9.23884 13.723 8.38776C13.3577 7.53668 12.8272 6.76654 12.1621 6.12196C11.4971 5.47739 10.7108 4.97119 9.84869 4.6327C8.98662 4.29421 8.06594 4.13016 7.14 4.15005ZM7.14 15.5001C6.53984 15.5093 5.94373 15.4003 5.38573 15.1791C4.82772 14.958 4.31874 14.6291 3.88786 14.2112C3.45699 13.7933 3.11265 13.2946 2.87452 12.7437C2.63638 12.1927 2.50912 11.6002 2.5 11.0001C2.50912 10.3999 2.63638 9.8074 2.87452 9.25643C3.11265 8.70546 3.45699 8.20679 3.88786 7.78892C4.31874 7.37104 4.82772 7.04214 5.38573 6.82099C5.94373 6.59984 6.53984 6.49079 7.14 6.50005C7.74099 6.48946 8.33817 6.59753 8.89734 6.81808C9.4565 7.03863 9.96666 7.36732 10.3986 7.78533C10.8305 8.20334 11.1758 8.70245 11.4145 9.25409C11.6533 9.80572 11.7809 10.399 11.79 11.0001C11.7809 11.6011 11.6533 12.1944 11.4145 12.746C11.1758 13.2977 10.8305 13.7968 10.3986 14.2148C9.96666 14.6328 9.4565 14.9615 8.89734 15.182C8.33817 15.4026 7.74099 15.5106 7.14 15.5001Z" fill="#414952"></path><path fill-rule="evenodd" clip-rule="evenodd" d="M19.29 7.24469e-05H3.56999C3.47806 -0.00125019 3.38677 0.015549 3.30134 0.0495107C3.2159 0.0834723 3.13799 0.133931 3.07206 0.198005C3.00613 0.26208 2.95347 0.338514 2.91708 0.422944C2.88069 0.507374 2.86129 0.598144 2.85999 0.690072V2.33007C4.70496 1.47094 6.76527 1.18513 8.77444 1.50959C10.7836 1.83405 12.6492 2.75387 14.13 4.15007H19.29C19.3819 4.1514 19.4732 4.1346 19.5586 4.10063C19.6441 4.06667 19.722 4.01621 19.7879 3.95214C19.8538 3.88807 19.9065 3.81163 19.9429 3.7272C19.9793 3.64277 19.9987 3.552 20 3.46007V0.690072C19.9987 0.598144 19.9793 0.507374 19.9429 0.422944C19.9065 0.338514 19.8538 0.26208 19.7879 0.198005C19.722 0.133931 19.6441 0.0834723 19.5586 0.0495107C19.4732 0.015549 19.3819 -0.00125019 19.29 7.24469e-05Z" fill="#8C9099"></path><path fill-rule="evenodd" clip-rule="evenodd" d="M19.29 6.91999H16.16C16.8131 8.20971 17.1556 9.63432 17.16 11.08H19.31C19.4027 11.0813 19.4948 11.0642 19.5809 11.0296C19.667 10.995 19.7454 10.9437 19.8114 10.8785C19.8775 10.8134 19.9299 10.7358 19.9657 10.6502C20.0015 10.5646 20.02 10.4728 20.02 10.38V7.61999C20.02 7.52722 20.0015 7.43537 19.9657 7.34978C19.9299 7.2642 19.8775 7.18658 19.8114 7.12145C19.7454 7.05632 19.667 7.00496 19.5809 6.97038C19.4948 6.9358 19.4027 6.91867 19.31 6.91999" fill="#8C9099"></path><path d="M7.61002 7.5V8.35C8.07547 8.38455 8.52691 8.52477 8.93002 8.76L8.39002 9.76C8.13205 9.55018 7.81238 9.43074 7.48002 9.42C7.3099 9.40748 7.14058 9.45334 7.00002 9.55C6.94854 9.57733 6.90494 9.61743 6.87342 9.66647C6.84189 9.7155 6.82351 9.77181 6.82002 9.83C6.82365 9.88077 6.83801 9.9302 6.86214 9.97502C6.88627 10.0198 6.91963 10.059 6.96002 10.09C7.06194 10.1872 7.18525 10.2591 7.32002 10.3L7.75002 10.44C8.12485 10.5508 8.46773 10.7497 8.75002 11.02C8.96681 11.2726 9.08099 11.5973 9.07002 11.93C9.07151 12.1295 9.04458 12.3281 8.99002 12.52C8.95816 12.6907 8.89364 12.8537 8.80002 13C8.66033 13.1449 8.49826 13.2665 8.32002 13.36C8.09158 13.473 7.85408 13.5666 7.61002 13.64V14.51H6.94002V13.67C6.77862 13.6722 6.61751 13.6554 6.46002 13.62C6.28976 13.5873 6.12251 13.5405 5.96002 13.48L5.50002 13.28C5.37124 13.2029 5.2535 13.1087 5.15002 13L5.74002 12C6.09377 12.3505 6.56297 12.5602 7.06002 12.59C7.2273 12.5924 7.39131 12.5435 7.53002 12.45C7.59098 12.4093 7.64106 12.3543 7.67591 12.2898C7.71077 12.2253 7.72934 12.1533 7.73002 12.08C7.73002 11.87 7.57002 11.72 7.26002 11.62L6.85002 11.5C6.63064 11.4331 6.41669 11.3495 6.21002 11.25C6.0533 11.1715 5.91123 11.0666 5.79002 10.94C5.67924 10.8259 5.59402 10.6896 5.54002 10.54C5.48099 10.3663 5.45389 10.1834 5.46002 10C5.4598 9.80317 5.49016 9.6075 5.55002 9.42C5.60707 9.23546 5.70249 9.06506 5.83002 8.92C5.95574 8.7658 6.11246 8.63975 6.29002 8.55C6.49065 8.44102 6.71228 8.37623 6.94002 8.36V7.5H7.61002Z" fill="#8C9099"></path></g><defs><clipPath id="clip0"><rect width="20" height="18" fill="white"></rect></clipPath></defs></svg>
