<svg width="16px" height="16px" viewBox="0 0 16 16" version="1.1" xmlns="http://www.w3.org/2000/svg" xmlns:xlink="http://www.w3.org/1999/xlink"><title>payment-method</title><desc>Created with Sketch.</desc><g id="desktop" stroke="none" stroke-width="1" fill="none" fill-rule="evenodd"><g class="color" id="blaze-settings-transactions" transform="translate(-182.000000, -258.000000)" fill="#73798F" fill-rule="nonzero"><g id="Group-4" transform="translate(150.000000, 186.000000)"><g id="payment-method" transform="translate(32.000000, 72.000000)"><path d="M15,0 L1,0 C0.447,0 0,0.448 0,1 L0,11 C0,11.552 0.447,12 1,12 L5,12 L5,10 L2,10 L2,6 L14,6 L14,8 L16,8 L16,1 C16,0.448 15.553,0 15,0 Z M2,4 L2,2 L14,2 L14,4 L2,4 Z" id="Shape"></path><polygon id="Path" points="15 11 12 11 12 8 10 8 10 11 7 11 7 13 10 13 10 16 12 16 12 13 15 13"></polygon></g></g></g></g></svg>
