<svg width="20" height="17" viewBox="0 0 20 17" fill="none" xmlns="http://www.w3.org/2000/svg"><g clip-path="url(#clip0)"><path d="M17.5 10.93H2.5L5 8.5H15L17.5 10.93Z" fill="white"></path><path d="M19.91 14C19.7632 13.4745 19.4478 13.0117 19.0124 12.6829C18.577 12.3541 18.0456 12.1774 17.5 12.18H2.49997C1.95434 12.1774 1.42297 12.3541 0.987552 12.6829C0.552134 13.0117 0.236776 13.4745 0.0899658 14H19.91Z" fill="white"></path><path d="M20 15.1799H0V16.9999H20V15.1799Z" fill="white"></path><path d="M13.75 -6.53708e-05H6.25C5.44103 -0.011971 4.63765 0.135599 3.88572 0.434218C3.13379 0.732836 2.44806 1.17665 1.86767 1.74032C1.28729 2.30399 0.823627 2.97647 0.503169 3.71935C0.182711 4.46223 0.011733 5.26097 0 6.06993H20C19.9883 5.26097 19.8173 4.46223 19.4968 3.71935C19.1764 2.97647 18.7127 2.30399 18.1323 1.74032C17.5519 1.17665 16.8662 0.732836 16.1143 0.434218C15.3624 0.135599 14.559 -0.011971 13.75 -6.53708e-05ZM4 3.65993C3.31 4.33993 2.45 4.59994 2.1 4.25993C1.75 3.91993 2 3.07993 2.69 2.40993C3.38 1.73993 4.23 1.46993 4.59 1.81993C4.95 2.16993 4.67 2.99993 4 3.65993Z" fill="white"></path></g><defs><clipPath id="clip0"><rect width="20" height="17" fill="white"></rect></clipPath></defs></svg>
