<?xml version="1.0" encoding="UTF-8"?>
<svg width="24px" height="24px" viewBox="0 0 24 24" version="1.1" xmlns="http://www.w3.org/2000/svg" xmlns:xlink="http://www.w3.org/1999/xlink">
    <!-- Generator: Sketch 61.2 (89653) - https://sketch.com -->
    <title>Path</title>
    <desc>Created with Sketch.</desc>
    <g id="Page-1" stroke="none" strokeWidth="1" fill="none" fill-rule="evenodd">
        <g id="blaze-login" transform="translate(-837.000000, -606.000000)" fill="#ACB1CD" fill-rule="nonzero">
            <g id="Group-20" transform="translate(525.000000, 114.000000)">
                <g id="Group" transform="translate(31.000000, 97.000000)">
                    <g id="Group-5" transform="translate(1.000000, 383.000000)">
                        <path d="M303.868291,21.8180874 L292.241222,21.8180874 L292.241222,26.7270564 L298.83074,26.7270564 C297.778163,30.0000358 295.176663,31.0910289 292.188441,31.0910289 C289.006783,31.09483 286.200085,29.0401224 285.285782,26.0377814 C284.37148,23.0354403 285.566532,19.7978986 288.224834,18.0755291 C290.883136,16.3531595 294.373893,16.5546675 296.809833,18.5711079 L300.430414,15.1711294 C296.419575,11.5338393 290.44402,10.965021 285.800532,13.7784983 C281.157044,16.5919756 278.976515,22.1025441 280.461967,27.2699597 C281.947419,32.4373752 286.737081,36.0031471 292.188441,36 C298.904837,36 304.97771,31.6360255 303.868291,21.8180874 Z" id="Path"></path>
                    </g>
                </g>
            </g>
        </g>
    </g>
</svg>