<svg width="20" height="20" viewBox="0 0 20 20" fill="none" xmlns="http://www.w3.org/2000/svg"><g clip-path="url(#clip0_7089_722)"><path d="M9.82006 6.84C9.17067 6.84592 8.53756 7.04389 8.00048 7.40899C7.4634 7.77408 7.04639 8.28995 6.80197 8.89162C6.55755 9.49328 6.49666 10.1538 6.62698 10.79C6.75729 11.4262 7.07297 12.0097 7.53426 12.4668C7.99555 12.9239 8.5818 13.2343 9.21917 13.3588C9.85653 13.4833 10.5165 13.4165 11.1159 13.1666C11.7153 12.9167 12.2274 12.495 12.5876 11.9547C12.9478 11.4143 13.14 10.7794 13.1401 10.13C13.1348 9.25387 12.7823 8.41557 12.16 7.79886C11.5377 7.18215 10.6962 6.83733 9.82006 6.84Z" fill="#8C9099"></path><path d="M2.80985 4.32C2.79018 4.342 2.7793 4.37048 2.7793 4.4C2.7793 4.42951 2.79018 4.458 2.80985 4.48L6.31985 6.48C6.33716 6.49298 6.35822 6.5 6.37985 6.5C6.40149 6.5 6.42254 6.49298 6.43985 6.48C6.78421 5.87519 7.26077 5.35599 7.83392 4.96119C8.40708 4.56639 9.06203 4.30618 9.74985 4.2C9.77742 4.19289 9.80115 4.17537 9.81607 4.15113C9.83099 4.12689 9.83593 4.09781 9.82985 4.07L9.10985 0.0999979C9.10992 0.0859801 9.10705 0.0721042 9.10141 0.0592705C9.09577 0.0464368 9.08749 0.0349319 9.07712 0.0255025C9.06675 0.016073 9.05451 0.00892962 9.0412 0.0045358C9.02789 0.000141974 9.0138 -0.00140411 8.99985 -2.14792e-06C7.71682 0.228939 6.49882 0.733805 5.43007 1.47969C4.36131 2.22557 3.4673 3.19468 2.80985 4.32Z" fill="#8C9099"></path><path d="M0.810026 12C0.816109 12.0194 0.827988 12.0366 0.844072 12.0491C0.860157 12.0616 0.879679 12.0689 0.900026 12.07H1.00003L4.79003 10.62C4.80839 10.6106 4.82376 10.5963 4.83437 10.5786C4.84498 10.5609 4.8504 10.5406 4.85003 10.52C4.59855 9.89276 4.48963 9.21748 4.53114 8.54299C4.57264 7.86849 4.76354 7.21166 5.09003 6.61999C5.10835 6.6013 5.11861 6.57617 5.11861 6.54999C5.11861 6.52382 5.10835 6.49869 5.09003 6.47999H5.00003L1.43003 4.45999H1.37003C1.35434 4.4528 1.33728 4.44908 1.32003 4.44908C1.30277 4.44908 1.28571 4.4528 1.27003 4.45999C0.637037 5.60333 0.267263 6.87356 0.187682 8.17799C0.1081 9.48243 0.320719 10.7882 0.810026 12Z" fill="#8C9099"></path><path d="M5.62 18.27C5.63444 18.2745 5.64966 18.276 5.66471 18.2744C5.67976 18.2728 5.69431 18.268 5.70745 18.2605C5.72059 18.253 5.73204 18.2429 5.74108 18.2307C5.75012 18.2186 5.75656 18.2047 5.76 18.19L7 14.34C7.01162 14.3221 7.0178 14.3013 7.0178 14.28C7.0178 14.2587 7.01162 14.2378 7 14.22C6.3349 14.0343 5.72001 13.7015 5.20076 13.2463C4.68151 12.7911 4.27115 12.2251 4 11.59C3.98215 11.5784 3.9613 11.5722 3.94 11.5722C3.9187 11.5722 3.89785 11.5784 3.88 11.59L0.07 13.12C0.0578368 13.1357 0.051239 13.1551 0.051239 13.175C0.051239 13.1949 0.0578368 13.2142 0.07 13.23H0C0.519572 14.4184 1.28988 15.4805 2.25817 16.3435C3.22646 17.2065 4.36984 17.85 5.61 18.23" fill="#414952"></path><path d="M13.55 18.46C13.5609 18.4497 13.5696 18.4373 13.5755 18.4236C13.5814 18.4098 13.5845 18.395 13.5845 18.38C13.5845 18.365 13.5814 18.3502 13.5755 18.3364C13.5696 18.3227 13.5609 18.3103 13.55 18.3L11.31 15C11.2896 14.981 11.2628 14.9705 11.235 14.9705C11.2072 14.9705 11.1804 14.981 11.16 15C10.5958 15.3803 9.95584 15.6336 9.28421 15.7424C8.61259 15.8511 7.92536 15.8128 7.27 15.63C7.24885 15.6331 7.22907 15.6424 7.21308 15.6566C7.1971 15.6708 7.1856 15.6894 7.18 15.71L6 19.52C6.01149 19.5576 6.03641 19.5896 6.07 19.61C7.32535 19.9597 8.64167 20.0326 9.92797 19.8237C11.2143 19.6148 12.4398 19.129 13.52 18.4" fill="#8C9099"></path><path d="M18.6998 12.46C18.7012 12.4447 18.6994 12.4293 18.6945 12.4148C18.6896 12.4003 18.6817 12.387 18.6714 12.3757C18.661 12.3644 18.6484 12.3554 18.6344 12.3492C18.6203 12.3431 18.6051 12.3399 18.5898 12.34L14.5398 12C14.5201 11.9974 14.5 12.0008 14.4822 12.0097C14.4644 12.0186 14.4496 12.0327 14.4398 12.05C14.4355 12.0698 14.4355 12.0902 14.4398 12.11C14.3948 12.7846 14.2 13.4407 13.8696 14.0305C13.5392 14.6204 13.0815 15.1292 12.5298 15.52C12.5202 15.5385 12.5151 15.5591 12.5151 15.58C12.5151 15.6009 12.5202 15.6215 12.5298 15.64L14.8798 19C14.8963 19.0148 14.9177 19.0229 14.9398 19.0229C14.9619 19.0229 14.9833 19.0148 14.9998 19C16.0537 18.2465 16.9281 17.2696 17.5608 16.1391C18.1935 15.0086 18.5688 13.7523 18.6598 12.46" fill="#414952"></path><path d="M17.17 4.7C17.1542 4.68784 17.1349 4.68124 17.115 4.68124C17.0951 4.68124 17.0757 4.68784 17.06 4.7L14.26 7.63C14.2484 7.64786 14.2422 7.6687 14.2422 7.69C14.2422 7.71131 14.2484 7.73215 14.26 7.75C14.7613 8.20412 15.1539 8.76541 15.4084 9.39214C15.6629 10.0189 15.7728 10.6949 15.73 11.37C15.73 11.37 15.73 11.37 15.73 11.42C15.7542 11.4543 15.7895 11.479 15.83 11.49L19.83 11.68H19.89C19.9088 11.6728 19.9252 11.6606 19.9376 11.6448C19.9499 11.6289 19.9577 11.61 19.96 11.59C20.0245 10.3077 19.8082 9.02678 19.3263 7.83673C18.8444 6.64667 18.1085 5.57617 17.17 4.7Z" fill="#8C9099"></path><path d="M10.07 1.09C10.0493 1.09422 10.03 1.10384 10.0142 1.11789C9.99842 1.13194 9.9866 1.14991 9.97998 1.17V1.23L10.57 5.23C10.5698 5.25223 10.5779 5.27373 10.5927 5.29035C10.6075 5.30696 10.6279 5.31753 10.65 5.32H10.71C11.3807 5.21373 12.0665 5.25532 12.7194 5.44188C13.3724 5.62843 13.9767 5.95543 14.49 6.4C14.5085 6.40964 14.5291 6.41467 14.55 6.41467C14.5709 6.41467 14.5915 6.40964 14.61 6.4L17.27 3.4C17.2796 3.38327 17.2847 3.36431 17.2847 3.345C17.2847 3.32569 17.2796 3.30672 17.27 3.29C16.2859 2.43907 15.1291 1.81158 13.8793 1.45077C12.6294 1.08996 11.3161 1.00441 10.03 1.2" fill="#414952"></path><path d="M9.82 6.78999C9.16028 6.79394 8.5165 6.99318 7.96988 7.36258C7.42325 7.73198 6.99827 8.25499 6.74854 8.86563C6.49881 9.47627 6.43551 10.1472 6.56664 10.7938C6.69776 11.4403 7.01743 12.0336 7.48533 12.4987C7.95322 12.9638 8.54838 13.2799 9.19572 13.4072C9.84306 13.5345 10.5136 13.4672 11.1227 13.2138C11.7319 12.9604 12.2523 12.5323 12.6185 11.9835C12.9846 11.4347 13.18 10.7897 13.18 10.13C13.1747 9.24234 12.8184 8.39284 12.1888 7.76703C11.5593 7.14123 10.7077 6.78998 9.82 6.78999ZM12.26 12C12.3043 11.8634 12.3344 11.7227 12.35 11.58L12.13 11.77C11.9121 11.9207 11.6679 12.0293 11.41 12.09L10.76 11.39L11.23 12.22C11.0916 12.451 10.9079 12.6517 10.69 12.81L10.45 12.96C10.5896 12.9759 10.7305 12.9759 10.87 12.96C10.1975 13.2004 9.4625 13.2004 8.79 12.96C8.92955 12.9759 9.07045 12.9759 9.21 12.96C9.13638 12.919 9.06616 12.8722 9 12.82C8.78211 12.6617 8.59844 12.461 8.46 12.23L8.93 11.4L8.28 12.1C8.02211 12.0393 7.7779 11.9307 7.56 11.78C7.48537 11.722 7.41518 11.6585 7.35 11.59C7.35727 11.733 7.38419 11.8743 7.43 12.01C7.00583 11.4755 6.77656 10.8123 6.78 10.13V9.99999C6.82587 10.1392 6.8862 10.2733 6.96 10.4C6.96969 10.3194 6.98304 10.2393 7 10.16C7.08443 9.90193 7.22053 9.66375 7.4 9.45999L8.33 9.64999L7.46 9.25999C7.4291 8.99653 7.45991 8.72949 7.55 8.47999C7.55 8.38999 7.61 8.29999 7.65 8.20999C7.51171 8.27165 7.38088 8.34881 7.26 8.43999C7.67192 7.82664 8.28875 7.37998 9 7.17999C8.87076 7.26431 8.75309 7.36516 8.65 7.47999H8.94C9.20785 7.48285 9.47266 7.53717 9.72 7.63999L9.83 8.57999L9.93 7.63999C10.1805 7.53703 10.4492 7.48599 10.72 7.48999H11C10.8984 7.37743 10.7843 7.27678 10.66 7.18999C11.3672 7.38715 11.9807 7.83045 12.39 8.43999C12.2696 8.34532 12.1388 8.2648 12 8.19999C12.042 8.28653 12.0755 8.37696 12.1 8.46999C12.1901 8.71949 12.2209 8.98653 12.19 9.24999L11.33 9.63999L12.26 9.44999C12.4402 9.64946 12.5764 9.88453 12.66 10.14C12.688 10.2321 12.7114 10.3255 12.73 10.42C12.8057 10.2943 12.8661 10.16 12.91 10.02V10.12C12.9088 10.8016 12.68 11.4632 12.26 12Z" fill="#414952"></path><path d="M8.45996 9.68999L8.97996 11.28H10.66L11.18 9.68999L9.81996 8.70999L8.45996 9.68999Z" fill="#414952"></path></g><defs><clipPath id="clip0_7089_722"><rect width="20" height="20" fill="white"></rect></clipPath></defs></svg>
