<svg xmlns="http://www.w3.org/2000/svg" width="16" height="16" viewBox="0 0 16 16">
    <g fill="none" fill-rule="evenodd">
        <path fill="#FFF" fill-rule="nonzero" d="M.036 16l1.125-4.108C.467 10.689.1 9.325.102 7.928.104 3.556 3.662 0 8.033 0c2.122 0 4.113.827 5.61 2.325 1.498 1.499 2.322 3.49 2.321 5.61-.002 4.37-3.56 7.928-7.93 7.928H8.03c-1.327-.001-2.632-.334-3.79-.965L.036 16z"/>
        <path fill="#F12C4C" d="M6.051 4.614c-.16-.387-.324-.334-.446-.34-.115-.006-.247-.007-.38-.007-.132 0-.346.05-.528.247-.182.199-.694.678-.694 1.653s.71 1.917.81 2.05c.099.132 1.397 2.133 3.385 2.99.473.205.842.327 1.13.418.474.15.906.13 1.248.079.38-.057 1.172-.48 1.337-.942.165-.463.165-.86.116-.943-.05-.082-.182-.132-.38-.23-.198-.1-1.172-.58-1.354-.645-.182-.067-.314-.1-.446.099-.132.198-.512.644-.627.776-.116.133-.232.15-.43.05-.198-.1-.836-.308-1.593-.983-.59-.525-.987-1.174-1.103-1.373-.115-.198-.012-.305.087-.404.09-.089.198-.231.297-.347.1-.116.133-.198.199-.33.066-.133.033-.248-.017-.348-.05-.099-.446-1.074-.61-1.47z"/>
    </g>
</svg>
