<svg xmlns="http://www.w3.org/2000/svg" viewBox="0 0 24 24"><defs><style>.cls-1{fill:#f7931a;}</style></defs><g id="Layer_2" data-name="Layer 2"><g id="Layer_1-2" data-name="Layer 1"><path class="cls-1" d="M8.73,10.07H7.55v1.59H8.67a.84.84,0,0,0,.56-.19.86.86,0,0,0,.2-.63.81.81,0,0,0-.18-.57A.69.69,0,0,0,8.73,10.07Z"/><path class="cls-1" d="M12,0A12,12,0,1,0,24,12,12,12,0,0,0,12,0ZM9.46,14.52,8.37,12.63H7.55v1.89H6.22V9.05H8.89a2.2,2.2,0,0,1,1.45.43,1.58,1.58,0,0,1,.53,1.31,1.81,1.81,0,0,1-.15.71,1.7,1.7,0,0,1-.43.6,1.42,1.42,0,0,1-.55.27l1.41,2.15Zm8.36,0H16.49v-3.7L14.88,13l-1.56-2.14v3.7H12V9.05H13.4l1.53,2.13L16.5,9.05h1.32Z"/></g></g></svg>
