<svg xmlns="http://www.w3.org/2000/svg" width="32" height="30" viewBox="0 0 32 30">
    <g fill="none" fill-rule="evenodd" strokeLinecap="square" strokeWidth="2" transform="translate(1 1)">
        <path stroke="#FFF" d="M15 0L15 8M11 4L19 4"/>
        <circle cx="24" cy="16" r="3" stroke="#F5133F"/>
        <circle cx="6" cy="16" r="3" stroke="#F32246"/>
        <path stroke="#F32246" d="M12 28v-2.983c0-.71-.372-1.363-.983-1.725C10.044 22.717 8.358 22 6 22c-2.388 0-4.064.713-5.026 1.288C.368 23.65 0 24.301 0 25.007V28h12z"/>
        <path stroke="#F70037" d="M30 28v-2.983c0-.71-.372-1.363-.983-1.725C28.044 22.717 26.358 22 24 22c-2.388 0-4.064.713-5.026 1.288-.606.362-.974 1.013-.974 1.719V28h12z"/>
    </g>
</svg>
