<svg width="125" height="117" viewBox="0 0 125 117" fill="none" xmlns="http://www.w3.org/2000/svg">
<ellipse cx="121.053" cy="49.0597" rx="3.05317" ry="3.05971" fill="#486075"/>
<ellipse cx="3.05317" cy="83.5507" rx="3.05317" ry="3.05971" fill="#517087"/>
<ellipse cx="45.0049" cy="111.016" rx="5.00493" ry="5.01565" fill="#486075"/>
<ellipse cx="115.053" cy="87.0597" rx="3.05317" ry="3.05971" fill="#486075"/>
<ellipse cx="73.0532" cy="105.06" rx="3.05317" ry="3.05971" fill="#486075"/>
<ellipse cx="80.6158" cy="2.62145" rx="2.61584" ry="2.62145" fill="#517087"/>
<ellipse cx="13.9842" cy="15.9884" rx="1.98415" ry="1.98841" fill="#517087"/>
<ellipse cx="6.8676" cy="60.68" rx="1.35246" ry="1.35536" fill="#517087"/>
<ellipse cx="93.7817" cy="110.561" rx="1.35246" ry="1.35536" fill="#517087"/>
<ellipse cx="103.352" cy="31.3554" rx="1.35246" ry="1.35536" fill="#517087"/>
<ellipse cx="25.0327" cy="82.309" rx="1.98415" ry="1.98841" fill="#517087"/>
<path d="M39.0625 55.3937V41.875V16.9375H88.9375V41.875V55.3937L91.5625 53.9188V47.65V41.0875V15.625C91.5625 14.8375 91.0375 14.3125 90.25 14.3125H37.75C36.9625 14.3125 36.4375 14.8375 36.4375 15.625V41.0875L36.4375 47.65L36.4375 53.9327L39.0625 55.3937Z" fill="#486075"/>
<path d="M64.6562 71.9313C64.3937 72.0625 64.2625 72.0625 64 72.0625C63.7375 72.0625 63.6063 72.0625 63.3438 71.9313L23.3125 49.6187V93.0625C23.3125 94.5128 24.4872 95.6875 25.9375 95.6875H102.062C103.513 95.6875 104.688 94.5128 104.688 93.0625V49.6187L64.6562 71.9313Z" fill="white"/>
<path d="M91.5 54V44L100.5 49L91.5 54Z" fill="#E8EBEE"/>
<path d="M36.5 54V44L27.5 49L36.5 54Z" fill="#E8EBEE"/>
<path d="M29.875 89.1532L29.875 85.0637L85.833 85.0637L85.833 89.1532L29.875 89.1532Z" fill="url(#paint0_linear_5652_5015)"/>
<path d="M29.875 81.9353L29.875 79.9375L57.2068 79.9375L57.2068 81.9353L29.875 81.9353Z" fill="url(#paint1_linear_5652_5015)"/>
<ellipse cx="26.0532" cy="35.0597" rx="3.05317" ry="3.05971" fill="#486075"/>
<g clipPath="url(#clip0_5652_5015)">
<path d="M64 57.625C59.4878 57.7438 54.9953 56.9885 50.7702 55.4005C50.5816 55.3167 50.4214 55.18 50.309 55.007C50.1965 54.834 50.1367 54.6321 50.1367 54.4258C50.1398 51.5984 51.2644 48.8878 53.2636 46.8886C55.2628 44.8894 57.9734 43.7648 60.8008 43.7617H67.1992C70.0266 43.7648 72.7372 44.8894 74.7364 46.8886C76.7356 48.8878 77.8602 51.5984 77.8633 54.4258C77.8633 54.6321 77.8035 54.834 77.691 55.007C77.5786 55.18 77.4184 55.3167 77.2298 55.4005C73.0047 56.9885 68.5122 57.7438 64 57.625Z" fill="#F22C4C"/>
<path d="M64 41.6289C59.1169 41.6289 55.4688 36.5624 55.4688 32.0312C55.4688 29.7686 56.3676 27.5987 57.9675 25.9987C59.5674 24.3988 61.7374 23.5 64 23.5C66.2626 23.5 68.4326 24.3988 70.0325 25.9987C71.6324 27.5987 72.5312 29.7686 72.5312 32.0312C72.5312 36.5624 68.8831 41.6289 64 41.6289Z" fill="#F22C4C"/>
</g>
<defs>
<linearGradient id="paint0_linear_5652_5015" x1="29.875" y1="89.1991" x2="86.9633" y2="89.1991" gradientUnits="userSpaceOnUse">
<stop stop-color="#182835"/>
<stop offset="1" stop-color="#213447" stop-opacity="0.01"/>
</linearGradient>
<linearGradient id="paint1_linear_5652_5015" x1="130.901" y1="87.8885" x2="130.942" y2="74.5312" gradientUnits="userSpaceOnUse">
<stop stop-color="#182835"/>
<stop offset="1" stop-color="#213447" stop-opacity="0.01"/>
</linearGradient>
<clipPath id="clip0_5652_5015">
<rect width="34.125" height="34.125" fill="white" transform="translate(46.9375 23.5)"/>
</clipPath>
</defs>
</svg>
