<svg width="20" height="20" viewBox="0 0 20 20" fill="none" xmlns="http://www.w3.org/2000/svg"><g clip-path="url(#clip0)"><path fill-rule="evenodd" clip-rule="evenodd" d="M10 1C8.21997 1 6.47991 1.52784 4.99987 2.51677C3.51983 3.50571 2.36628 4.91131 1.68509 6.55585C1.0039 8.20038 0.82567 10.01 1.17294 11.7558C1.5202 13.5016 2.37737 15.1053 3.63604 16.364C4.89472 17.6226 6.49836 18.4798 8.24419 18.8271C9.99002 19.1743 11.7996 18.9961 13.4442 18.3149C15.0887 17.6337 16.4943 16.4802 17.4832 15.0001C18.4722 13.5201 19 11.78 19 10C19 7.61305 18.0518 5.32387 16.364 3.63604C14.6761 1.94821 12.387 1 10 1ZM10 16C8.81332 16 7.65328 15.6481 6.66658 14.9888C5.67989 14.3295 4.91085 13.3925 4.45673 12.2961C4.0026 11.1997 3.88378 9.99334 4.11529 8.82946C4.3468 7.66557 4.91825 6.59647 5.75736 5.75736C6.59648 4.91824 7.66558 4.3468 8.82946 4.11529C9.99335 3.88378 11.1997 4.0026 12.2961 4.45672C13.3925 4.91085 14.3295 5.67988 14.9888 6.66658C15.6481 7.65327 16 8.81331 16 10C16 11.5913 15.3679 13.1174 14.2426 14.2426C13.1174 15.3679 11.5913 16 10 16Z" fill="#F895A6"></path><path d="M10 0C8.02219 0 6.08879 0.58649 4.4443 1.6853C2.79981 2.78412 1.51809 4.3459 0.761209 6.17317C0.00433284 8.00043 -0.193701 10.0111 0.192152 11.9509C0.578004 13.8907 1.53041 15.6725 2.92894 17.0711C4.32746 18.4696 6.10929 19.422 8.0491 19.8079C9.98891 20.1937 11.9996 19.9957 13.8268 19.2388C15.6541 18.4819 17.2159 17.2002 18.3147 15.5557C19.4135 13.9112 20 11.9778 20 10C20 7.34784 18.9464 4.8043 17.0711 2.92893C15.1957 1.05357 12.6522 0 10 0V0ZM10 18.75C8.26942 18.75 6.57769 18.2368 5.13876 17.2754C3.69983 16.3139 2.57833 14.9473 1.91606 13.3485C1.25379 11.7496 1.08051 9.99029 1.41813 8.29296C1.75575 6.59563 2.58911 5.03653 3.81282 3.81282C5.03653 2.58911 6.59563 1.75575 8.29296 1.41813C9.9903 1.08051 11.7496 1.25379 13.3485 1.91605C14.9473 2.57832 16.3139 3.69983 17.2754 5.13876C18.2368 6.57769 18.75 8.26941 18.75 10C18.75 12.3206 17.8281 14.5462 16.1872 16.1872C14.5462 17.8281 12.3206 18.75 10 18.75Z" fill="white"></path><path d="M13.3414 8.28051L6.41235 11.1506L6.65344 11.7327L13.5825 8.86255L13.3414 8.28051Z" fill="white"></path><path d="M8.84698 6.4188L8.27417 6.65607L11.1443 13.5852L11.7171 13.3479L8.84698 6.4188Z" fill="white"></path><path d="M8.56994 7.18999C8.91788 7.18999 9.19994 6.90793 9.19994 6.55999C9.19994 6.21205 8.91788 5.92999 8.56994 5.92999C8.222 5.92999 7.93994 6.21205 7.93994 6.55999C7.93994 6.90793 8.222 7.18999 8.56994 7.18999Z" fill="white"></path><path d="M11.4301 14.06C11.7725 14.06 12.0501 13.7824 12.0501 13.44C12.0501 13.0976 11.7725 12.82 11.4301 12.82C11.0876 12.82 10.8101 13.0976 10.8101 13.44C10.8101 13.7824 11.0876 14.06 11.4301 14.06Z" fill="white"></path><path d="M13.4401 9.2C13.788 9.2 14.0701 8.91794 14.0701 8.57C14.0701 8.22206 13.788 7.94 13.4401 7.94C13.0921 7.94 12.8101 8.22206 12.8101 8.57C12.8101 8.91794 13.0921 9.2 13.4401 9.2Z" fill="white"></path><path d="M6.55993 12.06C6.90787 12.06 7.18993 11.7779 7.18993 11.43C7.18993 11.082 6.90787 10.8 6.55993 10.8C6.21199 10.8 5.92993 11.082 5.92993 11.43C5.92993 11.7779 6.21199 12.06 6.55993 12.06Z" fill="white"></path><path d="M10 11.25C10.6904 11.25 11.25 10.6904 11.25 10C11.25 9.30964 10.6904 8.75 10 8.75C9.30964 8.75 8.75 9.30964 8.75 10C8.75 10.6904 9.30964 11.25 10 11.25Z" fill="#F895A6"></path><path fill-rule="evenodd" clip-rule="evenodd" d="M10 3.75C8.76387 3.75 7.5555 4.11656 6.52769 4.80331C5.49988 5.49007 4.6988 6.46619 4.22576 7.60823C3.75271 8.75027 3.62894 10.0069 3.87009 11.2193C4.11125 12.4317 4.70651 13.5453 5.58059 14.4194C6.45466 15.2935 7.56831 15.8888 8.78069 16.1299C9.99307 16.3711 11.2497 16.2473 12.3918 15.7742C13.5338 15.3012 14.5099 14.5001 15.1967 13.4723C15.8834 12.4445 16.25 11.2361 16.25 10C16.25 8.3424 15.5915 6.75269 14.4194 5.58058C13.2473 4.40848 11.6576 3.75 10 3.75ZM10 15C9.0111 15 8.0444 14.7068 7.22215 14.1573C6.39991 13.6079 5.75904 12.827 5.38061 11.9134C5.00217 10.9998 4.90315 9.99445 5.09608 9.02455C5.289 8.05464 5.76521 7.16373 6.46447 6.46447C7.16373 5.7652 8.05465 5.289 9.02455 5.09607C9.99446 4.90315 10.9998 5.00216 11.9134 5.3806C12.8271 5.75904 13.6079 6.3999 14.1574 7.22215C14.7068 8.04439 15 9.01109 15 10C15 11.3261 14.4732 12.5979 13.5355 13.5355C12.5979 14.4732 11.3261 15 10 15Z" fill="white"></path><path fill-rule="evenodd" clip-rule="evenodd" d="M14.8899 9.00001L18.7099 8.20001C18.4767 7.13311 18.0532 6.1169 17.4599 5.20001L14.1799 7.27001C14.527 7.79492 14.7682 8.3826 14.8899 9.00001Z" fill="white"></path><path fill-rule="evenodd" clip-rule="evenodd" d="M14.8899 11C14.7645 11.607 14.5235 12.1841 14.1799 12.7L17.4599 14.83C18.163 13.9749 18.5978 12.9313 18.7099 11.83L14.8899 11Z" fill="white"></path><path fill-rule="evenodd" clip-rule="evenodd" d="M11 14.89L11.8 18.71C12.8801 18.5201 13.9047 18.0932 14.8 17.46L12.67 14.18C12.1632 14.52 11.5965 14.761 11 14.89Z" fill="white"></path><path fill-rule="evenodd" clip-rule="evenodd" d="M7.26989 14.18L5.13989 17.46C5.96274 18.215 7.0244 18.6573 8.13989 18.71L8.99989 14.89C8.38248 14.7683 7.7948 14.5271 7.26989 14.18Z" fill="white"></path><path fill-rule="evenodd" clip-rule="evenodd" d="M5.11004 11L1.29004 11.8C1.38683 12.9051 1.8235 13.9531 2.54004 14.8L5.82004 12.67C5.47999 12.1632 5.23907 11.5965 5.11004 11Z" fill="white"></path><path fill-rule="evenodd" clip-rule="evenodd" d="M5.82004 7.27001L2.54004 5.14001C1.85532 6.00598 1.42278 7.04406 1.29004 8.14002L5.11004 9.00001C5.23175 8.3826 5.47293 7.79492 5.82004 7.27001Z" fill="white"></path><path fill-rule="evenodd" clip-rule="evenodd" d="M8.99995 5.10998L8.19995 1.28998L5.19995 2.53998L7.26995 5.81998C7.79486 5.47287 8.38254 5.23169 8.99995 5.10998Z" fill="white"></path><path fill-rule="evenodd" clip-rule="evenodd" d="M12.73 5.81998L14.86 2.53998L11.86 1.28998L11 5.10998C11.6174 5.23169 12.2051 5.47287 12.73 5.81998Z" fill="white"></path></g><defs><clipPath id="clip0"><rect width="20" height="20" fill="white"></rect></clipPath></defs></svg>
