<?xml version="1.0" encoding="UTF-8"?>
<svg width="24px" height="24px" viewBox="0 0 24 24" version="1.1" xmlns="http://www.w3.org/2000/svg" xmlns:xlink="http://www.w3.org/1999/xlink">
    <!-- Generator: Sketch 61.2 (89653) - https://sketch.com -->
    <title>Shape</title>
    <desc>Created with Sketch.</desc>
    <g id="Page-1" stroke="none" strokeWidth="1" fill="none" fill-rule="evenodd">
        <g id="blaze-login" transform="translate(-580.000000, -606.000000)" fill="#ACB1CD" fill-rule="nonzero">
            <g id="Group-20" transform="translate(525.000000, 114.000000)">
                <g id="Group" transform="translate(31.000000, 97.000000)">
                    <g id="Group-5" transform="translate(1.000000, 383.000000)">
                        <path d="M34.9792418,12 C28.6644082,12 23.4912787,16.8607487 23,23.0374331 L29.4428427,25.6966845 C29.9886118,25.3236363 30.6485512,25.1063101 31.3577916,25.1063101 C31.4217962,25.1063101 31.4849358,25.1080214 31.5472106,25.1114439 L34.4127145,20.9651337 L34.4127145,20.9069519 C34.4127145,18.4119786 36.4461582,16.3816043 38.9457979,16.3816043 C41.4454375,16.3816043 43.4788813,18.4119786 43.4788813,20.9069519 C43.4788813,23.4019251 41.4454375,25.433155 38.9457979,25.433155 C38.9112008,25.433155 38.8774687,25.4322995 38.8428716,25.4314439 L34.7560905,28.3413904 C34.7586853,28.3952941 34.7604151,28.4491978 34.7604151,28.5022459 C34.7604151,30.3760428 33.2338186,31.899893 31.3577916,31.899893 C29.7109702,31.899893 28.3331411,30.7259893 28.0217673,29.1721925 L23.4134352,27.2701605 C24.8405651,32.3071658 29.4765749,36 34.9792418,36 C41.6184229,36 47,30.626738 47,24 C47,17.3724064 41.6184229,12 34.9792418,12 Z M30.532997,30.208 L29.0565662,29.5988021 C29.3177742,30.1429732 29.7709961,30.5981604 30.3721205,30.848 C31.6712412,31.3887486 33.1692951,30.7735614 33.7107395,29.4755936 C33.9728125,28.8475722 33.9745423,28.1545241 33.7150642,27.5247914 C33.455586,26.8950588 32.9651723,26.4039358 32.3363702,26.1421176 C31.7110278,25.8828663 31.0415742,25.8922781 30.4534237,26.1138824 L31.9791553,26.743615 C32.9374946,27.1423316 33.3907165,28.2409412 32.9911201,29.1975187 C32.5923886,30.1540963 31.4913363,30.6067166 30.532997,30.208 Z M41.9664697,20.9070374 C41.9664697,19.2445775 40.6111288,17.8909946 38.9461438,17.8909946 C37.2802941,17.8909946 35.9249532,19.2445775 35.9249532,20.9070374 C35.9249532,22.5694974 37.2802941,23.9222246 38.9461438,23.9222246 C40.6111288,23.9222246 41.9664697,22.5694974 41.9664697,20.9070374 Z M36.6817645,20.9019037 C36.6817645,19.6509946 37.6980539,18.6370909 38.9504685,18.6370909 C40.2037481,18.6370909 41.2200374,19.6509946 41.2200374,20.9019037 C41.2200374,22.1528128 40.2037481,23.1667166 38.9504685,23.1667166 C37.6980539,23.1667166 36.6817645,22.1528128 36.6817645,20.9019037 Z" id="Shape"></path>
                    </g>
                </g>
            </g>
        </g>
    </g>
</svg>