<svg width="20" height="20" viewBox="0 0 20 20" fill="none" xmlns="http://www.w3.org/2000/svg"><g clip-path="url(#clip0_7089_754)"><path d="M7.05969 3.33C6.2462 3.51524 5.44998 3.7695 4.67969 4.09C5.2304 3.41103 5.84671 2.78802 6.51969 2.23C6.2673 1.71657 6.05338 1.18511 5.87969 0.64C6.7397 0.695037 7.59128 0.842555 8.41969 1.08C9.61095 0.448634 10.9239 0.080338 12.2697 0C11.5273 0.435164 10.8534 0.977697 10.2697 1.61C11.0236 1.88838 11.7556 2.22264 12.4597 2.61C12.4597 2.61 10.8497 2.66 9.36969 2.86C8.90711 3.61058 8.56939 4.43124 8.36969 5.29C7.85909 4.68922 7.41952 4.03154 7.05969 3.33Z" fill="#414952"></path><path d="M14.7097 4.73C13.9994 3.95928 13.2376 3.23762 12.4297 2.57C13.4595 2.66812 14.4699 2.91397 15.4297 3.3C15.6669 2.79503 15.8577 2.26953 15.9997 1.73C16.4339 2.49821 16.7699 3.31797 16.9997 4.17C17.9501 4.78728 18.7888 5.56165 19.4797 6.46C18.8447 6.32461 18.1987 6.24762 17.5497 6.23C17.6958 7.14598 17.766 8.07246 17.7597 9C17.7597 9 16.8597 7.48 15.9997 6.24C15.0539 6.27843 14.1151 6.41925 13.1997 6.66C13.1997 6.66 13.9997 5.73 14.6997 4.73H14.7097Z" fill="#8C9099"></path><path d="M16.2697 11.87C16.9997 10.64 17.7597 9 17.7597 9C17.9078 9.83211 17.9881 10.6749 17.9997 11.52C18.6886 11.3254 19.3581 11.0677 19.9997 10.75C19.5894 11.762 18.9691 12.6754 18.1797 13.43C18.2623 14.1271 18.309 14.8281 18.3197 15.53C17.7617 15.2756 17.2176 14.9919 16.6897 14.68C15.9021 15.1691 15.0307 15.5082 14.1197 15.68C14.1197 15.68 14.7597 14.68 15.2897 13.68C14.5682 13.1677 13.9335 12.5432 13.4097 11.83C14.3596 11.944 15.3197 11.944 16.2697 11.83V11.87Z" fill="#414952"></path><path d="M11.1796 9.37C12.2896 10.75 13.4096 11.86 13.4096 11.86C12.2827 11.6907 11.1721 11.4265 10.0896 11.07C9.34965 12.27 8.53965 13.67 8.53965 13.67C8.23876 12.6137 8.05762 11.5268 7.99965 10.43C7.99965 10.43 7.07965 10.11 5.38965 9.43C6.20754 8.94287 7.08475 8.56308 7.99965 8.3C7.99506 7.26996 8.12961 6.24402 8.39965 5.25C8.39965 5.25 9.22965 6.6 9.89965 7.59C9.89965 7.59 11.2096 7.14 13.2296 6.66C13.2296 6.66 12.1196 8.08 11.2296 9.37H11.1796Z" fill="#8C9099"></path><path d="M1.1398 14.59C0.9998 14.38 0.9298 14.16 0.8298 14C0.835055 13.1894 0.925553 12.3816 1.0998 11.59C0.716901 11.3068 0.349692 11.0031 -0.000200389 10.68C-0.00514154 10.5967 -0.00514154 10.5133 -0.000200389 10.43C0.51353 10.2346 1.03766 10.0676 1.5698 9.92999C1.82093 9.14596 2.20669 8.41166 2.7098 7.75999C2.7686 8.39192 2.86544 9.01973 2.9998 9.63999C3.78882 9.47626 4.59434 9.40578 5.3998 9.42999C4.66868 10.0289 3.99874 10.6989 3.3998 11.43C3.61023 12.2134 3.89832 12.9738 4.2598 13.7C3.3998 13.21 2.4998 12.57 2.4998 12.57C2.1898 12.95 1.4998 13.97 1.1698 14.57L1.1398 14.59Z" fill="#414952"></path><path d="M8.22994 19.84C8.08994 19.84 7.94994 19.79 7.81994 19.75C7.1791 19.0756 6.60322 18.3424 6.09994 17.56C4.93264 17.4592 3.785 17.1967 2.68994 16.78C3.54256 16.5936 4.3665 16.2943 5.13994 15.89C4.77036 15.1859 4.46577 14.4495 4.22994 13.69C4.22994 13.69 5.44994 14.69 6.34994 15.27C7.12601 14.8028 7.85891 14.2673 8.53994 13.67C8.53994 13.67 8.27994 15 8.12994 16.43C8.79994 16.81 9.46994 17.19 10.1299 17.55C9.44395 17.6421 8.75198 17.6822 8.05994 17.67C8.03813 18.3965 8.08837 19.1234 8.20994 19.84H8.22994Z" fill="#8C9099"></path><path d="M16.9296 17.22C16.0343 17.4429 15.1205 17.5835 14.1996 17.64C14.1996 17.64 14.1996 16.71 14.1196 15.7C13.6194 16.4034 13.0714 17.0716 12.4796 17.7C11.3796 17.7 10.1496 17.54 10.1496 17.54C10.5696 17.97 10.9996 18.39 11.4496 18.8C10.9438 19.2355 10.4093 19.6364 9.84961 20H10.1796C12.6995 19.957 15.1103 18.9642 16.9296 17.22Z" fill="#8C9099"></path><path d="M0.119629 8.19C0.607995 7.58883 1.14298 7.0271 1.71963 6.51C1.99563 6.96946 2.33196 7.38987 2.71963 7.76C2.71963 7.76 2.71963 6.88 2.81963 5.52C3.41034 5.0064 4.03146 4.52887 4.67963 4.09C4.15672 4.06023 3.63254 4.06023 3.10963 4.09C3.27608 3.35566 3.50353 2.6365 3.78963 1.94C1.83953 3.50131 0.532996 5.72633 0.119629 8.19Z" fill="#8C9099"></path></g><defs><clipPath id="clip0_7089_754"><rect width="20" height="20" fill="white"></rect></clipPath></defs></svg>
