<svg width="16px" height="13px" viewBox="0 0 16 13" version="1.1" xmlns="http://www.w3.org/2000/svg" xmlns:xlink="http://www.w3.org/1999/xlink" alt=""><title>card-remove</title><desc>Created with Sketch.</desc><g id="desktop" stroke="none" stroke-width="1" fill="none" fill-rule="evenodd"><g class="color" id="blaze-settings-transactions" transform="translate(-182.000000, -300.000000)" fill="#73798F" fill-rule="nonzero"><g id="Group-4" transform="translate(150.000000, 186.000000)"><g id="card-remove" transform="translate(32.000000, 114.000000)"><path d="M15,0 L1,0 C0.447,0 0,0.448 0,1 L0,11 C0,11.552 0.447,12 1,12 L5,12 L5,10 L2,10 L2,6 L14,6 L14,9 L16,9 L16,1 C16,0.448 15.553,0 15,0 Z M2,4 L2,2 L14,2 L14,4 L2,4 Z" id="Shape"></path><rect id="Rectangle" x="7" y="11" width="8" height="2"></rect></g></g></g></g></svg>
