<?xml version="1.0" encoding="utf-8"?>
<!-- Generator: Adobe Illustrator 22.1.0, SVG Export Plug-In . SVG Version: 6.00 Build 0)  -->
<svg version="1.1" id="Layer_1" xmlns="http://www.w3.org/2000/svg" xmlns:xlink="http://www.w3.org/1999/xlink" x="0px" y="0px"
	 viewBox="0 0 300 300" style="enable-background:new 0 0 300 300;" xml:space="preserve">
<style type="text/css">
	.st0{fill:#707070;}
</style>
<g>
	<g>
		<path class="st0" d="M149,136.8L50.2,38c-3.6-3.6-9.5-3.6-13.2,0c-1.8,1.7-2.7,4.1-2.7,6.6s1,4.8,2.7,6.6l98.8,98.8L37,248.8
			c-3.6,3.6-3.6,9.5,0,13.2c1.7,1.8,4.1,2.7,6.6,2.7s4.8-1,6.6-2.7l98.8-98.8l98.8,98.8c3.6,3.6,9.5,3.6,13.2,0
			c1.8-1.7,2.7-4.1,2.7-6.6s-1-4.8-2.7-6.6L162.2,150L261,51.2c3.6-3.6,3.6-9.5,0-13.2c-1.7-1.8-4.1-2.7-6.6-2.7s-4.8,1-6.6,2.7
			L149,136.8z"/>
	</g>
</g>
</svg>
