<?xml version="1.0" encoding="utf-8"?>
<!-- Generator: Adobe Illustrator 22.1.0, SVG Export Plug-In . SVG Version: 6.00 Build 0)  -->
<svg version="1.1" id="Layer_1" xmlns="http://www.w3.org/2000/svg" xmlns:xlink="http://www.w3.org/1999/xlink" x="0px" y="0px"
	 viewBox="0 0 200 200" style="enable-background:new 0 0 200 200;" xml:space="preserve">
<style type="text/css">
	.st0{fill:#FFFFFF;}
	.st1{fill:#FF0091;}
</style>
<circle class="st0" cx="68.4" cy="108" r="3.4"/>
<circle class="st1" cx="91.5" cy="130.1" r="3.4"/>
<path class="st0" d="M134.8,77.1l-4.6-4.6l4.6-4.6c0.6-0.6,0.6-1.6,0-2.2c-0.6-0.6-1.6-0.6-2.2,0l-4.6,4.6l-4.6-4.6
	c-0.6-0.6-1.6-0.6-2.2,0c-0.6,0.6-0.6,1.6,0,2.2l4.6,4.6l-4.6,4.6c-0.6,0.6-0.6,1.6,0,2.2c0.6,0.6,1.6,0.6,2.2,0l4.6-4.6l4.6,4.6
	c0.6,0.6,1.6,0.6,2.2,0C135.4,78.7,135.4,77.7,134.8,77.1z"/>
</svg>
