<?xml version="1.0" encoding="utf-8"?>
<!-- Generator: Adobe Illustrator 22.1.0, SVG Export Plug-In . SVG Version: 6.00 Build 0)  -->
<svg version="1.1" id="Layer_1" xmlns="http://www.w3.org/2000/svg" xmlns:xlink="http://www.w3.org/1999/xlink" x="0px" y="0px"
	 viewBox="0 0 200 200" style="enable-background:new 0 0 200 200;" xml:space="preserve">
<style type="text/css">
	.st0{fill:#FF0091;}
	.st1{fill:#4000FF;}
	.st2{fill:#FFFFFF;}
</style>
<circle class="st0" cx="116.5" cy="137.1" r="3.4"/>
<polygon class="st1" points="189.4,76 183.3,87.6 196,87.6 "/>
<path class="st2" d="M17.8,70.1l-4.6-4.6l4.6-4.6c0.6-0.6,0.6-1.6,0-2.2c-0.6-0.6-1.6-0.6-2.2,0l-4.6,4.6l-4.6-4.6
	c-0.6-0.6-1.6-0.6-2.2,0c-0.6,0.6-0.6,1.6,0,2.2L9,65.6l-4.6,4.6c-0.6,0.6-0.6,1.6,0,2.2c0.6,0.6,1.6,0.6,2.2,0l4.6-4.6l4.6,4.6
	c0.6,0.6,1.6,0.6,2.2,0C18.4,71.7,18.4,70.7,17.8,70.1z"/>
</svg>
