<?xml version="1.0" encoding="utf-8"?>
<!-- Generator: Adobe Illustrator 22.1.0, SVG Export Plug-In . SVG Version: 6.00 Build 0)  -->
<svg version="1.1" id="Layer_1" xmlns="http://www.w3.org/2000/svg" xmlns:xlink="http://www.w3.org/1999/xlink" x="0px" y="0px"
	 viewBox="0 0 200 200" style="enable-background:new 0 0 200 200;" xml:space="preserve">
<style type="text/css">
	.st0{fill:#FFFFFF;}
</style>
<path class="st0" d="M100.3,188.9c-27.4,0-50.3-22.3-50.3-49.7V60.8c0-27.4,22.8-49.7,50.3-49.7c27.4,0,49.7,22.3,49.7,49.7v78.3
	C150,166.6,127.7,188.9,100.3,188.9z M138.9,60.8c0-21.3-17.3-38.6-38.6-38.6c-21.3,0-39.1,17.3-39.1,38.6v78.3
	c0,21.3,17.9,38.6,39.1,38.6c21.3,0,38.6-17.3,38.6-38.6V60.8z M100.1,83.3c-3.1,0-5.6-2.5-5.6-5.6V50c0-3.1,2.5-5.6,5.6-5.6
	s5.6,2.5,5.6,5.6v27.8C105.6,80.8,103.2,83.3,100.1,83.3z"/>
</svg>
