<?xml version="1.0" encoding="utf-8"?>
<!-- Generator: Adobe Illustrator 22.1.0, SVG Export Plug-In . SVG Version: 6.00 Build 0)  -->
<svg version="1.1" id="Layer_1" xmlns="http://www.w3.org/2000/svg" xmlns:xlink="http://www.w3.org/1999/xlink" x="0px" y="0px"
	 viewBox="0 0 300 300" style="enable-background:new 0 0 300 300;" xml:space="preserve">
<style type="text/css">
	.st0{fill:#FFFFFF;}
</style>
<g transform="translate(0,-952.36218)">
	<path class="st0" d="M40.4,1090.2h50.5c-1,2.9-1.8,5.9-1.8,9.1c0,12.5,8.8,22.8,20.4,26c-1.4,3.3-2.1,6.8-2.1,10.6
		c0,12.5,8.8,22.8,20.4,26c-1.4,3.3-2.1,6.8-2.1,10.6c0,15,12.4,27.4,27.4,27.4h39.6c21.2,0,40.3-8.2,54.9-21.3h30.3
		c4.8,0,9.1-4.4,9.1-9.1v-103.5c0-4.8-4.4-9.1-9.1-9.1h-14.5c-7.4-7.6-18.1-19-30.6-29.5c-13.8-11.6-29.1-22.3-46.2-22.3h-24.4
		c-10.6,0-19.1,6.4-24.6,13.9c-3.7,5-5.8,10.6-7.2,16.6H40.4c-15,0-27.4,12.4-27.4,27.4S25.4,1090.2,40.4,1090.2z M40.4,1053.7h140
		c4.8,0.1,9.3-4.3,9.3-9.1c0-4.8-4.4-9.2-9.3-9.1H149c0.8-2,1.9-4,3.1-5.7c3.2-4.4,7.1-6.5,10-6.5h24.4c8.4,0,22,7.6,34.5,18.1
		c12.5,10.5,24.2,23.1,32.1,31c1.7,1.7,4.1,2.7,6.5,2.7h9.1v85.2h-24.4c-2.4,0-4.8,1-6.5,2.7c-11.5,11.5-27.5,18.6-45.3,18.6H153
		c-5.2,0-9.1-3.9-9.1-9.1c0-5.2,3.9-9.1,9.1-9.1c5,0,9.1-4.1,9.1-9.1s-4.1-9.1-9.1-9.1h-18.3c-5.2,0-9.1-3.9-9.1-9.1
		c0-5.2,3.9-9.1,9.1-9.1c5,0,9.1-4.1,9.1-9.1s-4.1-9.1-9.1-9.1h-18.3c-5.2,0-9.1-3.9-9.1-9.1c0-5.2,3.9-9.1,9.1-9.1
		c5,0,9.1-4.1,9.1-9.1s-4.1-9.1-9.1-9.1H40.4c-5.2,0-9.1-3.9-9.1-9.1S35.2,1053.7,40.4,1053.7z"/>
</g>
</svg>
