<?xml version="1.0" encoding="utf-8"?>
<!-- Generator: Adobe Illustrator 22.1.0, SVG Export Plug-In . SVG Version: 6.00 Build 0)  -->
<svg version="1.1" id="Layer_1" xmlns="http://www.w3.org/2000/svg" xmlns:xlink="http://www.w3.org/1999/xlink" x="0px" y="0px"
	 viewBox="0 0 300 300" style="enable-background:new 0 0 300 300;" xml:space="preserve">
<style type="text/css">
	.st0{fill:#FFFFFF;}
</style>
<g transform="translate(0,-952.36218)">
	<path class="st0" d="M287,1062.8c0-15-12.4-27.4-27.4-27.4h-89.9c-1.4-5.9-3.5-11.6-7.2-16.6c-5.6-7.5-14.1-13.9-24.6-13.9h-24.4
		c-17.1,0-32.4,10.7-46.2,22.3c-12.5,10.5-23.2,21.9-30.6,29.5H22.1c-4.8,0-9.1,4.4-9.1,9.1v103.5c0,4.8,4.4,9.1,9.1,9.1h30.3
		c14.6,13.2,33.7,21.3,54.9,21.3H147c15,0,27.4-12.4,27.4-27.4c0-3.7-0.7-7.3-2.1-10.6c11.6-3.2,20.4-13.4,20.4-26
		c0-3.7-0.7-7.3-2.1-10.6c11.6-3.2,20.4-13.4,20.4-26c0-3.2-0.8-6.3-1.8-9.1h50.5C274.6,1090.2,287,1077.8,287,1062.8z
		 M268.7,1062.8c0,5.2-3.9,9.1-9.1,9.1h-76.1c-5,0-9.1,4.1-9.1,9.1s4.1,9.1,9.1,9.1c5.2,0,9.1,3.9,9.1,9.1c0,5.2-3.9,9.1-9.1,9.1
		h-18.3c-5,0-9.1,4.1-9.1,9.1s4.1,9.1,9.1,9.1c5.2,0,9.1,3.9,9.1,9.1c0,5.2-3.9,9.1-9.1,9.1H147c-5,0-9.1,4.1-9.1,9.1
		s4.1,9.1,9.1,9.1c5.2,0,9.1,3.9,9.1,9.1c0,5.2-3.9,9.1-9.1,9.1h-39.6c-17.8,0-33.7-7.1-45.3-18.6c-1.7-1.7-4.1-2.7-6.5-2.7H31.3
		V1075h9.1c2.4,0,4.8-1,6.5-2.7c7.9-7.9,19.5-20.5,32.1-31c12.5-10.5,26.1-18.1,34.5-18.1h24.4c2.9,0,6.7,2.1,10,6.5
		c1.3,1.7,2.3,3.7,3.1,5.7h-31.4c-4.8-0.1-9.3,4.3-9.3,9.1c0,4.8,4.4,9.2,9.3,9.1h140C264.8,1053.7,268.7,1057.6,268.7,1062.8z"/>
</g>
</svg>
