<?xml version="1.0" encoding="utf-8"?>
<!-- Generator: Adobe Illustrator 22.1.0, SVG Export Plug-In . SVG Version: 6.00 Build 0)  -->
<svg version="1.1" id="Layer_1" xmlns="http://www.w3.org/2000/svg" xmlns:xlink="http://www.w3.org/1999/xlink" x="0px" y="0px"
	 viewBox="0 0 300 300" style="enable-background:new 0 0 300 300;" xml:space="preserve">
<style type="text/css">
	.st0{opacity:0.7;fill:#FF0091;}
	.st1{opacity:0.7;fill:#4000FF;}
	.st2{fill:#FFFFFF;}
</style>
<circle class="st0" cx="190.3" cy="169.8" r="88.2"/>
<circle class="st1" cx="113.5" cy="128.2" r="88.2"/>
<path class="st2" d="M21,179.2h2.1v2.1H21V179.2z M22,176.1h2.1v1H22V176.1z M118.3,87.1v1l2.1-1h3.1c0.7,0,3.5,3.1,8.3,9.3
	c0.7,0,1,0.7,1,2.1h2.1l2.1-1c2.2,3.3,6.4,6,12.4,8.3c0,1.5,2.4,4.3,7.2,8.3v2.1h-1c0.7,1,1,3.1,1,6.2h1v-2.1h2.1v3.1
	c-2.1,0-3.1,0.3-3.1,1c0.7,1.4,1,2.4,1,3.1c-1.4,0-2.1,1-2.1,3.1l-2.1-1h-1c0,1.4-0.7,2.1-2.1,2.1v2.1l2.1-1l2.1,3.1v1
	c-1.4,1.2-2.1,4.7-2.1,10.4l-2.1-1h-1v2.1h2.1v1c-2.1,2.2-3.1,4-3.1,5.2c1.4,2.2,2.1,4,2.1,5.2l-2.1,1c-0.7,0-1-0.3-1-1
	c-2.9,0.7-5,2.4-6.2,5.2l1,2.1l-2.1,1l-2.1-1h-1v1h2.1c-0.2,0.9-4.7,4.7-13.5,11.4l1,2.1c-1.4,0-5.5,3.1-12.4,9.3H110v1
	c0,0.7,0.3,1,1,1c0,1.7-3.1,4.1-9.3,7.2l-1,2.1l-2.1-1h-1c0,2.1-0.7,3.1-2.1,3.1h-1c-0.7,0-1-0.4-1-1l-2.1,1c-0.7,0-1-0.4-1-1
	c-5.2,2.1-9,3.1-11.4,3.1c-4.1-1.4-7.2-2.8-9.3-4.1c0,1.4-1,2.1-3.1,2.1c0,0.7,0.3,1.7,1,3.1l-1,5.2c2.1,6.4,3.1,10.2,3.1,11.4h5.2
	c3.8,0,13.1-2.8,27.9-8.3l-4.1,4.1h1c0.3,0,1.7-0.3,4.1-1c1.4,0.7,2.4,1,3.1,1c0.2-1.4,0.9-2.1,2.1-2.1h2.1v2.1
	c9.8-4.1,15.3-6.2,16.6-6.2c-2.1,3.5-4.5,5.2-7.2,5.2c0.7,1.4,1,2.4,1,3.1h1c0-2.8,2.1-4.1,6.2-4.1l5.2,3.1c4.7,0,15-4.8,31-14.5
	h2.1v3.1l-8.3,4.1v2.1h2.1l4.1-3.1c0,1.4,1,2.1,3.1,2.1v3.1h-1c-0.7,0-1-0.3-1-1c-1.4,0.7-2.4,1-3.1,1v7.2h-2.1v-2.1h-1l-2.1,1
	l-1-2.1c0-2.1,1-3.1,3.1-3.1v-1h-1l-4.1,2.1v-2.1h-1l-3.1,2.1l1,2.1c0,1.2-2.8,2.9-8.3,5.2v1h3.1l3.1-2.1h1v1c-0.7,1.4-1,2.4-1,3.1
	l-2.1-1c-3.5,1.7-5.2,3.1-5.2,4.1v1h1c1.4-0.7,2.4-1,3.1-1v2.1h-3.1v1h5.2c0,1-3.8,3.8-11.4,8.3c0,1.4-0.7,2.1-2.1,2.1h-1l-2.1-1
	c0,4.8-3.1,7.2-9.3,7.2c0-0.7-0.4-1-1-1v1l-2.1-1l-3.1,2.1c0-0.7-0.4-1-1-1c0,1.9-2.8,3.3-8.3,4.1v-2.1h-2.1c-2.9,0-5.7,0.7-8.3,2.1
	c0-1.4-0.7-2.1-2.1-2.1v2.1h-2.1v-2.1h-1v2.1c0.7,0,1,0.3,1,1l-2.1,1c-3.5-1-5.2-2.4-5.2-4.1l-5.2,1h-1c0-0.7-0.3-1.7-1-3.1l-2.1,1
	c-9.7-6.6-14.5-10.7-14.5-12.4l-2.1,1c-3.6-5-9.1-8.8-16.6-11.4v-1c2.8,0,4.1-1,4.1-3.1c-4.8-2.8-8.3-4.1-10.4-4.1v-4.1l1-2.1h-1
	c-1.4,0.7-2.4,1-3.1,1c-0.7-2.6-2.4-4.7-5.2-6.2l1-5.2v-7.2h2.1l2.1,6.2h1v-1c-0.7-4.7-1-8.5-1-11.4h1c-2.1-6-3.1-9.5-3.1-10.3
	l-2.1,1h-2.1v-5.2c0-0.7,0.4-1,1-1c0-2.1-1.4-3.1-4.1-3.1l2.1-3.1c-1.6,0-2.6-1.7-3.1-5.2h1c1.4,0,2.1,1,2.1,3.1
	c1.4,0,2.1-0.7,2.1-2.1h-2.1l1-2.1l5.2,3.1h3.1l3.1-2.1l-1-2.1c0.7-1.4,1-2.4,1-3.1h2.1v8.3h1c4.1-12.9,7.9-20.5,11.4-22.8h2.1
	c-4.8,6.4-8.6,14-11.4,22.8c0.7,0,1,0.4,1,1c2.2,0,4-3.1,5.2-9.3h1v3.1c-0.7,2.1-1,4.1-1,6.2c2.2-0.9,4.3-2.2,6.2-4.1
	c-0.7-1.4-1-2.4-1-3.1c0.7,0,3.5-3.1,8.3-9.3h-2.1v-2.1l2.1,1c8.3-15.3,14.1-23.6,17.6-24.8l-1-2.1v-1c0.9,0,3.3-2.8,7.2-8.3
	l10.4-6.2c0.5-2.8,1.2-4.1,2.1-4.1l-1-2.1v-1l5.2-1v-2.1h-2.1c-0.5,0.2-2.9,2.2-7.2,6.2c-2.8-0.7-4.1-2.4-4.1-5.2h2.1v2.1
	c1.6-1.9,4.3-4,8.3-6.2c0-1.9,2.1-4.7,6.2-8.3c1.4,0.7,2.4,1,3.1,1c1.4-0.7,2.4-1,3.1-1v1C115.3,87.8,117.1,87.1,118.3,87.1z
	 M27.2,187.5h2.1v4.1h-2.1V187.5z M31.4,207.2v2.1h1c1.4-0.7,2.4-1,3.1-1v-1H31.4z M35.5,191.7v5.2h1v-5.2H35.5z M36.5,197.9v5.2h1
	v-5.2H36.5z M38.6,223.7c1.4,0.2,2.1,0.9,2.1,2.1v1h-2.1V223.7z M43.8,151.3h2.1v2.1h-2.1V151.3z M46.9,147.2h1v2.1h-1V147.2z
	 M47.9,143H50v1c0,1.4-0.7,2.1-2.1,2.1V143z M47.9,231v1H50v-1H47.9z M60.3,126.5v1c0,1-1,2.1-3.1,3.1v-1
	C57.2,128.5,58.3,127.5,60.3,126.5z M63.4,131.6c1.4,0.2,2.1,0.9,2.1,2.1l-6.2,5.2v-1C60.7,133.7,62,131.6,63.4,131.6z M59.3,144.1
	h2.1v2.1h-2.1V144.1z M63.4,141h2.1v1h-2.1V141z M64.5,126.5h4.1v2.1c0,1.4-0.7,2.1-2.1,2.1h-2.1V126.5z M65.5,136.8
	c1.4,0.2,2.1,0.9,2.1,2.1c0,1.4-0.7,2.1-2.1,2.1c0-0.7-0.4-1-1-1C65.1,138.5,65.5,137.5,65.5,136.8z M71.7,132.7h1
	c0,1.4-2.1,2.8-6.2,4.1v-3.1h1l2.1,1C69.8,133.4,70.5,132.7,71.7,132.7z M70.7,127.5l4.1,1c1.4-0.7,2.4-1,3.1-1c0,1-1,2.1-3.1,3.1
	c-1.2-0.7-2.6-1-4.1-1V127.5z M73.8,118.2v2.1h-2.1C71.9,118.9,72.6,118.2,73.8,118.2z M88.3,103.7h1c3.4,1.7,5.2,3.1,5.2,4.1
	c-2.4,0-5.9,1.7-10.4,5.2l-2.1-1c-0.7,1.2-1,2.6-1,4.1l-3.1-2.1c0-1.2,3.5-4.3,10.4-9.3V103.7z M122.4,116.1h-3.1
	c0,1.9-3.5,3.3-10.3,4.1v2.1l2.1-1h1c0,0.5-1.7,2.2-5.2,5.2h2.1v1c-3.5,0-5.2,1-5.2,3.1h-3.1l-2.1-1l-1,2.1l2.1,1c0-0.7,0.3-1,1-1v1
	c-0.9,0-5,4.5-12.4,13.5c-1.7,2.1-3.5,3.1-5.2,3.1c0-0.7-0.4-1-1-1v1l2.1,3.1l-4.1,3.1l1,2.1v1c-2.1,0-3.1,1-3.1,3.1l2.1,1
	c0-1.2,3.1-2.2,9.3-3.1c7.1-9,12.6-13.5,16.6-13.5v1c0,1.4-1,2.1-3.1,2.1v2.1c9.5-8.3,14.7-12.4,15.5-12.4v3.1h1v-2.1
	c-0.7-1.4-1-2.4-1-3.1c1.7-1.4,3.1-2.1,4.1-2.1l-1-2.1c1.4-2.1,2.4-4.5,3.1-7.2v-1h-1v2.1h-1v-3.1c0-2.4,2.8-4.5,8.3-6.2v-1h-4.1
	V114h-1L122.4,116.1z M77.9,139.9c1,0,2.4-1.7,4.1-5.2v-1C79.3,134.4,77.9,136.5,77.9,139.9z M78.9,116.1h1v2.1h-1V116.1z M81,142
	h2.1v-2.1C81.7,140.1,81,140.8,81,142z M82.1,130.6v2.1h1c1.4,0,2.1-0.7,2.1-2.1v-1C83.8,130.3,82.7,130.6,82.1,130.6z M85.2,127.5
	v1h2.1v-1H85.2z M86.2,129.6v2.1h1v-2.1H86.2z M109,106.8l-2.1-1h-2.1c0,2.2-1.7,4-5.2,5.2v3.1l-2.1-1c-0.2,1.9-1.6,3.6-4.1,5.2
	c-2.4,4.1-4.5,6.2-6.2,6.2v2.1h6.2c0-3.5,2.4-6.2,7.2-8.3c0,2.8,1,4.1,3.1,4.1v1l-1,2.1h1c0-5.5,7.2-10,21.7-13.5v-3.1l-5.2,1
	c0-2.1-0.3-3.1-1-3.1h-3.1v-2.1C111.4,104.9,109,105.6,109,106.8z M97.6,155.4c0,1.6-1.7,2.6-5.2,3.1v1h1c3.1-1.4,4.8-2.8,5.2-4.1
	H97.6z M92.4,238.2v3.1h2.1v-3.1H92.4z M93.4,130.6v1h2.1v-1H93.4z M94.5,195.8c0.2,1.4,0.9,2.1,2.1,2.1l1-2.1H94.5z M95.5,123.4v1
	h2.1v-1H95.5z M95.5,132.7v1h2.1v-1H95.5z M98.6,123.4v2.1c1.4,0,2.1-0.7,2.1-2.1H98.6z M106.9,256.9c0,1-1.4,2.4-4.1,4.1h-2.1v-3.1
	C101.2,257.9,103.3,257.5,106.9,256.9z M102.8,214.4h2.1v1h-2.1V214.4z M103.8,250.6v2.1h1v-2.1H103.8z M104.8,98.5v2.1h1v-2.1
	H104.8z M104.8,217.5h2.1v1h-2.1V217.5z M106.9,235.1v1h2.1v-1H106.9z M114.1,147.2c0,1-0.7,2.4-2.1,4.1h1c1,0,2.1-1,3.1-3.1v-1
	H114.1z M114.1,215.5h1c-0.7,1.4-1,2.4-1,3.1h-2.1v-1C112.2,216.2,112.9,215.5,114.1,215.5z M117.2,132.7v1c0,1.4-0.7,2.1-2.1,2.1
	h-1C114.1,134.7,115.2,133.7,117.2,132.7z M122.4,126.5v1c0,1.4-0.7,2.1-2.1,2.1v-1C120.5,127.2,121.2,126.5,122.4,126.5z
	 M121.4,88.2v1h2.1v-1H121.4z M121.4,104.7v1h2.1v-1H121.4z M122.4,139.9v2.1h1v-2.1H122.4z M124.5,127.5v3.1h1v-3.1H124.5z
	 M124.5,134.7c0.2,1.4,0.9,2.1,2.1,2.1v-2.1H124.5z M127.6,128.5c0,2.1-0.3,3.1-1,3.1c0.7,1.4,1,2.4,1,3.1h1c0-1.9,1-4,3.1-6.2
	H127.6z M132.8,210.3c0,1-1,2.1-3.1,3.1h-2.1C127.6,211.8,129.3,210.8,132.8,210.3z M130.7,123.4l-1,4.1c1.4,0,2.1-1,2.1-3.1v-1
	H130.7z M150.4,201v1l-3.1,5.2c0.7,0,1,0.4,1,1c-3.6,0-8.4,2.8-14.5,8.3c-1.4-0.7-2.4-1-3.1-1v-2.1c2.4,0,6.9-2.4,13.5-7.2h1v-1
	l-1-2.1c0.7,0,1-0.3,1-1l2.1,1L150.4,201z M132.8,113v1h2.1v-1H132.8z M134.8,175.1h1v2.1h-1V175.1z M135.9,123.4
	c0.7,0,1.7,0.3,3.1,1v-3.1h-1C136.5,121.5,135.9,122.2,135.9,123.4z M139,151.3c0,2.1-1,3.1-3.1,3.1v2.1h1c1,0,2.4-1.7,4.1-5.2H139z
	 M141,171h1v2.1c-1,0-2.4,0.7-4.1,2.1h-1V173C137.9,173,139.3,172.4,141,171z M141,110.9v1l1,6.2l2.1-1h1v3.1h2.1
	c0-1.4-1.7-4.5-5.2-9.3H141z M142.1,124.4l1,2.1c-1.4,4.8-2.1,7.6-2.1,8.3c4.1-5.5,6.2-9.3,6.2-11.4v-1h-2.1L142.1,124.4z
	 M141,224.8v2.1c1.4,0,2.1-0.7,2.1-2.1H141z M142.1,120.3v2.1h1v-2.1H142.1z M148.3,137.9c0,1.6-2.1,5-6.2,10.3v3.1h1
	c0-0.9,2.4-4.3,7.2-10.4c-0.7-1.4-1-2.4-1-3.1H148.3z M142.1,153.4v2.1h1v-2.1H142.1z M149.3,120.3c1.4,3.5,2.1,6.2,2.1,8.3
	c1.4,0,2.1-0.7,2.1-2.1v-1l-2.1-3.1v-1l1-2.1h-1L149.3,120.3z M149.3,128.5v2.1h1v-2.1H149.3z M149.3,154.4h2.1v1h-2.1V154.4z
	 M150.4,204.1h2.1v2.1h-2.1V204.1z M158.6,141h1c-2.6,4.8-4.3,7.2-5.2,7.2v-2.1C155.9,143,157.3,141.3,158.6,141z M158.6,127.5h2.1
	v3.1h-2.1V127.5z M171,211.3v1c0,1.4-0.7,2.1-2.1,2.1v-1C169.2,212,169.8,211.3,171,211.3z"/>
</svg>
