<?xml version="1.0" encoding="utf-8"?>
<!-- Generator: Adobe Illustrator 22.1.0, SVG Export Plug-In . SVG Version: 6.00 Build 0)  -->
<svg version="1.1" id="Layer_1" xmlns="http://www.w3.org/2000/svg" xmlns:xlink="http://www.w3.org/1999/xlink" x="0px" y="0px"
	 viewBox="0 0 950 650" style="enable-background:new 0 0 950 650;" xml:space="preserve">
<style type="text/css">
	.st0{fill:#484B4B;}
</style>
<g>
	<path class="st0" d="M614.7,187c-11.4-63.4-64.6-112.8-131.1-117.6c-73.6-5.3-138.8,45.9-151.6,118
		c-64.8,9.7-114.4,65.6-114.4,133.1c0,74.3,60.3,134.6,134.6,134.6h49.4c9.9,0,18-8.1,18-18s-8.1-18-18-18h-49.4
		c-54.6,0-98.7-44.2-98.7-98.7s44.2-98.7,98.7-98.7h31.4c9.9,0,18-8.1,18-18c0-9.9-8.1-18-18-18H369c12.8-49.9,59.6-84.4,112.1-80.7
		c56.4,4.1,100.1,51,100,107.6v22.4c0,9.9,8.1,18,18,18c9.9,0,18-8.1,18-18v-11.4c45.4,9.6,79.1,50.3,78.2,98.5
		c-1.1,54.6-46.1,97.9-100.6,96.8h-49.4c-9.9,0-18,8.1-18,18s8.1,18,18,18h49.4c74.3,1.4,135.8-57.7,137.2-132
		C733.1,253.8,681.8,195.7,614.7,187z"/>
	<path class="st0" d="M473.4,544.9c-9.9,0-18,8.1-18,18c0,9.9,8.1,18,18,18c9.9,0,18-8.1,18-18C491.3,552.9,483.2,544.9,473.4,544.9
		z"/>
	<path class="st0" d="M536.8,396.8c3.4,3.4,8.1,5.2,12.8,5.2c7.2-0.1,13.7-4.4,16.5-11.1c2.7-6.7,1.2-14.4-3.9-19.5l-69.8-69.8
		c-5-5-11.9-7.9-19.1-7.9c-7.2,0-14,2.9-19.1,7.9l-69.8,69.9c-7,7-7,18.4,0,25.4c7,7,18.4,7,25.4,0l45.5-45.6V500
		c0,9.9,8.1,18,18,18s18-8.1,18-18V351.2L536.8,396.8z"/>
</g>
</svg>
