<?xml version="1.0" encoding="utf-8"?>
<!-- Generator: Adobe Illustrator 26.3.1, SVG Export Plug-In . SVG Version: 6.00 Build 0)  -->
<svg version="1.1" id="Layer_1" xmlns="http://www.w3.org/2000/svg" xmlns:xlink="http://www.w3.org/1999/xlink" x="0px" y="0px"
	 viewBox="0 0 40 40" style="enable-background:new 0 0 40 40;" xml:space="preserve">
<style type="text/css">
	.st0{fill:#FFFFFF;}
</style>
<path id="形状_00000012447292488244259110000008891509047933491103_" class="st0" d="M19.74,37.58L5.85,26.32v-3.27
	c1.51,0.9,13.43,8.23,13.54,8.23h1.17c0.08,0,10.51-6.41,13.54-8.26v3.3L20.21,37.58L19.74,37.58z M20.6,30.08h-1.18
	c-4.3-2.51-11.35-6.92-13.89-8.8c-0.71-0.63-1.2-1.47-1.38-2.4c0.58,0.41,1.19,0.76,1.84,1.06c0.68,0.3,1.4,0.48,2.14,0.52v-0.65
	c-0.7-0.16-1.38-0.4-2.03-0.71c-1.03-0.51-2-1.11-2.92-1.8v0.14c-1.57-1.53-1.29-2.62-1.05-3.05c0.62,0.35,1.38,0.76,2.05,1.06
	c1.26,0.42,2.59,0.6,3.92,0.52v-0.52c-1.29-0.11-2.57-0.39-3.78-0.84c-1.46-0.68-3.38-1.8-3.38-1.8v0.08
	c-1.65-1.9-0.73-2.78,0.46-2.78h6.7V9.64l11.68-7.22h0.46l11.65,7.22v0.44h6.73c1.17,0,2.11,0.87,0.46,2.75v-0.05
	c0,0-1.92,1.12-3.38,1.8c-1.23,0.45-2.51,0.73-3.81,0.84v0.52c1.33,0.08,2.66-0.1,3.92-0.52c0.68-0.33,1.43-0.71,2.05-1.06
	c0.24,0.46,0.51,1.56-1.03,3.05v-0.14c-0.92,0.69-1.89,1.29-2.92,1.8c-0.65,0.3-1.33,0.54-2.03,0.71v0.65
	c0.74-0.04,1.47-0.21,2.14-0.52c0.64-0.29,1.26-0.64,1.84-1.04c-0.17,0.9-0.62,1.72-1.3,2.34c-4.49,3.2-9.14,6.16-13.95,8.86l0,0
	l0,0L20.6,30.08z M19.41,30.08L19.41,30.08z"/>
</svg>
