<?xml version="1.0" encoding="utf-8"?>
<!-- Generator: Adobe Illustrator 26.3.1, SVG Export Plug-In . SVG Version: 6.00 Build 0)  -->
<svg version="1.1" id="Layer_1" xmlns="http://www.w3.org/2000/svg" xmlns:xlink="http://www.w3.org/1999/xlink" x="0px" y="0px"
	 viewBox="0 0 200 200" style="enable-background:new 0 0 200 200;" xml:space="preserve">
<style type="text/css">
	.st0{fill:#9F5AFC;}
	.st1{fill:#FFFFFF;}
</style>
<path id="路径" class="st0" d="M100.38-0.38c-55.23,0-100,44.77-100,100s44.77,100,100,100s100-44.77,100-100
	S155.6-0.38,100.38-0.38z"/>
<path id="Combined_Shape" class="st1" d="M54.76,142.86c-6.57-0.01-11.9-5.33-11.91-11.91v-50c0.01-6.57,5.34-11.89,11.91-11.9
	h19.04l2.91-7.41c1.08-2.71,3.7-4.49,6.61-4.5h33.34c2.89,0.03,5.48,1.81,6.55,4.5l2.98,7.41h19.05c6.57,0,11.9,5.33,11.9,11.91v50
	c0,6.57-5.33,11.9-11.91,11.9H54.76z M75,105.96c0,13.81,11.19,25,25,25s25-11.19,25-25s-11.19-25-25-25S75,92.15,75,105.96z
	 M84.52,105.96c0-8.55,6.92-15.48,15.47-15.49s15.48,6.92,15.49,15.47s-6.92,15.48-15.47,15.49c0,0,0,0-0.01,0
	C91.45,121.43,84.53,114.5,84.52,105.96z"/>
</svg>
