<svg xmlns="http://www.w3.org/2000/svg" xmlns:xlink="http://www.w3.org/1999/xlink" version="1.1" id="Layer_1" x="0px" y="0px" style="enable-background:new 0 0 200 200;" xml:space="preserve" viewBox="92.35 91.59 16.18 16.18">
<style type="text/css">
	.st0{fill:url(#coin_00000073687667673535785290000005214762484463441545_);}
</style>
<linearGradient id="coin_00000090999199733859699090000007552677536012511392_" gradientUnits="userSpaceOnUse" x1="-275.6984" y1="382.8179" x2="-274.6984" y2="382.8179" gradientTransform="matrix(16.186 0 0 -16.186 4554.8013 6295.9785)">
	<stop offset="0" style="stop-color:#FC8FAE"/>
	<stop offset="1" style="stop-color:#FCBEB1"/>
</linearGradient>
<path id="coin_1_" style="fill:url(#coin_00000090999199733859699090000007552677536012511392_);" d="M100.44,91.59  c-4.47,0-8.09,3.62-8.09,8.09c0,4.47,3.62,8.09,8.09,8.09c4.47,0,8.09-3.62,8.09-8.09l0,0C108.53,95.22,104.91,91.59,100.44,91.59z   M101.2,103.66v0.44c0,0.45-0.36,0.81-0.81,0.81s-0.81-0.36-0.81-0.81v-0.44c-0.56-0.07-1.1-0.22-1.62-0.44  c-0.49-0.19-0.74-0.74-0.55-1.24c0.14-0.36,0.48-0.6,0.86-0.61c0.68,0.23,1.38,0.38,2.1,0.44c1.16,0,1.16-0.4,1.16-0.58  c0-0.29-0.8-0.42-1.27-0.54c-1.14-0.29-2.86-0.73-2.86-2.5c0.03-1.23,0.94-2.26,2.16-2.43v-0.47c0-0.45,0.36-0.81,0.81-0.81  s0.81,0.36,0.81,0.81v0.42c0.48,0.04,0.95,0.15,1.41,0.31c0.49,0.18,0.74,0.73,0.56,1.22c-0.13,0.36-0.47,0.61-0.86,0.62  c-0.56-0.17-1.14-0.27-1.72-0.3c-0.54,0-1.19,0.15-1.19,0.57c0,0.28,0.39,0.42,1.32,0.64c1.11,0.27,2.79,0.67,2.79,2.51  C103.47,102.55,102.47,103.59,101.2,103.66L101.2,103.66z"/>
</svg>