<?xml version="1.0" encoding="utf-8"?>
<!-- Generator: Adobe Illustrator 26.3.1, SVG Export Plug-In . SVG Version: 6.00 Build 0)  -->
<svg version="1.1" id="Layer_1" xmlns="http://www.w3.org/2000/svg" xmlns:xlink="http://www.w3.org/1999/xlink" x="0px" y="0px"
	 viewBox="0 0 40 40" style="enable-background:new 0 0 40 40;" xml:space="preserve">
<style type="text/css">
	.st0{fill:#FFFFFF;}
</style>
<path class="st0" d="M26,6c7.7,0,14,6.3,14,14c0,7.6-6,13.7-13.5,14L26,34H14C6.3,34,0,27.7,0,20C0,12.5,6,6.3,13.5,6L14,6H26z
	 M25.5,21c-1.4,0-2.5,1.1-2.5,2.5s1.1,2.5,2.5,2.5s2.5-1.1,2.5-2.5S26.9,21,25.5,21z M12,14c-0.8,0-1.4,0.6-1.5,1.3l0,0.2v3h-3
	C6.7,18.5,6,19.1,6,20c0,0.8,0.6,1.4,1.3,1.5l0.2,0h3v3c0,0.8,0.7,1.5,1.5,1.5c0.8,0,1.4-0.5,1.5-1.3l0-0.2v-3h3
	c0.8,0,1.5-0.7,1.5-1.5c0-0.7-0.5-1.4-1.3-1.5l-0.2,0h-3v-3C13.5,14.7,12.8,14,12,14z M29.5,14c-1.4,0-2.5,1.1-2.5,2.5
	s1.1,2.5,2.5,2.5l0,0c1.4,0,2.5-1.1,2.5-2.5S30.9,14,29.5,14z"/>
</svg>
