<?xml version="1.0" encoding="utf-8"?>
<!-- Generator: Adobe Illustrator 26.3.1, SVG Export Plug-In . SVG Version: 6.00 Build 0)  -->
<svg version="1.1" id="Layer_1" xmlns="http://www.w3.org/2000/svg" xmlns:xlink="http://www.w3.org/1999/xlink" x="0px" y="0px"
	 viewBox="0 0 200 200" style="enable-background:new 0 0 200 200;" xml:space="preserve">
<style type="text/css">
	.st0{fill:#FFFFFF;}
</style>
<path class="st0" d="M184.9,98.6l-80.4-80.4c-2.4-2.4-6.4-2.4-8.8,0L15.1,98.6c-2.3,2.3-3.7,5.5-3.7,8.8c0,6.9,5.6,12.5,12.5,12.5
	h8.5v57.4c0,3.5,2.8,6.2,6.2,6.2h48.8v-43.8h21.9v43.8h51.9c3.5,0,6.2-2.8,6.2-6.2V120h8.5c3.3,0,6.5-1.3,8.8-3.7
	C189.7,111.4,189.7,103.5,184.9,98.6L184.9,98.6z"/>
</svg>
