<?xml version="1.0" encoding="utf-8"?>
<!-- Generator: Adobe Illustrator 26.3.1, SVG Export Plug-In . SVG Version: 6.00 Build 0)  -->
<svg version="1.1" id="Layer_1" xmlns="http://www.w3.org/2000/svg" xmlns:xlink="http://www.w3.org/1999/xlink" x="0px" y="0px"
	 viewBox="0 0 200 200" style="enable-background:new 0 0 200 200;" xml:space="preserve">
<style type="text/css">
	.st0{fill:url(#椭圆形_00000099628056455653079790000013426109037623100547_);}
	.st1{fill:#FFFFFF;}
</style>
<linearGradient id="椭圆形_00000060726717266189211230000003557817434773024439_" gradientUnits="userSpaceOnUse" x1="3.9795" y1="6.0322" x2="7.8257" y2="9.2284" gradientTransform="matrix(52 0 0 52 -206 -296)">
	<stop  offset="0" style="stop-color:#9F5AFC"/>
	<stop  offset="1" style="stop-color:#6200E5"/>
</linearGradient>
<circle id="椭圆形" style="fill:url(#椭圆形_00000060726717266189211230000003557817434773024439_);" cx="100" cy="100" r="100"/>
<path id="形状结合" class="st1" d="M95.19,147.51v-10.47H81.43c-2.39,0.07-4.39-1.8-4.46-4.2c-0.07-2.39,1.8-4.39,4.2-4.46
	c0.09,0,0.18,0,0.27,0H95.2v-5.75c-20.13-2.29-34.59-20.47-32.3-40.6c2.12-18.6,17.9-32.62,36.62-32.53h0.06
	c8.43,0.01,16.6,2.9,23.17,8.18l10.93-10.87h-11.79c-1.84,0-3.34-1.49-3.34-3.34c0-1.84,1.49-3.34,3.34-3.34h20.13
	c1.85,0,3.35,1.49,3.36,3.33v20.01c0,1.85-1.5,3.35-3.36,3.35c-1.85,0-3.35-1.5-3.35-3.35V51.31l-11.08,11.02
	c13.19,15.34,11.45,38.47-3.88,51.66c-5.58,4.8-12.48,7.81-19.8,8.63v5.76h12.31c2.39-0.07,4.39,1.8,4.46,4.2
	c0.07,2.39-1.8,4.39-4.2,4.46c-0.09,0-0.18,0-0.27,0H103.9v10.47c0,2.4-1.94,4.34-4.34,4.34C97.13,151.86,95.19,149.91,95.19,147.51
	z M69.32,86.19c-0.1,16.68,13.34,30.28,30.02,30.38s30.28-13.34,30.38-30.02S116.38,56.27,99.7,56.17c-0.06,0-0.12,0-0.18,0
	C82.9,56.13,69.38,69.57,69.32,86.19z"/>
</svg>
