<?xml version="1.0" encoding="utf-8"?>
<!-- Generator: Adobe Illustrator 26.3.1, SVG Export Plug-In . SVG Version: 6.00 Build 0)  -->
<svg version="1.1" id="Layer_1" xmlns="http://www.w3.org/2000/svg" xmlns:xlink="http://www.w3.org/1999/xlink" x="0px" y="0px"
	 viewBox="0 0 40 40" style="enable-background:new 0 0 40 40;" xml:space="preserve">
<style type="text/css">
	.st0{fill:#FFFFFF;}
</style>
<path class="st0" d="M38.84,31.7l-4.76-8.24c1.22-2.29,1.85-4.84,1.85-7.43c0-2.57-0.63-5.1-1.83-7.37
	c-4.09-7.78-13.71-10.78-21.5-6.69C4.83,6.05,1.83,15.68,5.92,23.46L1.16,31.7C1.06,31.86,1.01,32.05,1,32.23
	c-0.03,0.65,0.47,1.19,1.11,1.23l6.58,0.33l3.58,5.53c0.22,0.33,0.58,0.53,0.98,0.53l0.03,0c0.41-0.01,0.78-0.23,0.98-0.59
	l4.26-7.38c0.48,0.05,0.97,0.08,1.47,0.08c0.5,0,0.99-0.03,1.47-0.08l4.26,7.38c0.2,0.35,0.58,0.57,0.98,0.59h0.03
	c0.4,0,0.77-0.2,0.98-0.53l3.58-5.53l6.58-0.33c0.18-0.01,0.36-0.06,0.52-0.15C38.97,32.98,39.17,32.27,38.84,31.7z M20,21.81
	c-3.78-0.01-6.84-3.07-6.85-6.85c0-3.78,3.07-6.85,6.85-6.85s6.85,3.07,6.85,6.85C26.85,18.75,23.78,21.81,20,21.81z"/>
</svg>
