<?xml version="1.0" encoding="utf-8"?>
<!-- Generator: Adobe Illustrator 26.3.1, SVG Export Plug-In . SVG Version: 6.00 Build 0)  -->
<svg version="1.1" id="Layer_1" xmlns="http://www.w3.org/2000/svg" xmlns:xlink="http://www.w3.org/1999/xlink" x="0px" y="0px"
	 viewBox="0 0 200 200" style="enable-background:new 0 0 200 200;" xml:space="preserve">
<style type="text/css">
	.st0{fill:#FFFFFF;}
</style>
<g>
	<path class="st0" d="M150.4,15H49.6c-9.3,0-16.7,7.5-16.7,16.7v136.5c0,9.3,7.5,16.7,16.7,16.7h100.7c9.3,0,16.7-7.5,16.7-16.7
		V31.7C167.1,22.5,159.7,15,150.4,15z M83.6,151.9L100,133l16.4,18.9H83.6z M140.6,130.8c-11,11.1-28.6,12-40.6,2
		c-12.8,10.6-31.6,8.9-42.3-3.7c-9.9-12-9.1-29.7,2-40.6L100,48.2l40.4,40.2C152.1,100,152.3,119,140.6,130.8z"/>
</g>
</svg>
