<?xml version="1.0" encoding="utf-8"?>
<!-- Generator: Adobe Illustrator 26.3.1, SVG Export Plug-In . SVG Version: 6.00 Build 0)  -->
<svg version="1.1" id="Layer_1" xmlns="http://www.w3.org/2000/svg" xmlns:xlink="http://www.w3.org/1999/xlink" x="0px" y="0px"
	 viewBox="0 0 200 200" style="enable-background:new 0 0 200 200;" xml:space="preserve">
<style type="text/css">
	.st0{fill:url(#椭圆形_00000003815166237063415660000010765048003107742366_);}
	.st1{fill:#FFFFFF;}
</style>
<linearGradient id="椭圆形_00000127015008069368634110000003562236226948155576_" gradientUnits="userSpaceOnUse" x1="3.9795" y1="193.9678" x2="7.8257" y2="190.7716" gradientTransform="matrix(52 0 0 -52 -206 10104)">
	<stop  offset="0" style="stop-color:#9F5AFC"/>
	<stop  offset="1" style="stop-color:#6200E5"/>
</linearGradient>
<circle id="椭圆形" style="fill:url(#椭圆形_00000127015008069368634110000003562236226948155576_);" cx="100" cy="100" r="100"/>
<path id="形状" class="st1" d="M65.54,100.35c0.13-18.97,15.61-34.24,34.57-34.11c7.76,0.05,15.28,2.73,21.33,7.61l10.16-10.1
	h-10.97c-1.71,0-3.1-1.39-3.1-3.1c0-1.71,1.39-3.1,3.1-3.1h18.71c1.72-0.01,3.11,1.38,3.12,3.1c0,0,0,0,0,0v18.61
	c0,1.72-1.4,3.12-3.12,3.12c-1.72,0-3.12-1.4-3.12-3.12V67.92l-10.3,10.25c12.27,14.27,10.65,35.79-3.62,48.06
	c-6.24,5.37-14.22,8.29-22.46,8.24C80.95,134.51,65.59,119.24,65.54,100.35C65.54,100.35,65.54,100.35,65.54,100.35z"/>
</svg>
