<?xml version="1.0" encoding="utf-8"?>
<!-- Generator: Adobe Illustrator 26.3.1, SVG Export Plug-In . SVG Version: 6.00 Build 0)  -->
<svg version="1.1" id="Layer_1" xmlns="http://www.w3.org/2000/svg" xmlns:xlink="http://www.w3.org/1999/xlink" x="0px" y="0px"
	 viewBox="0 0 200 200" style="enable-background:new 0 0 200 200;" xml:space="preserve">
<style type="text/css">
	.st0{fill:#FFFFFF;}
</style>
<path id="post-it" class="st0" d="M97.33,106.97c-0.87-0.26-2.85-1.63-4.6-8.5l-1.26,7.14c-0.06,0.33,0.16,0.64,0.49,0.7l11.37,2
	c0.32,0.06,0.63-0.15,0.7-0.46l0.35-1.98l-6.78,1.22L97.33,106.97z M109.26,102.85c-1.87-2.27-3.25-8.79-3.63-10.77
	c-0.06-0.32-0.38-0.54-0.7-0.48l-2.94,0.48c0.4,1.63-0.59,3.27-2.22,3.67c-1.63,0.4-3.27-0.59-3.67-2.22
	c-0.03-0.13-0.06-0.26-0.07-0.39l-2.46,0.44c-0.33,0.06-0.55,0.37-0.49,0.7c0,0,0,0.01,0,0.01c0.44,2.29,2.15,10.32,4.41,11.43
	c0.12,0.06,0.25,0.08,0.38,0.06l11.05-1.95c0.33-0.06,0.55-0.37,0.49-0.7C109.38,103.03,109.34,102.94,109.26,102.85L109.26,102.85z
	"/>
<ellipse id="Ellipse_53" class="st0" cx="100.44" cy="92.78" rx="1.77" ry="1.77"/>
</svg>
