<svg xmlns="http://www.w3.org/2000/svg" xmlns:xlink="http://www.w3.org/1999/xlink" version="1.1" id="Layer_1" x="0px" y="0px" style="enable-background:new 0 0 200 200;" xml:space="preserve" viewBox="93.5 91.63 13.87 16.13">
<style type="text/css">
	.st0{fill:url(#形状_00000083047128396885560390000016758646815598900874_);}
</style>
<linearGradient id="形状_00000134959571831256581210000015308232252921682073_" gradientUnits="userSpaceOnUse" x1="-283.6315" y1="382.7615" x2="-282.4965" y2="382.7615" gradientTransform="matrix(13.874 0 0 -16.134 4028.6106 6275.1699)">
	<stop offset="0" style="stop-color:#65E2CE"/>
	<stop offset="1" style="stop-color:#00647C"/>
</linearGradient>
<path id="形状_00000173846658807532378530000011514084626641527940_" style="fill:url(#形状_00000134959571831256581210000015308232252921682073_);" d="  M98.85,107.76c-2.99,0-5.35,0-5.35-1.55v-0.32c-0.01-2.96,2.39-5.37,5.35-5.38h3.17c2.96,0.01,5.35,2.42,5.35,5.38v0.32  c0,1.55-2.48,1.55-5.35,1.55H98.85z M100.28,100.1L100.28,100.1z M96.04,95.84c0.01-2.34,1.92-4.23,4.26-4.21  c2.34,0.01,4.23,1.92,4.21,4.26c-0.01,2.33-1.91,4.21-4.24,4.21C97.94,100.09,96.04,98.19,96.04,95.84z"/>
</svg>