<?xml version="1.0" encoding="utf-8"?>
<!-- Generator: Adobe Illustrator 26.3.1, SVG Export Plug-In . SVG Version: 6.00 Build 0)  -->
<svg version="1.1" id="Layer_1" xmlns="http://www.w3.org/2000/svg" xmlns:xlink="http://www.w3.org/1999/xlink" x="0px" y="0px"
	 viewBox="0 0 40 40" style="enable-background:new 0 0 40 40;" xml:space="preserve">
<style type="text/css">
	.st0{fill:#FFFFFF;}
</style>
<path id="setting_00000066514081293891127740000006040998031027639994_" class="st0" d="M39.84,17.23
	c-0.22-0.94-0.93-1.69-1.86-1.95l-0.65-0.15c-3.3-0.99-5.24-4.39-4.43-7.74l0,0l0.19-0.61c0.24-0.94-0.05-1.93-0.75-2.59
	C31.6,3.63,30.82,3.12,30,2.68c-0.79-0.48-1.62-0.91-2.47-1.27c-0.93-0.28-1.93-0.04-2.62,0.64l-0.46,0.5
	c-2.51,2.36-6.41,2.35-8.91-0.01L15.1,2.06c-0.69-0.67-1.7-0.92-2.62-0.64C10.78,2.18,9.17,3.11,7.66,4.2
	c-0.7,0.66-0.99,1.66-0.75,2.59L7.1,7.41c0.8,3.35-1.16,6.74-4.46,7.72l-0.63,0.14c-0.93,0.26-1.64,1.01-1.86,1.95
	c-0.19,1.85-0.19,3.71,0,5.55c0.22,0.94,0.93,1.69,1.86,1.95l0.61,0.14l0,0c3.31,0.98,5.28,4.38,4.47,7.74l0,0l-0.19,0.61
	c-0.24,0.94,0.05,1.93,0.75,2.59c0.74,0.56,1.52,1.07,2.34,1.51c0.79,0.48,1.62,0.91,2.47,1.27c0.93,0.28,1.93,0.04,2.62-0.64
	l0.43-0.46c2.5-2.38,6.43-2.38,8.94,0l0,0l0.43,0.46c0.69,0.67,1.7,0.92,2.62,0.64c0.86-0.36,1.69-0.78,2.48-1.27
	c0.82-0.44,1.6-0.95,2.33-1.51c0.7-0.66,0.99-1.66,0.75-2.59l-0.19-0.63c-0.79-3.35,1.17-6.74,4.48-7.72l0,0l0.61-0.14
	c0.93-0.26,1.64-1.01,1.86-1.95c0.12-0.92,0.17-1.85,0.14-2.78C40.01,19.07,39.96,18.15,39.84,17.23z M19.99,27.98
	c-4.4,0-7.97-3.57-7.97-7.98s3.57-7.97,7.98-7.97s7.97,3.57,7.97,7.98C27.96,24.42,24.39,27.98,19.99,27.98z"/>
</svg>
