<?xml version="1.0" encoding="utf-8"?>
<!-- Generator: Adobe Illustrator 26.3.1, SVG Export Plug-In . SVG Version: 6.00 Build 0)  -->
<svg version="1.1" id="Layer_1" xmlns="http://www.w3.org/2000/svg" xmlns:xlink="http://www.w3.org/1999/xlink" x="0px" y="0px"
	 viewBox="0 0 200 200" style="enable-background:new 0 0 200 200;" xml:space="preserve">
<style type="text/css">
	.st0{fill:#FFFFFF;}
</style>
<path class="st0" d="M100,16.7C54,16.7,16.7,54,16.7,100S54,183.3,100,183.3s83.3-37.3,83.3-83.3l0,0C183.3,54,146,16.7,100,16.7z
	 M153.8,139.2h-19.3c-3.8-0.2-7.3,2.3-8.3,6l-5.6,18.5c-13.5,4.5-28.1,4.5-41.7,0l-5.6-18.5c-1.1-3.7-4.5-6.2-8.3-6H45.7
	C37.5,127.7,33.2,114,33.3,100l15.9-11.2c3.1-2.1,4.4-6.1,3.2-9.7L46.1,61C54.3,49.5,66,41,79.4,36.6l15.5,11.8
	c3,2.3,7.2,2.3,10.2,0l15.4-11.8c13.4,4.4,25.1,13,33.3,24.4l-6.2,18.2c-1.3,3.6,0,7.5,3.2,9.7l15.9,11.2
	C166.6,114.1,162.1,127.8,153.8,139.2L153.8,139.2z M125.8,87c2.7,1.8,3.9,5.2,2.9,8.3l-8.3,24.1c-1.3,3.4-4.7,5.6-8.3,5.4h-25
	c-3.7,0.2-7.1-2-8.3-5.4l-8.3-24.1c-1-3.1,0.2-6.5,2.9-8.3l20.8-14.6c3.1-2.1,7.1-2.1,10.2,0L125.8,87z"/>
</svg>
