<?xml version="1.0" encoding="utf-8"?>
<!-- Generator: Adobe Illustrator 26.3.1, SVG Export Plug-In . SVG Version: 6.00 Build 0)  -->
<svg version="1.1" id="Layer_1" xmlns="http://www.w3.org/2000/svg" xmlns:xlink="http://www.w3.org/1999/xlink" x="0px" y="0px"
	 viewBox="0 0 200 200" style="enable-background:new 0 0 200 200;" xml:space="preserve">
<style type="text/css">
	.st0{fill:url(#round_transfer_fill_00000171698175628937730430000002070208532507690146_);}
</style>
<linearGradient id="round_transfer_fill_00000052086372496060606030000013425707037401647522_" gradientUnits="userSpaceOnUse" x1="-282.4595" y1="382.8179" x2="-281.4595" y2="382.8179" gradientTransform="matrix(16.186 0 0 -16.186 4664.2373 6295.98)">
	<stop  offset="0" style="stop-color:#FF88D1"/>
	<stop  offset="1" style="stop-color:#FF31A8"/>
</linearGradient>
<path id="round_transfer_fill" style="fill:url(#round_transfer_fill_00000052086372496060606030000013425707037401647522_);" d="
	M100.44,91.59c-4.47,0-8.09,3.62-8.09,8.09s3.62,8.09,8.09,8.09s8.09-3.62,8.09-8.09C108.52,95.22,104.9,91.61,100.44,91.59z
	 M96.62,98.13l2.31-1.73c0.26-0.19,0.62-0.14,0.81,0.12s0.14,0.62-0.12,0.81l0,0l-0.93,0.69h5.2c0.32,0,0.58,0.26,0.58,0.58
	c0,0.32-0.26,0.58-0.58,0.58c0,0,0,0,0,0h-6.93c-0.24-0.01-0.45-0.17-0.52-0.4C96.39,98.54,96.45,98.29,96.62,98.13z M104.26,101.36
	l-2.31,1.73c-0.11,0.06-0.22,0.1-0.35,0.12c-0.18,0.01-0.36-0.08-0.46-0.23c-0.17-0.26-0.12-0.61,0.12-0.81l0.93-0.69h-5.2
	c-0.32,0-0.58-0.26-0.58-0.58c0-0.32,0.26-0.58,0.58-0.58c0,0,0,0,0,0h6.94c0.25,0.02,0.47,0.17,0.58,0.4
	C104.54,100.96,104.45,101.21,104.26,101.36z"/>
</svg>
