<svg xmlns="http://www.w3.org/2000/svg" xmlns:xlink="http://www.w3.org/1999/xlink" version="1.1" id="Layer_1" x="0px" y="0px" style="enable-background:new 0 0 200 200;" xml:space="preserve" viewBox="92.34 91.59 16.18 16.19">
<style type="text/css">
	.st0{fill:url(#Exclusion_2_00000060028142942838141130000015359460166621788836_);}
</style>
<linearGradient id="Exclusion_2_00000068664744659782884470000002994589587444274101_" gradientUnits="userSpaceOnUse" x1="-279.1166" y1="382.8657" x2="-278.1166" y2="382.8657" gradientTransform="matrix(16.183 0 0 -16.188 4609.291 6297.5205)">
	<stop offset="0" style="stop-color:#BF90FF"/>
	<stop offset="1" style="stop-color:#8BD7FF"/>
</linearGradient>
<path id="Exclusion_2" style="fill:url(#Exclusion_2_00000068664744659782884470000002994589587444274101_);" d="M104.49,107.78  H96.4c-0.61,0-1.1-0.49-1.11-1.09c0,0,0-0.01,0-0.01V95.64c0-0.61,0.49-1.1,1.09-1.11c0,0,0.01,0,0.01,0h8.09  c0.61,0,1.1,0.49,1.11,1.09c0,0,0,0.01,0,0.01v11.03c0,0.61-0.49,1.1-1.09,1.11C104.49,107.78,104.49,107.78,104.49,107.78z   M98.77,102.23c-0.17,0-0.34,0.07-0.47,0.18c-0.31,0.27-0.35,0.74-0.08,1.05c0.08,0.09,0.18,0.16,0.29,0.21  c0.4,0.17,0.83,0.29,1.26,0.35v0.34c0,0.35,0.28,0.63,0.63,0.63s0.63-0.28,0.63-0.63v-0.34c0.49-0.07,0.95-0.29,1.3-0.64  c0.32-0.33,0.49-0.77,0.48-1.23c0-0.16-0.02-0.33-0.06-0.49c-0.03-0.14-0.09-0.27-0.16-0.4c-0.07-0.11-0.15-0.22-0.24-0.31  c-0.09-0.09-0.19-0.17-0.3-0.24c-0.44-0.25-0.91-0.43-1.41-0.52l0,0h-0.01c-0.27-0.05-0.53-0.13-0.79-0.23  c-0.17-0.08-0.24-0.16-0.24-0.27c0-0.08,0.03-0.15,0.09-0.21c0.06-0.06,0.14-0.11,0.22-0.14c0.1-0.04,0.2-0.06,0.3-0.08  c0.11-0.02,0.21-0.02,0.32-0.02c0.45,0.03,0.9,0.11,1.34,0.24c0.26-0.01,0.5-0.15,0.62-0.38c0.2-0.36,0.07-0.81-0.28-1.01  c-0.03-0.02-0.07-0.03-0.1-0.05c-0.35-0.13-0.72-0.21-1.1-0.25v-0.33c0-0.35-0.28-0.63-0.63-0.63s-0.63,0.28-0.63,0.63v0.37  c-0.46,0.07-0.88,0.29-1.19,0.64c-0.31,0.35-0.48,0.79-0.49,1.26c0,0.16,0.02,0.32,0.06,0.47c0.04,0.14,0.09,0.26,0.16,0.39  c0.07,0.11,0.15,0.22,0.25,0.31c0.09,0.09,0.2,0.17,0.31,0.25c0.45,0.26,0.94,0.44,1.44,0.54c0.07,0.02,0.14,0.03,0.22,0.05l0,0  c0.17,0.04,0.35,0.09,0.51,0.14c0.17,0.07,0.25,0.14,0.25,0.22c0,0.14,0,0.45-0.9,0.45C99.85,102.53,99.3,102.41,98.77,102.23z   M107.8,97.48h-0.74c-0.41,0-0.74-0.33-0.74-0.74c0,0,0,0,0,0V94.9c0-0.61-0.49-1.1-1.1-1.1c0,0,0,0,0,0h-9.57  c-0.61,0-1.1,0.49-1.1,1.1l0,0v1.84c0,0.41-0.33,0.74-0.73,0.74c0,0,0,0,0,0h-0.74c-0.41,0-0.74-0.33-0.74-0.74c0,0,0,0,0,0v-4.05  c0-0.61,0.49-1.1,1.1-1.1c0,0,0,0,0,0h13.98c0.61,0,1.1,0.49,1.1,1.1c0,0,0,0,0,0v4.05C108.53,97.15,108.2,97.48,107.8,97.48  C107.8,97.48,107.8,97.48,107.8,97.48L107.8,97.48z"/>
</svg>