<svg xmlns="http://www.w3.org/2000/svg" width="146.908" height="375" viewBox="0 0 146.908 375">
  <g id="Group_140" data-name="Group 140" transform="translate(5423 -4285.397)">
    <g id="Group_129" data-name="Group 129" transform="translate(-5745 4045)">
      <path id="home" d="M104.311,108.3,86.45,92.721a2.831,2.831,0,0,0-3.719,0l-17.884,15.57a2.83,2.83,0,0,0,1.857,4.962h1.391v15.256a2.323,2.323,0,0,0,2.324,2.324H77.5a2.323,2.323,0,0,0,2.324-2.324v-7.933h9.513v7.937a2.323,2.323,0,0,0,2.324,2.324h7.078a2.323,2.323,0,0,0,2.324-2.324V113.263h1.4a2.828,2.828,0,0,0,1.853-4.962Z" transform="translate(258.125 148.372)" fill="#656565"/>
    </g>
    <g id="Group_139" data-name="Group 139" transform="translate(-5640 4045)">
      <path id="home-2" data-name="home" d="M104.311,108.3,86.45,92.721a2.831,2.831,0,0,0-3.719,0l-17.884,15.57a2.83,2.83,0,0,0,1.857,4.962h1.391v15.256a2.323,2.323,0,0,0,2.324,2.324H77.5a2.323,2.323,0,0,0,2.324-2.324v-7.933h9.513v7.937a2.323,2.323,0,0,0,2.324,2.324h7.078a2.323,2.323,0,0,0,2.324-2.324V113.263h1.4a2.828,2.828,0,0,0,1.853-4.962Z" transform="translate(258.125 148.372)" fill="#ff0317"/>
    </g>
    <path id="IMG" d="M37.813,24.3a1.876,1.876,0,0,0,.309-1.03V4.649a1.86,1.86,0,0,0-1.86-1.86H4.649a1.86,1.86,0,0,0-1.86,1.86V21.994l7.422-9.48a1.928,1.928,0,0,1,2.8-.2l.2.2,8.392,10.8a1.926,1.926,0,0,0,2.8.2l.2-.2,4.6-6a1.928,1.928,0,0,1,2.8-.2l.2.2L37.813,24.3ZM2.683,0H38.371a2.578,2.578,0,0,1,2.523,2.845V36.209a2.7,2.7,0,0,1-2.683,2.843H2.683A2.8,2.8,0,0,1,0,36.209V2.845A2.8,2.8,0,0,1,2.683,0ZM34.707,10.267a3.412,3.412,0,1,1-6.825,0,3.248,3.248,0,0,1,3.412-3.416,3.4,3.4,0,0,1,3.412,3.416Z" transform="translate(-5422 4396.824)" fill="#656565"/>
    <path id="IMG-2" data-name="IMG" d="M37.813,24.3a1.876,1.876,0,0,0,.309-1.03V4.649a1.86,1.86,0,0,0-1.86-1.86H4.649a1.86,1.86,0,0,0-1.86,1.86V21.994l7.422-9.48a1.928,1.928,0,0,1,2.8-.2l.2.2,8.392,10.8a1.926,1.926,0,0,0,2.8.2l.2-.2,4.6-6a1.928,1.928,0,0,1,2.8-.2l.2.2L37.813,24.3ZM2.683,0H38.371a2.578,2.578,0,0,1,2.523,2.845V36.209a2.7,2.7,0,0,1-2.683,2.843H2.683A2.8,2.8,0,0,1,0,36.209V2.845A2.8,2.8,0,0,1,2.683,0ZM34.707,10.267a3.412,3.412,0,1,1-6.825,0,3.248,3.248,0,0,1,3.412-3.416,3.4,3.4,0,0,1,3.412,3.416Z" transform="translate(-5317 4396.824)" fill="#ff0317"/>
    <path id="settings" d="M44.387,29.266H42.635a2.111,2.111,0,0,1-1.952-1.4l-1-2.553a2.051,2.051,0,0,1,.4-2.352l1.2-1.2a1.511,1.511,0,0,0,0-2.152l-2.152-2.152a1.51,1.51,0,0,0-2.152,0l-1.2,1.2a2.051,2.051,0,0,1-2.352.4l-2.552-1a2.163,2.163,0,0,1-1.4-1.952V14.352A1.525,1.525,0,0,0,27.921,12.8H24.968a1.525,1.525,0,0,0-1.552,1.552V16.3a2.111,2.111,0,0,1-1.4,1.952l-2.552,1a2.051,2.051,0,0,1-2.352-.4L15.459,17.3a1.51,1.51,0,0,0-2.152,0l-2.152,2.152a1.511,1.511,0,0,0,0,2.152l1.2,1.2a2.051,2.051,0,0,1,.4,2.352l-1,2.553a2.163,2.163,0,0,1-1.952,1.4H7.952A1.525,1.525,0,0,0,6.4,30.668v2.953a1.525,1.525,0,0,0,1.552,1.552H9.7a2.111,2.111,0,0,1,1.952,1.4l1,2.553a2.051,2.051,0,0,1-.4,2.352l-1.2,1.2a1.511,1.511,0,0,0,0,2.152l2.152,2.152a1.51,1.51,0,0,0,2.152,0l1.2-1.2a2.051,2.051,0,0,1,2.352-.4l2.552,1a2.163,2.163,0,0,1,1.4,1.952v2a1.525,1.525,0,0,0,1.552,1.552H27.37a1.525,1.525,0,0,0,1.552-1.552V48.585a2.111,2.111,0,0,1,1.4-1.952l2.552-1a2.051,2.051,0,0,1,2.352.4l1.2,1.2a1.51,1.51,0,0,0,2.152,0l2.152-2.152a1.511,1.511,0,0,0,0-2.152l-1.2-1.2a2.051,2.051,0,0,1-.4-2.352l1-2.553a2.163,2.163,0,0,1,1.952-1.4h1.752a1.525,1.525,0,0,0,1.552-1.552h.4V30.918A1.4,1.4,0,0,0,44.387,29.266ZM26.269,39.727a7.457,7.457,0,1,1,7.457-7.457A7.476,7.476,0,0,1,26.269,39.727Z" transform="translate(-5428.4 4608.508)" fill="#656565"/>
    <path id="settings-2" data-name="settings" d="M44.387,29.266H42.635a2.111,2.111,0,0,1-1.952-1.4l-1-2.553a2.051,2.051,0,0,1,.4-2.352l1.2-1.2a1.511,1.511,0,0,0,0-2.152l-2.152-2.152a1.51,1.51,0,0,0-2.152,0l-1.2,1.2a2.051,2.051,0,0,1-2.352.4l-2.552-1a2.163,2.163,0,0,1-1.4-1.952V14.352A1.525,1.525,0,0,0,27.921,12.8H24.968a1.525,1.525,0,0,0-1.552,1.552V16.3a2.111,2.111,0,0,1-1.4,1.952l-2.552,1a2.051,2.051,0,0,1-2.352-.4L15.459,17.3a1.51,1.51,0,0,0-2.152,0l-2.152,2.152a1.511,1.511,0,0,0,0,2.152l1.2,1.2a2.051,2.051,0,0,1,.4,2.352l-1,2.553a2.163,2.163,0,0,1-1.952,1.4H7.952A1.525,1.525,0,0,0,6.4,30.668v2.953a1.525,1.525,0,0,0,1.552,1.552H9.7a2.111,2.111,0,0,1,1.952,1.4l1,2.553a2.051,2.051,0,0,1-.4,2.352l-1.2,1.2a1.511,1.511,0,0,0,0,2.152l2.152,2.152a1.51,1.51,0,0,0,2.152,0l1.2-1.2a2.051,2.051,0,0,1,2.352-.4l2.552,1a2.163,2.163,0,0,1,1.4,1.952v2a1.525,1.525,0,0,0,1.552,1.552H27.37a1.525,1.525,0,0,0,1.552-1.552V48.585a2.111,2.111,0,0,1,1.4-1.952l2.552-1a2.051,2.051,0,0,1,2.352.4l1.2,1.2a1.51,1.51,0,0,0,2.152,0l2.152-2.152a1.511,1.511,0,0,0,0-2.152l-1.2-1.2a2.051,2.051,0,0,1-.4-2.352l1-2.553a2.163,2.163,0,0,1,1.952-1.4h1.752a1.525,1.525,0,0,0,1.552-1.552h.4V30.918A1.4,1.4,0,0,0,44.387,29.266ZM26.269,39.727a7.457,7.457,0,1,1,7.457-7.457A7.476,7.476,0,0,1,26.269,39.727Z" transform="translate(-5323.4 4608.508)" fill="#ff0317"/>
    <path id="game" d="M72.249,38.84H42.372a2.988,2.988,0,0,1,0-5.975H55.817V23.8a11.951,11.951,0,1,1,2.988,0v9.066H72.249a2.988,2.988,0,0,1,0,5.975ZM61.045,8.963A2.241,2.241,0,1,0,58.8,6.722,2.242,2.242,0,0,0,61.045,8.963Z" transform="translate(-5459.385 4509.879)" fill="#656565"/>
    <path id="game-2" data-name="game" d="M72.249,38.84H42.372a2.988,2.988,0,0,1,0-5.975H55.817V23.8a11.951,11.951,0,1,1,2.988,0v9.066H72.249a2.988,2.988,0,0,1,0,5.975ZM61.045,8.963A2.241,2.241,0,1,0,58.8,6.722,2.242,2.242,0,0,0,61.045,8.963Z" transform="translate(-5354.385 4509.879)" fill="#ff0317"/>
  </g>
</svg>
