<svg width="12px" height="12px" viewBox="0 0 12 12" version="1.1" xmlns="http://www.w3.org/2000/svg" xmlns:xlink="http://www.w3.org/1999/xlink" alt=""><title>gift</title><desc>Created with Sketch.</desc><g id="Page-1" stroke="none" stroke-width="1" fill="none" fill-rule="evenodd"><g class="blaze-menu-dropdown" transform="translate(-910.000000, -274.000000)" fill="#9095AC" fill-rule="nonzero"><g id="gift" transform="translate(910.000000, 274.000000)"><path d="M9.75,6.75 L2.25,6.75 C1.8,6.75 1.5,7.05 1.5,7.5 L1.5,11.25 C1.5,11.7 1.8,12 2.25,12 L9.75,12 C10.2,12 10.5,11.7 10.5,11.25 L10.5,7.5 C10.5,7.05 10.2,6.75 9.75,6.75 Z" id="Path"></path><path d="M10.35,3 C10.425,2.775 10.5,2.55 10.5,2.25 C10.5,0.975 9.525,0 8.25,0 C7.2,0 6.45,0.6 6,1.275 C5.55,0.6 4.8,0 3.75,0 C2.475,0 1.5,0.975 1.5,2.25 C1.5,2.55 1.575,2.775 1.65,3 L0,3 L0,6 L12,6 L12,3 L10.35,3 Z M8.25,1.5 C8.7,1.5 9,1.8 9,2.25 C9,2.7 8.7,3 8.25,3 L6.9,3 C7.05,2.325 7.425,1.5 8.25,1.5 Z M3,2.25 C3,1.8 3.3,1.5 3.75,1.5 C4.575,1.5 4.95,2.325 5.1,3 L3.75,3 C3.3,3 3,2.7 3,2.25 Z" id="Shape"></path></g></g></g></svg>
