<svg width="12px" height="12px" viewBox="0 0 12 12" version="1.1" xmlns="http://www.w3.org/2000/svg" xmlns:xlink="http://www.w3.org/1999/xlink" alt=""><title>lifering</title><desc>Created with Sketch.</desc><g id="Page-1" stroke="none" stroke-width="1" fill="none" fill-rule="evenodd"><g class="blaze-menu-dropdown" transform="translate(-910.000000, -388.000000)" fill="#9095AC" fill-rule="nonzero"><g id="Group-2" transform="translate(886.000000, 52.000000)"><g id="security" transform="translate(24.000000, 298.000000)"><g id="lifering" transform="translate(0.000000, 38.000000)"><path d="M6,0 C2.6862915,-2.02906125e-16 4.05812251e-16,2.6862915 0,6 C-4.05812251e-16,9.3137085 2.6862915,12 6,12 C9.3137085,12 12,9.3137085 12,6 C11.9966926,2.68766243 9.31233757,0.00330737898 6,0 Z M9.858,5 L8.288,5 C8.03533832,4.42436524 7.57563476,3.96466168 7,3.712 L7,2.142 C8.39931452,2.50789039 9.49210961,3.60068548 9.858,5 Z M6,7.5 C5.17157288,7.5 4.5,6.82842712 4.5,6 C4.5,5.17157288 5.17157288,4.5 6,4.5 C6.82842712,4.5 7.5,5.17157288 7.5,6 C7.5,6.39782473 7.34196474,6.7793556 7.06066017,7.06066017 C6.7793556,7.34196474 6.39782473,7.5 6,7.5 Z M5,2.142 L5,3.712 C4.42436524,3.96466168 3.96466168,4.42436524 3.712,5 L2.142,5 C2.50789039,3.60068548 3.60068548,2.50789039 5,2.142 Z M2.142,7 L3.712,7 C3.96466168,7.57563476 4.42436524,8.03533832 5,8.288 L5,9.858 C3.60068548,9.49210961 2.50789039,8.39931452 2.142,7 Z M7,9.858 L7,8.288 C7.57563476,8.03533832 8.03533832,7.57563476 8.288,7 L9.858,7 C9.49210961,8.39931452 8.39931452,9.49210961 7,9.858 Z" id="Shape"></path></g></g></g></g></g></svg>
