<svg width="12px" height="12px" viewBox="0 0 12 12" version="1.1" xmlns="http://www.w3.org/2000/svg" xmlns:xlink="http://www.w3.org/1999/xlink" alt=""><title>log-out</title><desc>Created with Sketch.</desc><g id="Page-1" stroke="none" stroke-width="1" fill="none" fill-rule="evenodd"><g class="blaze-menu-dropdown" transform="translate(-910.000000, -482.000000)" fill="#AAB0C4" fill-rule="nonzero"><g id="log-out" transform="translate(910.000000, 482.000000)"><path d="M11,0 L5,0 C4.44771525,-3.38176876e-17 4,0.44771525 4,1 L4,4 L6,4 L6,2 L10,2 L10,10 L6,10 L6,8 L4,8 L4,11 C4,11.5522847 4.44771525,12 5,12 L11,12 C11.5522847,12 12,11.5522847 12,11 L12,1 C12,0.44771525 11.5522847,3.38176876e-17 11,0 Z" id="Path"></path><polygon id="Path" points="8 5 3 5 3 3 0 6 3 9 3 7 8 7"></polygon></g></g></g></svg>
