<svg width="12px" height="12px" viewBox="0 0 12 12" version="1.1" xmlns="http://www.w3.org/2000/svg" xmlns:xlink="http://www.w3.org/1999/xlink" alt=""><title>s-delete</title><desc>Created with Sketch.</desc><g id="Page-1" stroke="none" stroke-width="1" fill="none" fill-rule="evenodd"><g transform="translate(-910.000000, -160.000000)" fill-rule="nonzero"><g id="s-delete" transform="translate(910.000000, 160.000000)"><path class="blaze-menu-dropdown" d="M10,0 L2,0 C0.8954305,-6.76353751e-17 1.3527075e-16,0.8954305 0,2 L0,10 C1.3527075e-16,11.1045695 0.8954305,12 2,12 L10,12 C11.1045695,12 12,11.1045695 12,10 L12,2 C12,0.8954305 11.1045695,6.76353751e-17 10,0 Z" id="Shape" fill="#9095AC"></path><path d="M8,5.5 L4,5.5 C3.72385763,5.5 3.5,5.72385763 3.5,6 C3.5,6.27614237 3.72385763,6.5 4,6.5 L8,6.5 C8.27614237,6.5 8.5,6.27614237 8.5,6 C8.5,5.72385763 8.27614237,5.5 8,5.5 Z" id="Path" fill="#FFFFFF"></path></g></g></g></svg>
