<?xml version="1.0" standalone="no"?><!DOCTYPE svg PUBLIC "-//W3C//DTD SVG 1.1//EN" "http://www.w3.org/Graphics/SVG/1.1/DTD/svg11.dtd"><svg t="1667965296937" class="icon" viewBox="0 0 1024 1024" version="1.1" xmlns="http://www.w3.org/2000/svg" p-id="4979" xmlns:xlink="http://www.w3.org/1999/xlink" width="200" height="200"><path d="M452.002909 192.186182a28.020364 28.020364 0 0 1 45.474909 21.876363v594.990546a28.020364 28.020364 0 0 1-45.474909 21.876364l-204.8-163.84H86.946909a28.020364 28.020364 0 0 1-27.973818-28.020364V384c0-15.453091 12.520727-27.973818 27.973818-27.973818H247.156364z m206.196364 178.408727a28.020364 28.020364 0 0 1 39.563636 0l101.655273 101.608727 101.655273-101.608727a28.020364 28.020364 0 0 1 35.700363-3.258182l3.863273 3.258182a28.020364 28.020364 0 0 1 0 39.610182l-101.608727 101.608727 101.608727 101.655273a28.020364 28.020364 0 0 1 3.258182 35.700364l-3.258182 3.909818a28.020364 28.020364 0 0 1-39.563636 0l-101.655273-101.701818-101.608727 101.701818a28.020364 28.020364 0 0 1-35.74691 3.258182l-3.863272-3.258182a28.020364 28.020364 0 0 1 0-39.610182l101.655272-101.655273-101.655272-101.608727a28.020364 28.020364 0 0 1-3.258182-35.700364z" fill="#1afa29" p-id="4980"></path></svg>