<?xml version="1.0" encoding="utf-8"?>
<!-- Generator: Adobe Illustrator 16.0.0, SVG Export Plug-In . SVG Version: 6.00 Build 0)  -->
<!DOCTYPE svg PUBLIC "-//W3C//DTD SVG 1.1//EN" "http://www.w3.org/Graphics/SVG/1.1/DTD/svg11.dtd">
<svg version="1.1" id="Layer_1" xmlns="http://www.w3.org/2000/svg" xmlns:xlink="http://www.w3.org/1999/xlink" x="0px" y="0px"
	 width="145px" height="60px" viewBox="0 0 145 60" enable-background="new 0 0 145 60" xml:space="preserve">
<g>
	<g>
		
			<linearGradient id="SVGID_1_" gradientUnits="userSpaceOnUse" x1="-67.0068" y1="39.5557" x2="-109.3597" y2="39.7624" gradientTransform="matrix(0.9981 0.0613 -0.0613 0.9981 -12.125 -9.4443)">
			<stop  offset="0" style="stop-color:#EC1C24"/>
			<stop  offset="0.0345" style="stop-color:#DB1920"/>
			<stop  offset="0.1172" style="stop-color:#B71217"/>
			<stop  offset="0.2076" style="stop-color:#980D10"/>
			<stop  offset="0.306" style="stop-color:#7F080A"/>
			<stop  offset="0.4156" style="stop-color:#6C0406"/>
			<stop  offset="0.5424" style="stop-color:#5E0202"/>
			<stop  offset="0.7019" style="stop-color:#560001"/>
			<stop  offset="1" style="stop-color:#540000"/>
		</linearGradient>
		<path fill="url(#SVGID_1_)" d="M-81.807,25.361c-0.294,3.515-7.062,8.96-32.092,8.183c-3.888-0.122-7.774-0.532-10.349-0.337
			c-0.18-1.495-0.089-3.28-0.089-3.28c0.01-1.165,3.323-1.535,5.255-1.578c10.96-0.246,37.026,0.569,34.487-12.296
			C-82.224,18.852-81.445,21.051-81.807,25.361z"/>
		<linearGradient id="SVGID_2_" gradientUnits="userSpaceOnUse" x1="-91.9531" y1="29.5835" x2="-124.4974" y2="29.5835">
			<stop  offset="0" style="stop-color:#790000"/>
			<stop  offset="0.1205" style="stop-color:#6C0000"/>
			<stop  offset="0.3108" style="stop-color:#5E0000"/>
			<stop  offset="0.5511" style="stop-color:#560000"/>
			<stop  offset="1" style="stop-color:#540000"/>
		</linearGradient>
		<path fill="url(#SVGID_2_)" d="M-94.007,32.457c-4.774,0.88-11.243,1.354-19.892,1.087c-3.888-0.122-7.774-0.532-10.349-0.337
			c-0.18-1.495-0.089-3.28-0.089-3.28c0.01-1.165,3.323-1.535,5.255-1.578c6.838-0.153,19.554,0.105,27.536-2.801
			C-91.784,27.518-92.394,29.902-94.007,32.457z"/>
		
			<linearGradient id="SVGID_3_" gradientUnits="userSpaceOnUse" x1="-111.5303" y1="27.3984" x2="-66.9385" y2="27.3984" gradientTransform="matrix(0.9981 0.0613 -0.0613 0.9981 -12.125 -9.4443)">
			<stop  offset="0" style="stop-color:#B01117"/>
			<stop  offset="0.0644" style="stop-color:#BA1819"/>
			<stop  offset="0.1733" style="stop-color:#D42A1F"/>
			<stop  offset="0.2593" style="stop-color:#EE3B24"/>
			<stop  offset="0.3968" style="stop-color:#EF4E23"/>
			<stop  offset="0.5026" style="stop-color:#ED3624"/>
			<stop  offset="0.6243" style="stop-color:#D71921"/>
			<stop  offset="0.7055" style="stop-color:#C4151B"/>
			<stop  offset="0.8693" style="stop-color:#930A0D"/>
			<stop  offset="1" style="stop-color:#670000"/>
		</linearGradient>
		<path fill="url(#SVGID_3_)" d="M-102.639,0c-0.641,1.31-1.116,2.181-1.659,3.404c6.95,0.426,22.223,2.763,23.142,16.321
			c0.175,2.585-0.106,4.723-0.774,6.438c-0.06-5.006-3.209-7.352-12.245-9.625c-8.079-2.032-19.845-2.667-31.15-2.188
			C-118.563,7.105-106.59,1.114-102.639,0z"/>
		<linearGradient id="SVGID_4_" gradientUnits="userSpaceOnUse" x1="-132.4424" y1="30.3711" x2="-82.3837" y2="42.2639">
			<stop  offset="0" style="stop-color:#B01117"/>
			<stop  offset="0.0644" style="stop-color:#BA1819"/>
			<stop  offset="0.1733" style="stop-color:#D42A1F"/>
			<stop  offset="0.2593" style="stop-color:#EE3B24"/>
			<stop  offset="0.3968" style="stop-color:#EF4E23"/>
			<stop  offset="0.5026" style="stop-color:#ED3624"/>
			<stop  offset="0.6243" style="stop-color:#D71921"/>
			<stop  offset="0.7055" style="stop-color:#C4151B"/>
			<stop  offset="0.8693" style="stop-color:#930A0D"/>
			<stop  offset="1" style="stop-color:#670000"/>
		</linearGradient>
		<path fill="url(#SVGID_4_)" d="M-124.36,29.078c1.535,0.399,4.703,0.557,6.925,0.772c3.618,0.351,10.019,0.599,15.598,1.175
			c13.202,1.365,22.957,4.961,20.61,18.75c-1.216-3.705-3.951-8.927-23.02-11.284c-6.917-0.855-12.277-0.895-16.974-1.96
			c-1.444-0.324-3.143-0.95-3.143-1.997C-124.363,33.445-124.36,29.646-124.36,29.078z"/>
		<linearGradient id="SVGID_5_" gradientUnits="userSpaceOnUse" x1="-125.3242" y1="8.0439" x2="-93.3511" y2="8.0439">
			<stop  offset="0" style="stop-color:#B01117"/>
			<stop  offset="0.0644" style="stop-color:#BA1819"/>
			<stop  offset="0.1733" style="stop-color:#D42A1F"/>
			<stop  offset="0.2593" style="stop-color:#EE3B24"/>
			<stop  offset="0.3968" style="stop-color:#EF4E23"/>
			<stop  offset="0.5026" style="stop-color:#ED3624"/>
			<stop  offset="0.6243" style="stop-color:#D71921"/>
			<stop  offset="0.7188" style="stop-color:#C4141A"/>
			<stop  offset="0.9095" style="stop-color:#930709"/>
			<stop  offset="1" style="stop-color:#790000"/>
		</linearGradient>
		<path fill="url(#SVGID_5_)" d="M-102.639,0c-0.641,1.31-1.116,2.181-1.659,3.404c2.795,0.171,6.935,0.65,10.946,2.046
			c-0.701,3.854-1.892,8.206-2.78,10.638c-7.957-1.674-18.771-2.179-29.193-1.736C-118.563,7.105-106.59,1.114-102.639,0z"/>
		<linearGradient id="SVGID_6_" gradientUnits="userSpaceOnUse" x1="-124.3584" y1="33.5283" x2="-103.3843" y2="33.5283">
			<stop  offset="0" style="stop-color:#B01117"/>
			<stop  offset="0.0644" style="stop-color:#BA1819"/>
			<stop  offset="0.1733" style="stop-color:#D42A1F"/>
			<stop  offset="0.2593" style="stop-color:#EE3B24"/>
			<stop  offset="0.3968" style="stop-color:#EF4E23"/>
			<stop  offset="0.5026" style="stop-color:#ED3624"/>
			<stop  offset="0.6243" style="stop-color:#D71921"/>
			<stop  offset="0.7188" style="stop-color:#C4141A"/>
			<stop  offset="0.9095" style="stop-color:#930709"/>
			<stop  offset="1" style="stop-color:#790000"/>
		</linearGradient>
		<path fill="url(#SVGID_6_)" d="M-124.333,29.078c1.535,0.399,4.702,0.557,6.924,0.772c3.283,0.319,8.853,0.552,14.024,1.022
			c-1.212,1.698-4.062,5.56-5.69,7.105c-4.67-0.426-8.584-0.646-12.119-1.447c-1.443-0.324-3.165-0.95-3.165-1.997
			C-124.358,33.378-124.333,30.667-124.333,29.078z"/>
		<linearGradient id="SVGID_7_" gradientUnits="userSpaceOnUse" x1="-125.3242" y1="20.6465" x2="-81.7085" y2="20.6465">
			<stop  offset="0" style="stop-color:#830000"/>
			<stop  offset="0.2197" style="stop-color:#7A0000"/>
			<stop  offset="0.5779" style="stop-color:#620000"/>
			<stop  offset="1" style="stop-color:#3D0000"/>
		</linearGradient>
		<path fill="url(#SVGID_7_)" d="M-125.324,14.352c0.683-0.127,14.496-1.602,26.777,0.729c11.033,2.096,16.271,4.71,16.811,9.367
			c0.192,1.666-0.687,2.654-1.021,3.069c0.354-0.429,0.816-1.239,0.663-2.521c-0.506-4.224-5.509-6.78-14.809-8.593
			c-6.748-1.315-16.131-1.671-27.939-0.868C-125.002,15.193-125.212,14.606-125.324,14.352z"/>
		<path fill="#EE4036" d="M-118.64,28.349c0,0-5.72,0.116-5.72,0.729c0,0.513,5.905,0.789,9.217,0.955
			c-5.585-0.496-7.706-0.805-7.764-1.012C-122.964,28.808-122.1,28.509-118.64,28.349z"/>
	</g>
	<g>
		<g>
			<linearGradient id="SVGID_8_" gradientUnits="userSpaceOnUse" x1="-120.8149" y1="52.2783" x2="-120.8149" y2="55.8543">
				<stop  offset="0" style="stop-color:#404041"/>
				<stop  offset="1" style="stop-color:#231F20"/>
			</linearGradient>
			<path fill="url(#SVGID_8_)" d="M-123.852,52.235h3.474c0.357,0,0.695,0.057,1.013,0.17c0.319,0.114,0.595,0.269,0.829,0.468
				c0.233,0.197,0.418,0.429,0.554,0.689c0.137,0.261,0.205,0.547,0.205,0.851c0,0.246-0.045,0.481-0.134,0.701
				c-0.088,0.219-0.214,0.42-0.375,0.599c-0.162,0.183-0.354,0.339-0.575,0.473c-0.221,0.136-0.463,0.234-0.726,0.299
				c0.145,0.274,0.293,0.563,0.446,0.866c0.153,0.3,0.306,0.6,0.458,0.9c0.154,0.302,0.306,0.603,0.459,0.899
				c0.153,0.296,0.298,0.576,0.433,0.839h-1.197l-1.76-3.41h-1.995v3.41h-1.108V52.235z M-122.744,55.645h2.365
				c0.204,0,0.397-0.031,0.58-0.095c0.182-0.063,0.341-0.152,0.478-0.268c0.136-0.111,0.243-0.243,0.318-0.392
				c0.077-0.15,0.115-0.309,0.115-0.478c0-0.17-0.039-0.332-0.115-0.484c-0.076-0.15-0.183-0.284-0.318-0.397
				c-0.136-0.115-0.295-0.204-0.478-0.267c-0.183-0.063-0.376-0.096-0.58-0.096h-2.365V55.645z"/>
			<linearGradient id="SVGID_9_" gradientUnits="userSpaceOnUse" x1="-120.8218" y1="55.6729" x2="-120.8218" y2="59.9441">
				<stop  offset="0" style="stop-color:#4D4D4F"/>
				<stop  offset="1" style="stop-color:#231F20"/>
			</linearGradient>
			<path fill="url(#SVGID_9_)" d="M-118.288,55.711c0.02-0.021,0.035-0.043,0.051-0.066h-5.616v4.343h1.108v-3.408h1.995l1.76,3.408
				h1.197c-0.135-0.263-0.28-0.542-0.433-0.84c-0.153-0.298-0.305-0.596-0.459-0.897c-0.153-0.301-0.305-0.601-0.458-0.901
				c-0.153-0.303-0.301-0.592-0.446-0.866c0.263-0.062,0.505-0.163,0.726-0.298C-118.641,56.052-118.449,55.893-118.288,55.711z"/>
		</g>
		<g>
			<linearGradient id="SVGID_10_" gradientUnits="userSpaceOnUse" x1="-102.791" y1="52.2783" x2="-102.791" y2="55.8543">
				<stop  offset="0" style="stop-color:#404041"/>
				<stop  offset="1" style="stop-color:#231F20"/>
			</linearGradient>
			<path fill="url(#SVGID_10_)" d="M-103.346,52.235h1.109v7.754h-1.109V52.235z"/>
			<linearGradient id="SVGID_11_" gradientUnits="userSpaceOnUse" x1="-102.791" y1="55.6719" x2="-102.791" y2="59.9436">
				<stop  offset="0" style="stop-color:#4D4D4F"/>
				<stop  offset="1" style="stop-color:#231F20"/>
			</linearGradient>
			<rect x="-103.346" y="55.632" fill="url(#SVGID_11_)" width="1.109" height="4.355"/>
		</g>
		<g>
			<linearGradient id="SVGID_12_" gradientUnits="userSpaceOnUse" x1="-85.2231" y1="52.2783" x2="-85.2231" y2="55.8543">
				<stop  offset="0" style="stop-color:#404041"/>
				<stop  offset="1" style="stop-color:#231F20"/>
			</linearGradient>
			<path fill="url(#SVGID_12_)" d="M-88.11,52.235h5.774v0.934h-4.665v2.476h4.08v0.935h-4.08v2.486h4.665v0.924h-5.774V52.235z"/>
			<linearGradient id="SVGID_13_" gradientUnits="userSpaceOnUse" x1="-85.2231" y1="55.6719" x2="-85.2231" y2="59.9436">
				<stop  offset="0" style="stop-color:#4D4D4F"/>
				<stop  offset="1" style="stop-color:#231F20"/>
			</linearGradient>
			<polygon fill="url(#SVGID_13_)" points="-87.001,59.062 -87.001,56.579 -82.922,56.579 -82.922,55.644 -86.494,55.644 
				-86.494,55.644 -88.11,55.644 -88.11,59.987 -82.336,59.987 -82.336,59.062 			"/>
		</g>
		<g>
			<linearGradient id="SVGID_14_" gradientUnits="userSpaceOnUse" x1="-95.1973" y1="52.2783" x2="-95.1973" y2="55.8543">
				<stop  offset="0" style="stop-color:#404041"/>
				<stop  offset="1" style="stop-color:#231F20"/>
			</linearGradient>
			<path fill="url(#SVGID_14_)" d="M-94.609,60h-3.434v-0.983h3.434c1.109,0,1.404-0.825,1.404-1.261
				c0-0.557-0.549-1.159-1.435-1.159h-1.158c-1.354,0-2.375-0.929-2.375-2.159c0-1.261,1.065-2.213,2.476-2.213h3.316v0.983h-3.316
				c-0.852,0-1.492,0.528-1.492,1.229c0,0.68,0.585,1.175,1.391,1.175h1.158c1.494,0,2.418,1.112,2.418,2.144
				C-92.222,58.845-93.059,60-94.609,60z"/>
			<linearGradient id="SVGID_15_" gradientUnits="userSpaceOnUse" x1="-95.1323" y1="55.6719" x2="-95.1323" y2="59.944">
				<stop  offset="0" style="stop-color:#4D4D4F"/>
				<stop  offset="1" style="stop-color:#231F20"/>
			</linearGradient>
			<path fill="url(#SVGID_15_)" d="M-95.798,56.597h1.158c0.886,0,1.435,0.603,1.435,1.159c0,0.436-0.295,1.261-1.404,1.261h-3.434
				V60h3.434c1.55,0,2.388-1.155,2.388-2.244c0-1.031-0.924-2.144-2.418-2.144h-1.158c-0.021,0-0.041-0.002-0.06-0.002h-1.956
				C-97.403,56.211-96.67,56.597-95.798,56.597z"/>
		</g>
		<g>
			<g>
				<linearGradient id="SVGID_16_" gradientUnits="userSpaceOnUse" x1="-110.5635" y1="52.1631" x2="-110.5635" y2="59.984">
					<stop  offset="0" style="stop-color:#404041"/>
					<stop  offset="1" style="stop-color:#231F20"/>
				</linearGradient>
				<path fill="url(#SVGID_16_)" d="M-112.585,57.183v2.807h-1.096v-5.021c0-0.389,0.082-0.756,0.246-1.101
					c0.164-0.343,0.386-0.642,0.667-0.899c0.281-0.255,0.61-0.456,0.989-0.603c0.379-0.151,0.785-0.226,1.223-0.226
					c0.429,0,0.833,0.074,1.211,0.226c0.378,0.146,0.708,0.348,0.989,0.603c0.28,0.258,0.502,0.557,0.667,0.899
					c0.164,0.345,0.246,0.712,0.246,1.101v5.021h-1.083v-2.807H-112.585z M-108.529,54.969c0-0.263-0.054-0.509-0.164-0.739
					c-0.109-0.23-0.259-0.432-0.449-0.606c-0.192-0.172-0.35-0.309-0.603-0.408c-0.253-0.1-0.524-0.149-0.812-0.149
					c-0.289,0-0.56,0.05-0.813,0.149s-0.437,0.228-0.628,0.404c-0.191,0.171-0.313,0.38-0.422,0.61
					c-0.109,0.23-0.164,0.477-0.164,0.739v1.287h4.057V54.969z"/>
			</g>
			<g>
				<linearGradient id="SVGID_17_" gradientUnits="userSpaceOnUse" x1="-110.5635" y1="55.6426" x2="-110.5635" y2="59.9751">
					<stop  offset="0" style="stop-color:#4D4D4F"/>
					<stop  offset="1" style="stop-color:#231F20"/>
				</linearGradient>
				<polygon fill="url(#SVGID_17_)" points="-108.529,56.256 -112.585,56.256 -112.585,55.632 -113.681,55.632 -113.681,59.989 
					-112.585,59.989 -112.585,57.183 -108.529,57.183 -108.529,59.989 -107.446,59.989 -107.446,55.632 -108.529,55.632 				"/>
			</g>
		</g>
	</g>
</g>
<g>
	
		<linearGradient id="SVGID_18_" gradientUnits="userSpaceOnUse" x1="67.4111" y1="36.6367" x2="16.3562" y2="36.8859" gradientTransform="matrix(0.9981 0.0613 -0.0613 0.9981 -12.125 -9.4443)">
		<stop  offset="0" style="stop-color:#EC1C24"/>
		<stop  offset="0.0345" style="stop-color:#DB1920"/>
		<stop  offset="0.1172" style="stop-color:#B71217"/>
		<stop  offset="0.2076" style="stop-color:#980D10"/>
		<stop  offset="0.306" style="stop-color:#7F080A"/>
		<stop  offset="0.4156" style="stop-color:#6C0406"/>
		<stop  offset="0.5424" style="stop-color:#5E0202"/>
		<stop  offset="0.7019" style="stop-color:#560001"/>
		<stop  offset="1" style="stop-color:#540000"/>
	</linearGradient>
	<path fill="url(#SVGID_18_)" d="M52.457,30.57c-0.355,4.236-8.514,10.801-38.685,9.863c-4.686-0.146-9.371-0.641-12.474-0.406
		c-0.218-1.803-0.108-3.953-0.108-3.953c0.012-1.404,4.005-1.852,6.334-1.903c13.211-0.296,44.633,0.687,41.571-14.821
		C51.953,22.723,52.893,25.374,52.457,30.57z"/>
	<linearGradient id="SVGID_19_" gradientUnits="userSpaceOnUse" x1="40.2266" y1="35.6592" x2="0.9966" y2="35.6592">
		<stop  offset="0" style="stop-color:#790000"/>
		<stop  offset="0.1205" style="stop-color:#6C0000"/>
		<stop  offset="0.3108" style="stop-color:#5E0000"/>
		<stop  offset="0.5511" style="stop-color:#560000"/>
		<stop  offset="1" style="stop-color:#540000"/>
	</linearGradient>
	<path fill="url(#SVGID_19_)" d="M37.75,39.123c-5.754,1.062-13.552,1.633-23.978,1.311c-4.686-0.146-9.371-0.641-12.474-0.406
		c-0.218-1.803-0.108-3.953-0.108-3.953c0.012-1.404,4.005-1.852,6.334-1.903c8.243-0.185,23.571,0.128,33.194-3.375
		C40.43,33.17,39.695,36.045,37.75,39.123z"/>
	
		<linearGradient id="SVGID_20_" gradientUnits="userSpaceOnUse" x1="13.7412" y1="21.9814" x2="67.4932" y2="21.9814" gradientTransform="matrix(0.9981 0.0613 -0.0613 0.9981 -12.125 -9.4443)">
		<stop  offset="0" style="stop-color:#B01117"/>
		<stop  offset="0.0644" style="stop-color:#BA1819"/>
		<stop  offset="0.1733" style="stop-color:#D42A1F"/>
		<stop  offset="0.2593" style="stop-color:#EE3B24"/>
		<stop  offset="0.3968" style="stop-color:#EF4E23"/>
		<stop  offset="0.5026" style="stop-color:#ED3624"/>
		<stop  offset="0.6243" style="stop-color:#D71921"/>
		<stop  offset="0.7055" style="stop-color:#C4151B"/>
		<stop  offset="0.8693" style="stop-color:#930A0D"/>
		<stop  offset="1" style="stop-color:#670000"/>
	</linearGradient>
	<path fill="url(#SVGID_20_)" d="M27.345,0C26.573,1.578,26,2.628,25.346,4.103c8.377,0.514,26.787,3.331,27.896,19.674
		c0.211,3.117-0.129,5.693-0.934,7.761c-0.072-6.034-3.869-8.862-14.76-11.602C27.81,17.486,13.626,16.721,0,17.299
		C8.149,8.564,22.582,1.343,27.345,0z"/>
	<linearGradient id="SVGID_21_" gradientUnits="userSpaceOnUse" x1="-8.5791" y1="36.6094" x2="51.7629" y2="50.9453">
		<stop  offset="0" style="stop-color:#B01117"/>
		<stop  offset="0.0644" style="stop-color:#BA1819"/>
		<stop  offset="0.1733" style="stop-color:#D42A1F"/>
		<stop  offset="0.2593" style="stop-color:#EE3B24"/>
		<stop  offset="0.3968" style="stop-color:#EF4E23"/>
		<stop  offset="0.5026" style="stop-color:#ED3624"/>
		<stop  offset="0.6243" style="stop-color:#D71921"/>
		<stop  offset="0.7055" style="stop-color:#C4151B"/>
		<stop  offset="0.8693" style="stop-color:#930A0D"/>
		<stop  offset="1" style="stop-color:#670000"/>
	</linearGradient>
	<path fill="url(#SVGID_21_)" d="M1.162,35.051c1.851,0.48,5.669,0.671,8.347,0.931c4.361,0.423,12.077,0.722,18.801,1.417
		C44.225,39.043,55.984,43.379,53.156,60c-1.467-4.467-4.764-10.761-27.75-13.604c-8.338-1.03-14.799-1.078-20.46-2.361
		c-1.74-0.392-3.789-1.146-3.789-2.408C1.158,40.314,1.162,35.736,1.162,35.051z"/>
	<linearGradient id="SVGID_22_" gradientUnits="userSpaceOnUse" x1="0" y1="9.6963" x2="38.541" y2="9.6963">
		<stop  offset="0" style="stop-color:#B01117"/>
		<stop  offset="0.0644" style="stop-color:#BA1819"/>
		<stop  offset="0.1733" style="stop-color:#D42A1F"/>
		<stop  offset="0.2593" style="stop-color:#EE3B24"/>
		<stop  offset="0.3968" style="stop-color:#EF4E23"/>
		<stop  offset="0.5026" style="stop-color:#ED3624"/>
		<stop  offset="0.6243" style="stop-color:#D71921"/>
		<stop  offset="0.7188" style="stop-color:#C4141A"/>
		<stop  offset="0.9095" style="stop-color:#930709"/>
		<stop  offset="1" style="stop-color:#790000"/>
	</linearGradient>
	<path fill="url(#SVGID_22_)" d="M27.345,0C26.573,1.578,26,2.628,25.346,4.103c3.369,0.206,8.359,0.785,13.195,2.466
		c-0.846,4.646-2.281,9.892-3.352,12.824C25.598,17.374,12.562,16.766,0,17.299C8.149,8.564,22.582,1.343,27.345,0z"/>
	<linearGradient id="SVGID_23_" gradientUnits="userSpaceOnUse" x1="1.1636" y1="40.415" x2="26.4463" y2="40.415">
		<stop  offset="0" style="stop-color:#B01117"/>
		<stop  offset="0.0644" style="stop-color:#BA1819"/>
		<stop  offset="0.1733" style="stop-color:#D42A1F"/>
		<stop  offset="0.2593" style="stop-color:#EE3B24"/>
		<stop  offset="0.3968" style="stop-color:#EF4E23"/>
		<stop  offset="0.5026" style="stop-color:#ED3624"/>
		<stop  offset="0.6243" style="stop-color:#D71921"/>
		<stop  offset="0.7188" style="stop-color:#C4141A"/>
		<stop  offset="0.9095" style="stop-color:#930709"/>
		<stop  offset="1" style="stop-color:#790000"/>
	</linearGradient>
	<path fill="url(#SVGID_23_)" d="M1.195,35.051c1.85,0.48,5.667,0.671,8.346,0.931c3.957,0.386,10.671,0.665,16.905,1.232
		c-1.46,2.048-4.897,6.702-6.859,8.565c-5.63-0.513-10.348-0.777-14.609-1.744c-1.74-0.392-3.814-1.146-3.814-2.408
		C1.164,40.234,1.195,36.965,1.195,35.051z"/>
	<linearGradient id="SVGID_24_" gradientUnits="userSpaceOnUse" x1="0" y1="24.8872" x2="52.5742" y2="24.8872">
		<stop  offset="0" style="stop-color:#830000"/>
		<stop  offset="0.2197" style="stop-color:#7A0000"/>
		<stop  offset="0.5779" style="stop-color:#620000"/>
		<stop  offset="1" style="stop-color:#3D0000"/>
	</linearGradient>
	<path fill="url(#SVGID_24_)" d="M0,17.299c0.823-0.153,17.473-1.93,32.277,0.88c13.299,2.525,19.613,5.677,20.264,11.291
		c0.232,2.008-0.826,3.2-1.23,3.7c0.428-0.517,0.984-1.494,0.799-3.04c-0.609-5.09-6.641-8.173-17.85-10.357
		c-8.134-1.586-19.445-2.014-33.678-1.046C0.387,18.313,0.135,17.607,0,17.299z"/>
	<path fill="#EE4036" d="M8.057,34.171c0,0-6.895,0.142-6.895,0.88c0,0.618,7.118,0.951,11.11,1.15
		c-6.732-0.597-9.289-0.969-9.358-1.219C2.845,34.725,3.887,34.365,8.057,34.171z"/>
</g>
<g>
	<g>
		<path fill="#FFFFFF" d="M65.764,22.681h6.628c0.683,0,1.327,0.107,1.934,0.324c0.609,0.217,1.136,0.512,1.584,0.894
			c0.443,0.376,0.798,0.817,1.056,1.315c0.263,0.498,0.392,1.043,0.392,1.622c0,0.471-0.087,0.92-0.257,1.339
			c-0.168,0.417-0.408,0.801-0.716,1.143c-0.31,0.349-0.676,0.647-1.098,0.903c-0.422,0.257-0.883,0.446-1.384,0.569
			c0.276,0.524,0.558,1.077,0.85,1.653c0.294,0.573,0.584,1.147,0.876,1.721c0.294,0.574,0.584,1.147,0.876,1.715
			c0.291,0.565,0.568,1.101,0.827,1.603h-2.285l-3.358-6.509h-3.809v6.509h-2.115V22.681z M67.879,29.187h4.513
			c0.39,0,0.758-0.059,1.107-0.179c0.349-0.122,0.652-0.291,0.913-0.511c0.258-0.214,0.463-0.465,0.607-0.749
			c0.146-0.285,0.219-0.587,0.219-0.912c0-0.324-0.073-0.633-0.219-0.923c-0.145-0.289-0.35-0.543-0.607-0.758
			c-0.261-0.22-0.564-0.39-0.913-0.51c-0.35-0.12-0.718-0.183-1.107-0.183h-4.513V29.187z"/>
		<path fill="#FFFFFF" d="M76.384,29.314c0.036-0.041,0.065-0.083,0.098-0.128H65.764v8.29h2.115v-6.505h3.809l3.358,6.505h2.285
			c-0.259-0.501-0.536-1.036-0.827-1.603c-0.292-0.57-0.582-1.138-0.876-1.714c-0.292-0.575-0.582-1.147-0.876-1.72
			c-0.292-0.58-0.573-1.13-0.85-1.655c0.501-0.118,0.962-0.31,1.384-0.566C75.708,29.965,76.074,29.66,76.384,29.314z"/>
	</g>
	<g>
		<path fill="#FFFFFF" d="M104.902,22.681h2.116v14.8h-2.116V22.681z"/>
		<rect x="104.902" y="29.164" fill="#FFFFFF" width="2.116" height="8.312"/>
	</g>
	<g>
		<path fill="#FFFFFF" d="M133.979,22.681H145v1.781h-8.905v4.725h7.787v1.785h-7.787v4.745H145v1.765h-11.021V22.681z"/>
		<polygon fill="#FFFFFF" points="136.095,35.711 136.095,30.971 143.882,30.971 143.882,29.185 137.064,29.185 137.064,29.185 
			133.979,29.185 133.979,37.477 145,37.477 145,35.711 		"/>
	</g>
	<g>
		<path fill="#FFFFFF" d="M121.574,37.5h-6.552v-1.877h6.552c2.118,0,2.681-1.574,2.681-2.405c0-1.063-1.047-2.213-2.739-2.213
			h-2.21c-2.584,0-4.532-1.773-4.532-4.121c0-2.408,2.034-4.223,4.727-4.223h6.33v1.877h-6.33c-1.626,0-2.849,1.008-2.849,2.346
			c0,1.297,1.116,2.242,2.654,2.242h2.21c2.853,0,4.617,2.124,4.617,4.092C126.133,35.295,124.533,37.5,121.574,37.5z"/>
		<path fill="#FFFFFF" d="M119.306,31.005h2.21c1.692,0,2.739,1.149,2.739,2.213c0,0.831-0.562,2.405-2.681,2.405h-6.552V37.5h6.552
			c2.959,0,4.559-2.205,4.559-4.282c0-1.969-1.765-4.092-4.617-4.092h-2.21c-0.038,0-0.076-0.003-0.114-0.003h-3.734
			C116.244,30.269,117.643,31.005,119.306,31.005z"/>
	</g>
	<g>
		<g>
			<path fill="#FFFFFF" d="M87.266,32.123v5.357h-2.09v-9.583c0-0.742,0.156-1.444,0.469-2.101c0.312-0.654,0.736-1.225,1.272-1.716
				c0.534-0.487,1.163-0.872,1.885-1.152c0.724-0.289,1.5-0.429,2.335-0.429c0.819,0,1.59,0.141,2.312,0.429
				c0.721,0.28,1.351,0.665,1.887,1.152c0.535,0.491,0.96,1.062,1.273,1.716c0.311,0.657,0.469,1.359,0.469,2.101v9.583h-2.068
				v-5.357H87.266z M95.009,27.898c0-0.501-0.104-0.971-0.312-1.411c-0.209-0.439-0.495-0.825-0.858-1.158
				c-0.366-0.327-0.666-0.588-1.149-0.78c-0.483-0.188-1.001-0.284-1.552-0.284c-0.552,0-1.069,0.096-1.553,0.284
				c-0.483,0.192-0.835,0.437-1.199,0.773c-0.365,0.326-0.598,0.726-0.805,1.165c-0.209,0.44-0.314,0.91-0.314,1.411v2.456h7.743
				V27.898z"/>
		</g>
		<g>
			<polygon fill="#FFFFFF" points="95.009,30.354 87.266,30.354 87.266,29.164 85.176,29.164 85.176,37.48 87.266,37.48 
				87.266,32.123 95.009,32.123 95.009,37.48 97.077,37.48 97.077,29.164 95.009,29.164 			"/>
		</g>
	</g>
</g>
</svg>
