<svg id="img_3-03" data-name="img*3-03" xmlns="http://www.w3.org/2000/svg" width="30.837" height="23.999" viewBox="0 0 30.837 23.999">
  <path id="Path_9" data-name="Path 9" d="M24.3,72.24H1.737A1.742,1.742,0,0,0,0,73.977V88.716a1.742,1.742,0,0,0,1.737,1.737H24.3a1.743,1.743,0,0,0,1.738-1.737V73.977A1.743,1.743,0,0,0,24.3,72.24ZM8.564,85.431h-7.2V73.7H8.571Zm8.058,0H9.413V73.7h7.209Zm8.059,0H17.472V73.7h7.209Z" transform="translate(0 -66.454)" fill="#656565"/>
  <rect id="Rectangle_16" data-name="Rectangle 16" width="18.463" height="2.604" rx="1.302" transform="translate(3.788 4.24)" fill="#656565"/>
  <rect id="Rectangle_17" data-name="Rectangle 17" width="4.149" height="3.444" rx="1.722" transform="translate(10.945 2.518)" fill="#656565"/>
  <rect id="Rectangle_18" data-name="Rectangle 18" width="3.89" height="4.023" rx="1.945" transform="translate(25.058 12.881)" fill="#656565"/>
  <rect id="Rectangle_19" data-name="Rectangle 19" width="1.157" height="11.01" rx="0.579" transform="translate(27.79 4.228)" fill="#656565"/>
  <ellipse id="Ellipse_6" data-name="Ellipse 6" cx="2.489" cy="2.489" rx="2.489" ry="2.489" transform="translate(25.859 0)" fill="#656565"/>
  <path id="Path_10" data-name="Path 10" d="M35.443,127.793a.324.324,0,0,1,.3.139.721.721,0,0,1,.084.346,1.05,1.05,0,0,1,.977-.508,1.842,1.842,0,0,1,.831.2l.353.177a.492.492,0,0,0,.208.062.2.2,0,0,0,.169-.1l.115-.169a.376.376,0,0,1,.331-.151.529.529,0,0,1,.427.215.847.847,0,0,1,.173.546,1.7,1.7,0,0,1-.423,1.077q-.124.147-.392.446a5.668,5.668,0,0,0-.75.965,1.555,1.555,0,0,0-.2.756,3.048,3.048,0,0,0,.038.4,3.026,3.026,0,0,1,.038.4.561.561,0,0,1-.177.431.682.682,0,0,1-.477.16.771.771,0,0,1-.654-.32,1.439,1.439,0,0,1-.24-.881,2.088,2.088,0,0,1,.6-1.515,8.448,8.448,0,0,1,.707-.641,6.552,6.552,0,0,0,.74-.669,1.411,1.411,0,0,1-.569.147,1.729,1.729,0,0,1-.808-.269l-.353-.2a.515.515,0,0,0-.24-.07q-.231,0-.231.254a.544.544,0,0,0,.015.07l.07.261a1.068,1.068,0,0,1,.038.269.537.537,0,0,1-.6.615q-.57,0-.57-.538a2.142,2.142,0,0,1,.023-.315c.041-.272.062-.431.062-.48a1.816,1.816,0,0,0-.038-.3,1.807,1.807,0,0,1-.038-.3.506.506,0,0,1,.127-.354A.424.424,0,0,1,35.443,127.793Z" transform="translate(-32.178 -117.536)" fill="#656565"/>
  <path id="Path_11" data-name="Path 11" d="M135.979,124.5a.32.32,0,0,1,.3.139.714.714,0,0,1,.085.346,1.048,1.048,0,0,1,.976-.508,1.842,1.842,0,0,1,.831.2l.354.177a.489.489,0,0,0,.207.062.2.2,0,0,0,.169-.1l.115-.169a.377.377,0,0,1,.331-.154.527.527,0,0,1,.427.215.846.846,0,0,1,.173.546,1.7,1.7,0,0,1-.423,1.077c-.08.1-.213.246-.393.446a5.723,5.723,0,0,0-.75.965,1.555,1.555,0,0,0-.2.758,3.022,3.022,0,0,0,.038.4,3.052,3.052,0,0,1,.038.4.561.561,0,0,1-.176.431.683.683,0,0,1-.481.16.774.774,0,0,1-.654-.32,1.439,1.439,0,0,1-.24-.881,2.087,2.087,0,0,1,.6-1.515,8.467,8.467,0,0,1,.708-.641,6.627,6.627,0,0,0,.739-.677,1.409,1.409,0,0,1-.57.146,1.732,1.732,0,0,1-.807-.269l-.354-.2a.515.515,0,0,0-.24-.07c-.154,0-.231.085-.231.254a.7.7,0,0,0,.016.07l.069.261a1.067,1.067,0,0,1,.038.269.537.537,0,0,1-.6.615q-.569,0-.569-.538a2.164,2.164,0,0,1,.022-.316c.042-.272.062-.43.062-.477a1.815,1.815,0,0,0-.038-.3,1.82,1.82,0,0,1-.038-.3.5.5,0,0,1,.127-.354A.422.422,0,0,1,135.979,124.5Z" transform="translate(-124.656 -114.509)" fill="#656565"/>
  <path id="Path_12" data-name="Path 12" d="M236.609,127.793a.324.324,0,0,1,.3.139.721.721,0,0,1,.084.346,1.05,1.05,0,0,1,.977-.508,1.842,1.842,0,0,1,.831.2l.353.177a.492.492,0,0,0,.208.062.2.2,0,0,0,.169-.1l.115-.169a.376.376,0,0,1,.326-.151.529.529,0,0,1,.427.215.847.847,0,0,1,.173.546,1.7,1.7,0,0,1-.423,1.077q-.124.147-.392.446a5.669,5.669,0,0,0-.75.965,1.555,1.555,0,0,0-.2.758,3.046,3.046,0,0,0,.038.4,3.025,3.025,0,0,1,.038.4.561.561,0,0,1-.177.431.682.682,0,0,1-.477.16.771.771,0,0,1-.654-.32,1.439,1.439,0,0,1-.24-.881,2.088,2.088,0,0,1,.6-1.515,8.458,8.458,0,0,1,.707-.641,6.625,6.625,0,0,0,.739-.677,1.411,1.411,0,0,1-.57.147,1.732,1.732,0,0,1-.807-.269l-.353-.2a.515.515,0,0,0-.24-.07q-.231,0-.231.254a.552.552,0,0,0,.015.07l.07.261a1.069,1.069,0,0,1,.038.269.537.537,0,0,1-.6.615q-.57,0-.57-.538a2.14,2.14,0,0,1,.023-.315c.041-.272.062-.431.062-.48a1.82,1.82,0,0,0-.038-.3,1.807,1.807,0,0,1-.038-.3.506.506,0,0,1,.127-.354A.424.424,0,0,1,236.609,127.793Z" transform="translate(-217.225 -117.536)" fill="#656565"/>
</svg>
