<?xml version="1.0" encoding="utf-8"?>
<!-- Generator: Adobe Illustrator 22.1.0, SVG Export Plug-In . SVG Version: 6.00 Build 0)  -->
<svg version="1.1" id="Layer_1" xmlns="http://www.w3.org/2000/svg" xmlns:xlink="http://www.w3.org/1999/xlink" x="0px" y="0px"
	 viewBox="0 0 1366 768" style="enable-background:new 0 0 1366 768;" xml:space="preserve">
<style type="text/css">
	.st0{fill:#FFFFFF;}
</style>
<path class="st0" d="M989.6,359.9c-20.3-32-29.1-66.6-34.4-103.2C936.1,123.8,805,37.9,678.1,77.2c-83.8,26-134.8,84.5-151.8,170.9
	c-7.9,40.4-15.5,79.9-38.8,115.8c-23.5,36.4-29.9,79-26.8,122.4c1.8,25,9.4,47.8,28,66.4c5.6,5.6,11.1,14.8,10.8,22.1
	c-2.1,52.7,29,80.5,73.2,95.9c48.9,17.1,98.9,16.3,147.3-4.1c13.1-5.6,23.7-7.6,37.6-0.8c39.8,19.3,82.5,19.6,124.7,11.9
	c67.3-12.2,97-48.5,97.2-115.7c21.1-15.3,34.3-36.7,37.4-63.5C1022.3,449.7,1016.2,402,989.6,359.9L989.6,359.9z M972.9,479.4
	c-0.4,13-5.7,25.9-10.7,47.6c-18-15.3-28.2-23.9-39.1-33.1c-12.6,19.3-24.6,37.6-37.5,57.6c7.8,4.3,17.1,7.3,23.3,13.3
	c8.7,8.4,19.5,18.3,21.5,29.1c3,15.6-11.1,24.7-24.2,30.6c-41.6,18.7-85,20.8-125.4,0.4c-29-14.6-52.8-15.6-81.8-0.3
	c-38,20-79.1,17.7-119.3,3.5c-4.4-1.6-8.6-3.7-12.5-6.2c-26.3-16.6-27-37.7-1.4-54.8c8.6-5.7,18.1-9.9,27.8-15.1
	c-12.7-20-24.4-38.6-37.1-58.7c-10.7,9.1-21.3,18.2-32.6,27.7c-20.2-15.6-19.2-34.9-18.1-52.9c2.3-38,12.5-73.9,38.6-103.2
	c9.8-11,13.1-22.7,15-37.5c4.1-32.2,10.6-64.1,19.6-95.4c21.9-75.2,92.9-124.5,169.8-120.3c75.6,4.1,139.7,59,155.5,134.4
	c6.7,31.7,10.7,64,17.8,95.6c2.1,9.4,9.4,18.2,15.7,26.2C963,401,974.2,438.5,972.9,479.4L972.9,479.4z M972.9,479.4"/>
</svg>
