<?xml version="1.0" encoding="utf-8"?>
<!-- Generator: Adobe Illustrator 26.5.0, SVG Export Plug-In . SVG Version: 6.00 Build 0)  -->
<svg version="1.1" id="Layer_1" xmlns="http://www.w3.org/2000/svg" xmlns:xlink="http://www.w3.org/1999/xlink" x="0px" y="0px"
	 viewBox="0 0 200 200" style="enable-background:new 0 0 200 200;" xml:space="preserve">
<style type="text/css">
	.st0{fill:#FFFFFF;}
</style>
<path class="st0" d="M99.7,87.4l42.8-42.8c3.4-3.4,9-3.4,12.4,0c3.4,3.4,3.4,9,0,12.4l-42.8,42.8l42.8,42.8c3.4,3.4,3.4,9,0,12.4
	c-3.4,3.4-9,3.4-12.4,0l-42.8-42.8l-42.8,42.8c-3.4,3.4-9,3.4-12.4,0c-3.4-3.4-3.4-9,0-12.4l42.8-42.8L44.7,57.3
	c-3.4-3.4-3.4-9,0-12.4c3.4-3.4,9-3.4,12.4,0L99.7,87.4z"/>
</svg>
