<?xml version="1.0" encoding="utf-8"?>
<!-- Generator: Adobe Illustrator 26.5.0, SVG Export Plug-In . SVG Version: 6.00 Build 0)  -->
<svg version="1.1" id="Layer_1" xmlns="http://www.w3.org/2000/svg" xmlns:xlink="http://www.w3.org/1999/xlink" x="0px" y="0px"
	 viewBox="0 0 215 200" style="enable-background:new 0 0 215 200;" xml:space="preserve">
<style type="text/css">
	.st0{fill:#FFFFFF;}
</style>
<path class="st0" d="M64.8,198.6c-3.7,0-6.8-3-6.8-6.8V170H24.9c-13,0-23.5-10.5-23.5-23.5v-94c0-28.2,22.9-51,51-51h137.7
	c13,0,23.5,10.5,23.5,23.5v94c0,28.2-22.9,51-51,51h-58L69,197.2C67.8,198.1,66.4,198.6,64.8,198.6L64.8,198.6z M15.3,52.1v94.3
	c0,5.6,4.5,10.1,10.1,10.1l0,0h39.5c3.7,0,6.8,3,6.8,6.8c0,0,0,0,0,0v14.8l26.6-20.4c1.2-0.9,2.6-1.4,4.1-1.4h60.3
	c20.5,0,37.2-16.7,37.2-37.2l0,0V24.9c-0.1-5.4-4.3-9.7-9.7-9.9H52.4C31.9,15,15.3,31.6,15.3,52.1C15.2,52.2,15.2,52.2,15.3,52.1
	L15.3,52.1z M137,87.3c0-8.8,7.1-15.9,15.9-15.9c8.8,0,15.9,7.1,15.9,15.9c0,8.8-7.1,15.9-15.9,15.9C144.1,103.2,137,96.1,137,87.3
	L137,87.3z M91.7,87.3c0-8.8,7.1-15.9,15.9-15.9c8.8,0,15.9,7.1,15.9,15.9c0,8.8-7.1,15.9-15.9,15.9c0,0,0,0,0,0
	C98.8,103.2,91.7,96.1,91.7,87.3L91.7,87.3z M46.3,87.3c0-8.8,7.1-15.9,15.9-15.9s15.9,7.1,15.9,15.9s-7.1,15.9-15.9,15.9
	c0,0,0,0,0,0C53.4,103.2,46.3,96.1,46.3,87.3L46.3,87.3z"/>
</svg>
