<?xml version="1.0" encoding="utf-8"?>
<!-- Generator: Adobe Illustrator 26.5.0, SVG Export Plug-In . SVG Version: 6.00 Build 0)  -->
<svg version="1.1" id="Layer_1" xmlns="http://www.w3.org/2000/svg" xmlns:xlink="http://www.w3.org/1999/xlink" x="0px" y="0px"
	 viewBox="0 0 200 200" style="enable-background:new 0 0 200 200;" xml:space="preserve">
<style type="text/css">
	.st0{fill:#FFFFFF;}
</style>
<path class="st0" d="M155.4,86.8h-35.4c13.7-50.6-9.4-53.2-9.4-53.2c-9.8,0-7.8,7.8-8.5,9c0,24.8-26.3,44.2-26.3,44.2V157
	c0,6.9,9.4,9.4,13.1,9.4h53.1c5,0,9.1-13.1,9.1-13.1c13.1-44.7,13.1-58,13.1-58C164.3,86.1,155.4,86.8,155.4,86.8z M61.3,86.8H40.1
	c-4.4,0-4.4,4.3-4.4,4.3l4.4,70.8c0,4.5,4.5,4.5,4.5,4.5h18.3c3.8,0,3.8-3,3.8-3V92.2C66.7,86.7,61.3,86.8,61.3,86.8z"/>
</svg>
