<?xml version="1.0" encoding="utf-8"?>
<!-- Generator: Adobe Illustrator 26.5.0, SVG Export Plug-In . SVG Version: 6.00 Build 0)  -->
<svg version="1.1" id="Layer_1" xmlns="http://www.w3.org/2000/svg" xmlns:xlink="http://www.w3.org/1999/xlink" x="0px" y="0px"
	 viewBox="0 0 200 200" style="enable-background:new 0 0 200 200;" xml:space="preserve">
<style type="text/css">
	.st0{fill:#FFFFFF;}
</style>
<path class="st0" d="M172.6,113c0.8-4.4,1.2-8.9,1.2-13.4c0-10-2-19.6-5.8-28.7c-3.7-8.8-9-16.7-15.8-23.5
	c-6.8-6.8-14.7-12.1-23.5-15.8c-9.1-3.8-18.8-5.8-28.7-5.8c-4.7,0-9.4,0.4-14,1.3c-6.3-3.3-13.4-5.1-20.5-5.1
	c-11.7,0-22.6,4.6-30.9,12.8S21.9,54.1,21.9,65.7c0,7.4,1.9,14.7,5.5,21.2c-0.7,4.2-1.1,8.5-1.1,12.7c0,10,2,19.6,5.8,28.7
	c3.7,8.8,9,16.7,15.8,23.5c6.8,6.8,14.7,12.1,23.5,15.8c9.1,3.8,18.8,5.8,28.7,5.8c4.3,0,8.7-0.4,12.9-1.2
	c6.5,3.7,13.9,5.7,21.5,5.7c11.7,0,22.6-4.5,30.9-12.8c8.3-8.2,12.8-19.2,12.8-30.9C178.1,126.8,176.2,119.5,172.6,113L172.6,113z
	 M100.3,144.8c-26.2,0-37.9-12.9-37.9-22.5c0-5,3.7-8.4,8.7-8.4c11.2,0,8.3,16.1,29.2,16.1c10.7,0,16.6-5.8,16.6-11.8
	c0-3.6-1.8-7.6-8.8-9.3l-23.3-5.8c-18.8-4.7-22.2-14.9-22.2-24.4c0-19.8,18.7-27.2,36.2-27.2c16.1,0,35.2,8.9,35.2,20.8
	c0,5.1-4.4,8-9.5,8c-9.6,0-7.8-13.2-27.1-13.2c-9.6,0-14.9,4.3-14.9,10.5c0,6.2,7.6,8.2,14.1,9.7l17.3,3.8
	c18.9,4.2,23.7,15.3,23.7,25.6C137.6,132.8,125.3,144.8,100.3,144.8z"/>
</svg>
