<?xml version="1.0" encoding="utf-8"?>
<!-- Generator: Adobe Illustrator 26.5.0, SVG Export Plug-In . SVG Version: 6.00 Build 0)  -->
<svg version="1.1" id="Layer_1" xmlns="http://www.w3.org/2000/svg" xmlns:xlink="http://www.w3.org/1999/xlink" x="0px" y="0px"
	 viewBox="0 0 200 200" style="enable-background:new 0 0 200 200;" xml:space="preserve">
<style type="text/css">
	.st0{fill:#FFFFFF;}
</style>
<path class="st0" d="M183.8,57.8c-2-7.5-7.9-13.5-15.5-15.5c-13.7-3.7-68.4-3.7-68.4-3.7s-54.7,0-68.4,3.7
	c-7.5,2-13.5,7.9-15.5,15.5c-3.7,13.7-3.7,42.2-3.7,42.2s0,28.5,3.7,42.2c2,7.5,7.9,13.5,15.5,15.5c13.7,3.7,68.4,3.7,68.4,3.7
	s54.7,0,68.4-3.7c7.5-2,13.5-7.9,15.5-15.5c3.7-13.7,3.7-42.2,3.7-42.2S187.5,71.5,183.8,57.8z M82.6,126.2V73.8l45.3,26L82.6,126.2
	z"/>
</svg>
