<?xml version="1.0" encoding="utf-8"?>
<!-- Generator: Adobe Illustrator 26.5.0, SVG Export Plug-In . SVG Version: 6.00 Build 0)  -->
<svg version="1.1" id="Layer_1" xmlns="http://www.w3.org/2000/svg" xmlns:xlink="http://www.w3.org/1999/xlink" x="0px" y="0px"
	 viewBox="0 0 200 200" style="enable-background:new 0 0 200 200;" xml:space="preserve">
<style type="text/css">
	.st0{fill:url(#SVGID_1_);}
	.st1{fill:url(#SVGID_00000070103478104003064030000002231503849407601573_);}
	.st2{fill:url(#SVGID_00000036947325037341756890000005598142574838879926_);}
	.st3{fill:url(#SVGID_00000052100661971339312970000015051751311647586695_);}
	.st4{fill:url(#SVGID_00000026857814838029533040000005911295492995906993_);}
</style>
<linearGradient id="SVGID_1_" gradientUnits="userSpaceOnUse" x1="2175.762" y1="-359.8171" x2="2247.3186" y2="-428.5599" gradientTransform="matrix(1 0 0 1 -2128.6836 543.7011)">
	<stop  offset="0" style="stop-color:#5ABCFF"/>
	<stop  offset="0.9988" style="stop-color:#5A6DFF"/>
</linearGradient>
<path class="st0" d="M63.6,105.5c-3,11.4-11.7,19.9-22.2,21.5c0,4.6,0.2,9.1,0.5,13.4c6.7-2,16.1-4.8,22.4-6.2
	c0,0,20.8-5.2,35.7-5.2s35.7,5.2,35.7,5.2s9.4,1.9,22.1,5.9C154.1,136.6,116.7,103.5,63.6,105.5z"/>
<linearGradient id="SVGID_00000084493397493010624310000006210895298876882822_" gradientUnits="userSpaceOnUse" x1="2214.9834" y1="-445.1706" x2="2290.1313" y2="-407.1867" gradientTransform="matrix(1 0 0 1 -2128.6836 543.7011)">
	<stop  offset="0" style="stop-color:#5ABCFF"/>
	<stop  offset="0.9988" style="stop-color:#5A6DFF"/>
</linearGradient>
<path style="fill:url(#SVGID_00000084493397493010624310000006210895298876882822_);" d="M158.6,126.9
	c-10.6-1.5-19.2-10.1-22.2-21.5c-2.2-0.4-17.8-2.9-36.4-2.9s-34.2,2.5-36.4,2.9c53.1-2,90.5,31.2,94.2,34.6c0.1,0,0.2,0.1,0.3,0.1
	C158.4,135.9,158.6,131.5,158.6,126.9z"/>
<linearGradient id="SVGID_00000131360434292116280110000015938083526208487307_" gradientUnits="userSpaceOnUse" x1="-2213.658" y1="403.4532" x2="-2114.6677" y2="403.4532" gradientTransform="matrix(-1 0 0 -1 -2064.1628 502.8503)">
	<stop  offset="0" style="stop-color:#5ABCFF"/>
	<stop  offset="0.5048" style="stop-color:#5A6DFF"/>
	<stop  offset="1" style="stop-color:#5AB4FF"/>
</linearGradient>
<path style="fill:url(#SVGID_00000131360434292116280110000015938083526208487307_);" d="M52,175.5c-0.5-4.2-7.3-71.6,48-110
	c0,0,0,0,0,0c0,0,0,0,0,0c55.3,38.4,48.5,105.8,48,110c0.6-4.7,10.5-93.9-29.7-137.7C107.8,28,100.1,23.4,100,23.3
	c-0.1,0.1-7.8,4.7-18.3,14.4C41.5,81.6,51.4,170.8,52,175.5z"/>
<linearGradient id="SVGID_00000100374494816755986360000017835964668742658440_" gradientUnits="userSpaceOnUse" x1="-2192.8796" y1="462.3504" x2="-2232.5889" y2="319.7209" gradientTransform="matrix(-1 0 0 -1 -2064.1628 502.8503)">
	<stop  offset="0" style="stop-color:#5ABCFF"/>
	<stop  offset="0.9988" style="stop-color:#5A6DFF"/>
</linearGradient>
<path style="fill:url(#SVGID_00000100374494816755986360000017835964668742658440_);" d="M118.3,37.8c40.2,43.8,30.3,133,29.7,137.7
	c0,0,0,0.1,0,0.1c0,0,0,0,0,0c0,0,0,0.1,0,0.1c0,0,0.1,0,0.2,0c8.4-1.9,20.9-5.5,29.8-8.2c-0.2-3.1-0.5-6.1-0.9-9c0-0.1,0-0.2,0-0.3
	c-0.7-6.1-1.7-12-2.8-17.6c0,0,0,0,0,0C163.8,87.9,136.7,54.9,118.3,37.8z"/>
<linearGradient id="SVGID_00000031889615871475115590000009659460310423442614_" gradientUnits="userSpaceOnUse" x1="-2096.6897" y1="331.5309" x2="-2156.4988" y2="492.2305" gradientTransform="matrix(-1 0 0 -1 -2064.1628 502.8503)">
	<stop  offset="0" style="stop-color:#5ABCFF"/>
	<stop  offset="0.9988" style="stop-color:#5A6DFF"/>
</linearGradient>
<path style="fill:url(#SVGID_00000031889615871475115590000009659460310423442614_);" d="M22.9,158.1c0,0.1,0,0.2,0,0.3
	c-0.3,3-0.6,6-0.9,9c8.9,2.7,21.4,6.3,29.8,8.2c0.1,0,0.2,0,0.2,0c0,0,0,0,0-0.1c0,0,0,0,0,0c0,0,0,0,0-0.1
	c-0.6-4.7-10.5-93.9,29.7-137.7c-18.4,17.1-45.5,50.1-56,102.6c0,0,0,0,0,0C24.6,146.1,23.6,152,22.9,158.1z"/>
</svg>
