<?xml version="1.0" encoding="utf-8"?>
<!-- Generator: Adobe Illustrator 26.5.0, SVG Export Plug-In . SVG Version: 6.00 Build 0)  -->
<svg version="1.1" id="Layer_1" xmlns="http://www.w3.org/2000/svg" xmlns:xlink="http://www.w3.org/1999/xlink" x="0px" y="0px"
	 viewBox="0 0 200 200" style="enable-background:new 0 0 200 200;" xml:space="preserve">
<style type="text/css">
	.st0{fill:#1F1F1F;}
</style>
<path class="st0" d="M100,16.7C54,16.7,16.7,54,16.7,100c0,46,37.3,83.3,83.3,83.3c46,0,83.3-37.3,83.3-83.3
	C183.3,54,146,16.7,100,16.7z M154.1,131.2c-1.2,2-3.7,2.7-5.7,1.5l-21.9-12.6c-5.3,7-13.3,11.8-22.4,12.9v25.3
	c0,2.3-1.9,4.2-4.2,4.2c-2.3,0-4.2-1.9-4.2-4.2v-25.3c-9.1-1.1-17.1-6-22.4-12.9l-21.9,12.6c-2,1.2-4.5,0.5-5.7-1.5
	c-1.2-2-0.5-4.5,1.5-5.7l21.9-12.6c-1.7-4-2.6-8.3-2.6-12.9c0-4.6,0.9-9,2.6-12.9L47.4,74.5c-2-1.2-2.7-3.7-1.5-5.7
	c1.1-2,3.7-2.7,5.7-1.5l21.9,12.6c5.3-7,13.3-11.8,22.4-12.9V41.7c0-2.3,1.9-4.2,4.2-4.2c2.3,0,4.2,1.9,4.2,4.2v25.3
	c9.1,1.1,17.1,6,22.4,12.9l21.9-12.6c2-1.1,4.5-0.5,5.7,1.5c1.1,2,0.5,4.5-1.5,5.7h0l-21.9,12.6c1.7,4,2.6,8.3,2.6,12.9
	c0,4.6-0.9,9-2.6,12.9l21.9,12.6C154.6,126.7,155.3,129.3,154.1,131.2z"/>
</svg>
