<?xml version="1.0" standalone="no"?><!DOCTYPE svg PUBLIC "-//W3C//DTD SVG 1.1//EN" "http://www.w3.org/Graphics/SVG/1.1/DTD/svg11.dtd"><svg t="1663136518357" class="icon" viewBox="0 0 1024 1024" version="1.1" xmlns="http://www.w3.org/2000/svg" p-id="4048" xmlns:xlink="http://www.w3.org/1999/xlink" width="200" height="200"><path d="M680 836.26a16 16 0 0 1-6.7-1.46l-322.22-148-146 144.88a16 16 0 0 1-22.6 0 15.84 15.84 0 0 1 0-22.48l153.82-152.7a16 16 0 0 1 18-3.18l322.5 148.2L831.16 656a16 16 0 0 1 22.58 0.62 15.84 15.84 0 0 1-0.62 22.48L690.98 832a16 16 0 0 1-10.98 4.26z" fill="#868E96" p-id="4049"></path><path d="M152 820.36a41.84 41.64 0 1 0 83.68 0 41.84 41.64 0 1 0-83.68 0Z" fill="#20C997" p-id="4050"></path><path d="M305.82 667.64a41.84 41.64 0 1 0 83.68 0 41.84 41.64 0 1 0-83.68 0Z" fill="#FAB005" p-id="4051"></path><path d="M638.96 820.36a41.84 41.64 0 1 0 83.68 0 41.84 41.64 0 1 0-83.68 0Z" fill="#FF6B6B" p-id="4052"></path><path d="M800.32 667.64a41.84 41.64 0 1 0 83.68 0 41.84 41.64 0 1 0-83.68 0Z" fill="#5C7CFA" p-id="4053"></path><path d="M488.12 521.88h63.74v225.82h-63.74z" fill="#4C6EF5" p-id="4054"></path><path d="M679.82 180.14a225.82 225.82 0 1 0 0 319.38 226.12 226.12 0 0 0 0-319.38zM467.22 482a151.64 151.64 0 1 1 98.78 2.22 151.2 151.2 0 0 1-98.78-2.22z" fill="#5C7CFA" p-id="4055"></path><path d="M627.24 446.98a151.6 151.6 0 1 1 0-214.3 151.74 151.74 0 0 1 0 214.3z" fill="#FFFFFF" opacity=".75" p-id="4056"></path><path d="M446 299.48a21.84 21.84 0 0 1 21.84 21.84v67.84a9.54 9.54 0 0 1-9.54 9.54h-24.66a9.54 9.54 0 0 1-9.54-9.54v-67.86A21.84 21.84 0 0 1 446 299.48z" fill="#FAB005" p-id="4057"></path><path d="M598.82 320.64a21.84 21.84 0 0 1 21.84 21.84v46.68a9.54 9.54 0 0 1-9.54 9.54h-24.58a9.54 9.54 0 0 1-9.54-9.54v-46.68a21.84 21.84 0 0 1 21.84-21.84z" fill="#20C997" p-id="4058"></path><path d="M522.38 257.14a21.84 21.84 0 0 1 21.84 21.84v110.16a9.54 9.54 0 0 1-9.54 9.54H510a9.54 9.54 0 0 1-9.54-9.54v-110.16a21.84 21.84 0 0 1 21.84-21.84z" fill="#FF6B6B" p-id="4059"></path><path d="M461.52 597.84m58.46 0l0.04 0q58.46 0 58.46 58.46l0 175.24q0 58.46-58.46 58.46l-0.04 0q-58.46 0-58.46-58.46l0-175.24q0-58.46 58.46-58.46Z" fill="#495057" p-id="4060"></path></svg>