<?xml version="1.0" standalone="no"?><!DOCTYPE svg PUBLIC "-//W3C//DTD SVG 1.1//EN" "http://www.w3.org/Graphics/SVG/1.1/DTD/svg11.dtd"><svg t="1663120540995" class="icon" viewBox="0 0 1024 1024" version="1.1" xmlns="http://www.w3.org/2000/svg" p-id="2735" xmlns:xlink="http://www.w3.org/1999/xlink" width="200" height="200"><path d="M330.44 262.84a124.42 124.34 90 1 0 248.68 0 124.42 124.34 90 1 0-248.68 0Z" fill="#FCC419" p-id="2736"></path><path d="M355.58 262.84a99.28 99.2 90 1 0 198.4 0 99.28 99.2 90 1 0-198.4 0Z" fill="#FFD43B" p-id="2737"></path><path d="M476 235.54a6.8 6.8 0 0 1-8.68-1.52 12.28 12.28 0 0 0-3.08-2.76 14.72 14.72 0 0 0-8-2 14.88 14.88 0 0 0-10 3.44 10.66 10.66 0 0 0-4 8.5q0 7.06 10.5 11.38l9.62 4q11.74 4.76 17.18 11.6a26.14 26.14 0 0 1 5.44 16.78 29.5 29.5 0 0 1-8.86 22 30.42 30.42 0 0 1-22.16 8.74 29.64 29.64 0 0 1-20.74-7.44 30.58 30.58 0 0 1-8-12.76 7.48 7.48 0 0 1 5.36-9.8 7.48 7.48 0 0 1 8.74 5.38 14.38 14.38 0 0 0 2.18 4.72 16.6 16.6 0 0 0 24.42 1.68 15.78 15.78 0 0 0 4.5-11.56 16.26 16.26 0 0 0-0.78-5.16 13.1 13.1 0 0 0-2.44-4.32 19.5 19.5 0 0 0-4.28-3.68 41.2 41.2 0 0 0-6.24-3.28l-9.3-3.88q-19.8-8.38-19.8-24.5a23.24 23.24 0 0 1 8.3-18.18 30 30 0 0 1 20.66-7.38 27.26 27.26 0 0 1 21.24 9.52 6.88 6.88 0 0 1-1.78 10.48z" fill="#FFD43B" p-id="2738"></path><path d="M454.78 330.3a7.64 7.64 0 0 1-7.64-7.64V314a7.64 7.64 0 1 1 15.28 0v8.68a7.64 7.64 0 0 1-7.64 7.62zM454.78 225.22a7.64 7.64 0 0 1-7.64-7.64v-8.68a7.64 7.64 0 1 1 15.28 0v8.68a7.64 7.64 0 0 1-7.64 7.64z" fill="#FFD43B" p-id="2739"></path><path d="M269.089635 321.330979m25.906257-14.969044l360.505646-208.305853q25.906256-14.969044 40.875301 10.937213l128.147423 221.779028q14.969044 25.906256-10.937212 40.875301l-360.505647 208.305852q-25.906256 14.969044-40.8753-10.937212l-128.147424-221.779029q-14.969044-25.906256 10.937213-40.8753Z" fill="#20C997" p-id="2740"></path><path d="M383.52 226.74h398.8A99.76 99.76 0 0 1 882 326.52v443.72A99.76 99.76 0 0 1 782.32 870h-398.8A199.52 199.52 0 0 1 184 670.48v-244.2a199.52 199.52 0 0 1 199.52-199.52z" fill="#5C7CFA" p-id="2741"></path><path d="M747.6 453.44h138.68A25.72 25.72 0 0 1 912 479.16v138.44a25.72 25.72 0 0 1-25.72 25.72H747.6a94.9 94.9 0 0 1-94.9-94.9 94.9 94.9 0 0 1 94.9-94.9z" fill="#91A7FF" p-id="2742"></path><path d="M711.12 548.38a35.64 35.62 90 1 0 71.24 0 35.64 35.62 90 1 0-71.24 0Z" fill="#FFFFFF" p-id="2743"></path><path d="M408.66 593.6c-0.32 29.08 1.74 58.14 1.24 80.92 0.24 35.34 0.56 64.42-5.36 93.12-8.64 41.72-31.1 75.88-61.82 105.4a262.76 262.76 0 0 1-73.7 49.3 15.18 15.18 0 0 1-13.86 0c-52.72-24.3-93.62-60.48-120.3-111.2-11.42-21.7-16.48-44.96-18.84-68.94-3.82-38.9-1.04-77.84-0.84-116.76 0-10.8 0.72-21.62 0.68-32.46 0-3.66 1.42-5.4 5-6.48q69.04-20.9 138-42a13.22 13.22 0 0 1 8 0.44q67.84 20.7 135.74 41.24c4.16 1.2 6.1 2.9 6.06 7.42z" fill="#20C997" p-id="2744"></path><path d="M262.14 890c-44.38-22-76.46-52.6-98-93.44-8.18-15.54-13.06-33.8-15.38-57.46-2.56-26-2-52.3-1.28-80 0.26-10.94 0.52-22.24 0.58-33.52 0-4.54 0.16-9.14 0.32-14 34.26-10.38 70.98-21.56 113.7-34.62 40.14 12.26 77.06 23.5 113.62 34.56 0.14 8.86 0.4 17.56 0.66 26 0.4 13.24 0.78 25.74 0.54 36.28v3.12c0.22 33.26 0.4 59.52-4.74 84.4-6.66 32.2-24 61.32-52.7 89A224.42 224.42 0 0 1 262.14 890z" fill="#12B886" p-id="2745"></path><path d="M235.54 779.32a12.4 12.4 0 0 1-8.8-3.64l-27.38-27.44a12.46 12.46 0 0 1 17.58-17.62l18.6 18.62 71.5-71.64a12.44 12.44 0 0 1 17.58 17.62l-80.28 80.44a12.38 12.38 0 0 1-8.8 3.66z" fill="#FFFFFF" p-id="2746"></path></svg>