<?xml version="1.0" standalone="no"?><!DOCTYPE svg PUBLIC "-//W3C//DTD SVG 1.1//EN" "http://www.w3.org/Graphics/SVG/1.1/DTD/svg11.dtd"><svg t="1663120571389" class="icon" viewBox="0 0 1024 1024" version="1.1" xmlns="http://www.w3.org/2000/svg" p-id="3061" xmlns:xlink="http://www.w3.org/1999/xlink" width="200" height="200"><path d="M90 165m40.34 0l719.32 0q40.34 0 40.34 40.34l0 491.32q0 40.34-40.34 40.34l-719.32 0q-40.34 0-40.34-40.34l0-491.32q0-40.34 40.34-40.34Z" fill="#495057" p-id="3062"></path><path d="M148.66 225.4h682.66v451.2H148.66z" fill="#F8F9FA" p-id="3063"></path><path d="M200 294m10.2 0l559.6 0q10.2 0 10.2 10.2l0 55.6q0 10.2-10.2 10.2l-559.6 0q-10.2 0-10.2-10.2l0-55.6q0-10.2 10.2-10.2Z" fill="#DEE2E6" p-id="3064"></path><path d="M647.38 294h122.42a10.2 10.2 0 0 1 10.2 10.2v55.6a10.2 10.2 0 0 1-10.2 10.2h-122.42v-76z" fill="#FF6B6B" p-id="3065"></path><path d="M238.4 317.72m15.28 0l71.06 0q15.28 0 15.28 15.28l0 0.36q0 15.28-15.28 15.28l-71.06 0q-15.28 0-15.28-15.28l0-0.36q0-15.28 15.28-15.28Z" fill="#ADB5BD" p-id="3066"></path><path d="M359.96 317.72m15.28 0l39.56 0q15.28 0 15.28 15.28l0 0.36q0 15.28-15.28 15.28l-39.56 0q-15.28 0-15.28-15.28l0-0.36q0-15.28 15.28-15.28Z" fill="#ADB5BD" p-id="3067"></path><path d="M450.02 317.72m15.28 0l30.74 0q15.28 0 15.28 15.28l0 0.36q0 15.28-15.28 15.28l-30.74 0q-15.28 0-15.28-15.28l0-0.36q0-15.28 15.28-15.28Z" fill="#ADB5BD" p-id="3068"></path><path d="M202.98 428.8m5.02 0l564.98 0q5.02 0 5.02 5.02l0 70.72q0 5.02-5.02 5.02l-564.98 0q-5.02 0-5.02-5.02l0-70.72q0-5.02 5.02-5.02Z" fill="#E9ECEF" p-id="3069"></path><path d="M202.98 546.42m5.02 0l564.98 0q5.02 0 5.02 5.02l0 70.72q0 5.02-5.02 5.02l-564.98 0q-5.02 0-5.02-5.02l0-70.72q0-5.02 5.02-5.02Z" fill="#E9ECEF" p-id="3070"></path><path d="M924 888.9a34.36 34.36 0 0 1-48.64 0l-81.86-82-38.16-38.24a106 106 0 0 0 49.78-47.6L924 840.16a34.48 34.48 0 0 1 0 48.74z" fill="#4C6EF5" p-id="3071"></path><path d="M711.26 515a157.62 157.62 0 1 0 157.26 157.56 157.4 157.4 0 0 0-157.26-157.56z m44 253.66a105.68 105.68 0 1 1 49.78-47.6 105.02 105.02 0 0 1-49.8 47.6z" fill="#5C7CFA" p-id="3072"></path><path d="M605.74 672.56a105.72 105.52 90 1 0 211.04 0 105.72 105.52 90 1 0-211.04 0Z" fill="#DEE2E6" opacity=".75" p-id="3073"></path></svg>