<?xml version="1.0" standalone="no"?><!DOCTYPE svg PUBLIC "-//W3C//DTD SVG 1.1//EN" "http://www.w3.org/Graphics/SVG/1.1/DTD/svg11.dtd"><svg t="1663212229477" class="icon" viewBox="0 0 1024 1024" version="1.1" xmlns="http://www.w3.org/2000/svg" p-id="5888" xmlns:xlink="http://www.w3.org/1999/xlink" width="200" height="200"><path d="M800.164 415.232c0-160.322-130.576-290.146-291.182-288.924-158.234 1.204-286.914 131.116-286.684 289.356 0.126 85.816 37.668 162.852 97.184 215.686 40.054 35.558 65.026 85.046 68.224 138.51l3.994 66.758h239.062l3.988-66.678c3.15-52.664 26.706-102.316 66.446-137.02 60.648-52.962 98.968-130.846 98.968-217.688z" fill="#FFC751" p-id="5889"></path><path d="M800.17 415.224c0 86.858-38.322 164.738-98.968 217.696-39.742 34.71-63.3 84.35-66.452 137.014l-3.982 66.692H391.692l-3.982-66.764c-3.134-52.11-26.912-100.442-65.216-135.778a295.974 295.974 0 0 0 75.134 9.64c163.244 0 295.594-132.35 295.594-295.594 0-79.042-31.024-150.838-81.548-203.89 110.064 40.808 188.496 146.744 188.496 270.984z" fill="#FFAF40" p-id="5890"></path><path d="M681.978 652.33c-28.092 32.664-44.626 74.102-47.226 117.604l-3.982 66.692H391.692l-3.982-66.764a196.862 196.862 0 0 0-14.396-62.894c32.718 10.95 67.724 16.866 104.11 16.866 77.346-0.002 148.444-26.75 204.554-71.504z" fill="#FF993A" p-id="5891"></path><path d="M511.232 944.774m-79.226 0a79.226 79.226 0 1 0 158.452 0 79.226 79.226 0 1 0-158.452 0Z" fill="#B5B1A4" p-id="5892"></path><path d="M590.454 944.77c0 43.758-35.466 79.222-79.222 79.222-24.784 0-46.886-11.366-61.416-29.19a79.114 79.114 0 0 0 39.296 10.402c43.758 0 79.222-35.466 79.222-79.222a78.944 78.944 0 0 0-17.732-49.976c23.822 13.66 39.852 39.332 39.852 68.764z" fill="#8F8B81" p-id="5893"></path><path d="M579.452 971.714h-136.442c-39.944 0-72.324-32.38-72.324-72.324v-109.528a18.08 18.08 0 0 1 18.08-18.08h244.928a18.08 18.08 0 0 1 18.08 18.08v109.528c0.002 39.944-32.378 72.324-72.322 72.324z" fill="#8F8B81" p-id="5894"></path><path d="M370.686 841.678h281.09v54.78H370.686z" fill="#706C64" p-id="5895"></path><path d="M651.784 789.858v109.53c0 39.944-32.388 72.332-72.332 72.332h-136.442a72.9 72.9 0 0 1-6.36-0.276c0.866 0.036 1.732 0.036 2.6 0.036 88.792 0 160.774-71.982 160.774-160.774 0-13.42-1.64-26.47-4.756-38.932h38.434c9.972 0.002 18.082 8.094 18.082 18.084z" fill="#706C64" p-id="5896"></path><path d="M645.668 868.03H376.794a18.08 18.08 0 0 1-18.08-18.08v-22.478a18.08 18.08 0 0 1 18.08-18.08h268.874a18.08 18.08 0 0 1 18.08 18.08v22.478a18.08 18.08 0 0 1-18.08 18.08z" fill="#B5B1A4" p-id="5897"></path><path d="M559.662 809.39h-141.106c-16.192 0-29.32 13.128-29.32 29.32s13.128 29.32 29.32 29.32h141.106c16.192 0 29.32-13.128 29.32-29.32s-13.126-29.32-29.32-29.32z" fill="#D8D4C9" p-id="5898"></path><path d="M489.964 809.39h-32.214c-16.192 0-29.32 13.128-29.32 29.32s13.128 29.32 29.32 29.32h32.214c16.192 0 29.32-13.128 29.32-29.32s-13.128-29.32-29.32-29.32z" fill="#E8E4D8" p-id="5899"></path><path d="M330.148 568.842c16.37-14.21 20.47-37.976 9.804-56.848a196.752 196.752 0 0 1-25.496-96.458c-0.128-93.48 65.648-172.33 153.37-192.224 20.98-4.758 35.868-23.406 35.868-44.918 0-29.422-27.246-51.508-55.944-45.018-128.896 29.154-225.652 145.054-225.46 282.29 0.078 51.682 13.74 100.18 37.596 142.126 14.204 24.974 47.866 30.488 69.564 11.654z" fill="#FFE059" p-id="5900"></path><path d="M381.774 157.122c-76.14 38.454-133.168 109.634-152.406 194.69-6.448 28.51 15.254 55.638 44.484 55.638h0.99c21.43 0 39.764-14.97 44.536-35.862 13.204-57.806 52.012-106.12 103.798-132.212 19.836-9.994 29.512-32.836 23.012-54.076l-0.27-0.882c-8.252-27.024-38.922-40.034-64.144-27.296z" fill="#FFF370" p-id="5901"></path><path d="M346.71 307.668a198.7 198.7 0 0 1 29.194-34.956c15.342-14.586 18.588-37.808 7.394-55.776l-0.486-0.782c-15.606-25.05-50.324-29.356-71.59-8.892a292.152 292.152 0 0 0-40.862 48.978c-14.148 21.322-7.896 50.308 13.536 64.29l0.786 0.512c20.742 13.538 48.438 7.332 62.028-13.374z" fill="#FFF7C7" p-id="5902"></path><path d="M898.472 347.924h-34.656c-17.42 0-31.544 14.122-31.544 31.544 0 17.42 14.122 31.544 31.544 31.544h34.656c17.42 0 31.544-14.122 31.544-31.544s-14.124-31.544-31.544-31.544zM125.528 411.732h34.656c17.42 0 31.544-14.122 31.544-31.544 0-17.42-14.122-31.544-31.544-31.544H125.528c-17.42 0-31.544 14.122-31.544 31.544 0 17.42 14.124 31.544 31.544 31.544zM823.982 174.872L793.968 192.2c-15.086 8.71-20.256 28.002-11.546 43.088 8.71 15.086 28.002 20.256 43.088 11.546l30.014-17.328c15.086-8.71 20.256-28.002 11.546-43.088-8.71-15.086-28.002-20.256-43.088-11.546zM680.788 61.4l-17.328 30.014c-8.71 15.086-3.542 34.378 11.546 43.088 15.086 8.71 34.378 3.542 43.088-11.546l17.328-30.014c8.71-15.086 3.542-34.378-11.546-43.088-15.086-8.71-34.378-3.542-43.088 11.546zM480.096 31.544V66.2c0 17.42 14.122 31.544 31.544 31.544 17.42 0 31.544-14.122 31.544-31.544V31.544C543.182 14.122 529.06 0 511.64 0c-17.422 0-31.544 14.122-31.544 31.544zM287.952 93.304l17.328 30.014c8.71 15.086 28.002 20.256 43.088 11.546 15.086-8.71 20.256-28.002 11.546-43.088l-17.328-30.014c-8.71-15.086-28.002-20.256-43.088-11.546-15.088 8.71-20.256 28-11.546 43.088z" fill="#79FF79" p-id="5903"></path><path d="M168.114 230.132l30.014 17.328c15.086 8.71 34.378 3.542 43.088-11.546 8.71-15.086 3.542-34.378-11.546-43.088l-30.014-17.328c-15.086-8.71-34.378-3.542-43.088 11.546-8.71 15.086-3.54 34.378 11.546 43.088z" fill="#79FF79" p-id="5904"></path></svg>