<?xml version="1.0" standalone="no"?><!DOCTYPE svg PUBLIC "-//W3C//DTD SVG 1.1//EN" "http://www.w3.org/Graphics/SVG/1.1/DTD/svg11.dtd"><svg t="1663120525635" class="icon" viewBox="0 0 1024 1024" version="1.1" xmlns="http://www.w3.org/2000/svg" p-id="2403" xmlns:xlink="http://www.w3.org/1999/xlink" width="200" height="200"><path d="M894.32 644.64l-116.74 99.84a96 96 0 0 0-21.32 26l-26.72 47.74c-1.38 2.46-2.64 4.94-3.78 7.5l-161.22-10.62 9.46-132.28a96.16 96.16 0 0 1 28.26-54.14l33.08-31.8L728 520c17.88-14.82 45.04-12.68 59.5 5.48a41.42 41.42 0 0 1-6 57.68L741.84 616a13.58 13.58 0 0 0 7.72 24 48.18 48.18 0 0 0 29.34-9.46L810 604.88a48 48 0 0 0 17.34-36.66l0.66-183.48a42 42 0 0 1 41.42-41.74c23.54-0.3 42.66 19.8 42.52 43.34l-0.88 222.1a48 48 0 0 1-16.74 36.2z" fill="#F9BF87" p-id="2404"></path><path d="M540.78 883m0-10.18l0-72.48q0-10.18 10.18-10.18l203.52 0q10.18 0 10.18 10.18l0 72.48q0 10.18-10.18 10.18l-203.52 0q-10.18 0-10.18-10.18Z" fill="#686F77" p-id="2405"></path><path d="M704.9 836.58a18.64 18.64 0 1 0 37.28 0 18.64 18.64 0 1 0-37.28 0Z" fill="#868E96" p-id="2406"></path><path d="M769.3 526.88a28.7 28.7 0 1 1-39.22 10.4 28.72 28.72 0 0 1 39.22-10.4z" fill="#FFF4E6" p-id="2407"></path><path d="M129.68 644.64l116.74 99.84a96 96 0 0 1 21.32 26l26.72 47.74c1.38 2.46 2.64 4.94 3.78 7.5l161.22-10.62-9.46-132.28a96.16 96.16 0 0 0-28.26-54.14l-33.08-31.8L296 520c-17.88-14.82-45.04-12.68-59.5 5.48a41.42 41.42 0 0 0 6 57.68L282.16 616a13.58 13.58 0 0 1-7.72 24 48.18 48.18 0 0 1-29.34-9.46L214 604.88a48 48 0 0 1-17.34-36.66L196 384.74a42 42 0 0 0-41.48-41.74c-23.54-0.3-42.66 19.8-42.52 43.34l0.88 222.1a48 48 0 0 0 16.8 36.2z" fill="#F9BF87" p-id="2408"></path><path d="M259.34 883m0-10.18l0-72.48q0-10.18 10.18-10.18l203.52 0q10.18 0 10.18 10.18l0 72.48q0 10.18-10.18 10.18l-203.52 0q-10.18 0-10.18-10.18Z" fill="#686F77" p-id="2409"></path><path d="M281.82 836.58a18.64 18.64 0 1 0 37.28 0 18.64 18.64 0 1 0-37.28 0Z" fill="#868E96" p-id="2410"></path><path d="M254.7 526.88a28.7 28.7 0 1 0 39.22 10.4 28.72 28.72 0 0 0-39.22-10.4z" fill="#FFF4E6" p-id="2411"></path><path d="M512.84 545.9l-0.14-288.76 0.14 288.76z" fill="#FFCC90" opacity=".5" p-id="2412"></path><path d="M239.5 257.14l-0.02 0.04 273.36 288.72-124.76-288.76h-148.58z" fill="#845EF7" p-id="2413"></path><path d="M308.8 141h-0.12l-69.18 116.14h148.58L308.8 141z" fill="#B197FC" p-id="2414"></path><path d="M512.42 141H308.8l79.28 116.14 124.34-116.14z" fill="#9775FA" p-id="2415"></path><path d="M512 545.9l0.14-288.76-0.14 288.76z" fill="#FFCC90" opacity=".5" p-id="2416"></path><path d="M785.34 257.14l0.02 0.04L512 545.9l124.76-288.76h148.58z" fill="#845EF7" p-id="2417"></path><path d="M716.04 141h0.12l69.18 116.14h-148.58l79.28-116.14z" fill="#B197FC" p-id="2418"></path><path d="M512.64 141.2v-0.2h-0.44v0.2l-124.12 115.94h248.68L512.64 141.2z" fill="#845EF7" p-id="2419"></path><path d="M512.42 141h203.62l-79.28 116.14-124.34-116.14zM636.76 257.14H388.08L512 543.82v2.08l0.42-1.04 0.42 1.04v-2.08l123.92-286.68z" fill="#9775FA" p-id="2420"></path></svg>