<?xml version="1.0" standalone="no"?><!DOCTYPE svg PUBLIC "-//W3C//DTD SVG 1.1//EN" "http://www.w3.org/Graphics/SVG/1.1/DTD/svg11.dtd"><svg t="1663121466814" class="icon" viewBox="0 0 1024 1024" version="1.1" xmlns="http://www.w3.org/2000/svg" p-id="3725" xmlns:xlink="http://www.w3.org/1999/xlink" width="200" height="200"><path d="M162 112m44.06 0l615.88 0q44.06 0 44.06 44.06l0 691.88q0 44.06-44.06 44.06l-615.88 0q-44.06 0-44.06-44.06l0-691.88q0-44.06 44.06-44.06Z" fill="#9775FA" p-id="3726"></path><path d="M583.12 975.38l-68.74-40.52-68.74 40.52a4.44 4.44 0 0 1-6.68-3.84V718.66h150.84v252.88a4.44 4.44 0 0 1-6.68 3.84z" fill="#F06595" p-id="3727"></path><path d="M484.1 687.54h60.56v305.62h-60.56z" fill="#E64980" p-id="3728"></path><path d="M581.5 502.4l19.84 44.22a17.58 17.58 0 0 0 13.1 10.14l47.7 8.1a17.62 17.62 0 0 1 14 22.16l-13.16 46.64a17.64 17.64 0 0 0 3.52 16.2l31.34 36.92a17.64 17.64 0 0 1-3.5 26l-40 27.26a17.62 17.62 0 0 0-7.7 14.68l0.32 48.48a17.6 17.6 0 0 1-19.36 17.64L579.44 816a17.56 17.56 0 0 0-15.32 6.3l-30.86 37.34a17.56 17.56 0 0 1-26.14 1.04l-33.72-34.82a17.56 17.56 0 0 0-15.76-5.04L410 829.56a17.58 17.58 0 0 1-20.7-16l-3.56-48.34a17.62 17.62 0 0 0-8.84-14l-42-24a17.64 17.64 0 0 1-5.58-25.62l28.3-39.32a17.64 17.64 0 0 0 2.22-16.44l-16.84-45.44a17.62 17.62 0 0 1 12.16-23.2l46.84-11.92a17.6 17.6 0 0 0 12.24-11.16l16.24-45.66a17.56 17.56 0 0 1 24.2-10l43.56 21.1a17.54 17.54 0 0 0 16.54-0.66l41.74-24.52a17.56 17.56 0 0 1 24.98 8.02z" fill="#FCC419" p-id="3729"></path><path d="M404.08 678.96a110.14 109.92 90 1 0 219.84 0 110.14 109.92 90 1 0-219.84 0Z" fill="#FAB005" p-id="3730"></path><path d="M513.68 716.56l-37.3 19.42 7.4-41.48-29.96-29.56 41.64-5.76 18.8-37.68 18.34 37.92 41.58 6.26-30.32 29.2 6.9 41.56-37.08-19.88z" fill="#FFEC99" p-id="3731"></path><path d="M298.4 218.22m24.24 0l382.72 0q24.24 0 24.24 24.24l0 0.04q0 24.24-24.24 24.24l-382.72 0q-24.24 0-24.24-24.24l0-0.04q0-24.24 24.24-24.24Z" fill="#D0BFFF" p-id="3732"></path><path d="M421.6 318.2m24.24 0l136.32 0q24.24 0 24.24 24.24l0 0.04q0 24.24-24.24 24.24l-136.32 0q-24.24 0-24.24-24.24l0-0.04q0-24.24 24.24-24.24Z" fill="#B197FC" p-id="3733"></path></svg>