<?xml version="1.0" encoding="utf-8"?>
<!-- Generator: Adobe Illustrator 21.0.2, SVG Export Plug-In . SVG Version: 6.00 Build 0)  -->
<svg version="1.1" id="Layer_1" xmlns="http://www.w3.org/2000/svg" xmlns:xlink="http://www.w3.org/1999/xlink" x="0px" y="0px"
	 viewBox="0 0 200 200" style="enable-background:new 0 0 200 200;" xml:space="preserve">
<style type="text/css">
	.st0{fill:#656565;}
</style>
<path d="M109.7,192.2C109.8,192.2,109.7,192.2,109.7,192.2z M109.4,192.2C109.5,192.2,109.5,192.2,109.4,192.2z M42.2,27.5
	C42,27.7,42,27.7,42.2,27.5z"/>
<path class="st0" d="M109.7,188c0.3-0.8,0-1.1,0.3-1.6c0.8-2.5,0.8-2.8,0.8-2.8s1.2-1.9,1.9-3.6c1.3-4.1,0.5-6.7,3.9-13.8
	c2.8-5.8,3.1-7.7,2.3-8.6c-0.9-2.3-9.5-11.4-11.2-13c-2.3-2.2-3.8-4.5-5.3-7.2c-0.9-1.4-2-2.7-2.7-4.4c-1.4-3.3,0-1.2,0.2-3.3
	c0.2-1.7-0.2-3.4,0.5-5.3c0.8-2.2,2.8-3.4,3.4-5.6c0.5-2,0.2-4.4-1.7-4.8c-1.1-0.3-2.3,0.5-3.4,0.3c-1.4-0.2-3.3-1.4-4.5-2.3
	c-1.6-1.3-2.3-3.4-4.1-4.5c-1.4-1.1-2.5-0.3-4.1-0.9s-2.7-2.5-3.9-3.3c-2-0.9-3.3,0.3-5.2,0.2c-1.7-0.2-4.5-2.2-6.2-3
	c-3.4-1.6-5.6-3.3-6.9-6.6c-1.2-3-2.8-4.4-4.8-6.9c-2-2.5-2.7-4.7-5.8-5.3c-0.3,0-3.4-2.3-4.7-3.4c-1.2-1.1-2.8-1.7-3.9-2.8
	c-4.5-3.9-5.2-9.4-4.7-14.8c0.2-1.7,0.9-3.3,0.5-5c-0.2-1.4-1.1-2.7-2.2-3.8c-0.3-0.5,4.7-23,4.1-24.7C20.9,44.7,7.3,70.6,7.3,100
	c0,51.1,41.4,92.7,92.7,92.7c3.1,0,6.2-0.2,9.4-0.5C109.8,190.6,109.2,189.4,109.7,188z M138.9,126.6c-0.2,0.5,0,0.8,1.1,0.2
	C139.8,126.7,139.1,126.7,138.9,126.6z M141.6,127.3C141.4,127.2,141.4,127.2,141.6,127.3C141.4,127.2,141.4,127.3,141.6,127.3z"/>
<path class="st0" d="M192,99.7C192,48.4,150.5,7,99.4,7c-14.8,0-28.7,3.4-41.2,9.7c0.8-0.3,1.4-0.3,2.3-0.5c1.9-0.5,5.2-1.4,5.5-0.9
	c1.2,1.7,2.3,1.6,4.8,2.2c-0.2,2.8-3.6,2.8-5.8,2.5c-2.7-0.3-5.3-1.2-7.7,1.1c1.2,0.8,4.7,3.8,4.4,0.5c2.5-0.2,5-0.2,7.3,0.2
	c1.1,0.2,4.4,1.2,5.2,0.8c0.3-0.2,0.8-2.2,1.2-2.7c-0.8,0-1.4-0.3-2.2-0.3c1.6-2.2,3.3-0.5,5.3,0.5c-2.3,1.4-0.9,4.7,1.2,2
	c1.7-2.2-0.5-3.7-2.8-5.2c2.3-2.8,22.3,6.9,16.9,7.8c-1.2,0-3.6-0.3-4.5,0.3c-0.5,0.5-0.5,2.3-1.2,3c-1.1,1.2-2.8,1.4-4.1,2.3
	c-1.2,0.9-4.4,3-5,4.5c-2.8,5.3,6.4,7.2,10,8.8c1.6,0.8,6.2,1.7,7.2,2.8c1.1,1.6-1.1,3.3,1.4,4.4c0.8,0.3,2.3,0.3,3-0.3
	c1.1-1.2-0.3-1.4-0.8-2.8c-0.5-2.7,0.3-1.6,1.6-2.7c2.8-2,2.2-2.2,1.1-5.6c-0.5-1.6-2.2-5.8-0.8-7c2-1.4,6.2,0.8,7.8,1.1
	c1.7,0.2,2.8,2.7,3.8,3.8c0.8,0.8,1.7,2.2,2.8,2c1.7-0.2,1.1-1.7,2.2-2.5c2.8-2,3.6,0.8,4.7,3.4c1.1,2.5,2,3.4,3.9,5
	c0.9,0.8,4.7,3.4,4.4,5c-0.2,1.1-4.7,2.7-5.8,3.3c-4.4,1.4-12.2-2.2-13.1,4.5c1.6-0.5,3.8,3.6,2,4.8c-2,0.9-2.3,2.7-3.9,4.1
	c-0.8,0.8-2.2,0.8-2.8,1.6c-0.8,0.9-0.8,2.2-1.4,2.8c-0.5,0.5-1.6,0.2-2.2,1.1c-0.5,1.1,0.5,2.2,0.3,2.8c-0.5,1.4-3.3,2.7-4.4,3.6
	l0.3-0.3c-1.1,1.1-2.3,2-3.3,3.3c0.3,1.7,1.6,6.1,1.2,7c-1.1,3.3-3.3-1.7-4.1-3c-2.8-4.5-8.8-1.4-13-1.1c-5.2,0.5-10.2,7.2-7,12.5
	c1.4,2.5,4.1,3.6,7,3c2.7-0.5,3.4-4.1,5.9-4.4c4.5-0.2,0.2,4.5-0.3,6.1c-0.3,1.6,0.5,1.6,2.2,2.2c1.2,0.3,2.8-0.5,3.9,0.2
	c0.8,0.3,0.5,2.7,1.4,2c-1.7,1.4-1.2,4.8,0.5,6.1c2,1.4,4.4,0.2,6.4,0.5c3.9,1.1,2-0.3,5.6-2.3c2.3-1.4,2.7,0.2,4.4,0.3
	c1.1,0,1.7-1.6,3.6-1.1c1.4,0.3,2,1.4,3.8,1.7c0.8,0.2,1.4-0.3,2.2-0.2c3.3,0.3,5.8,2.5,8.3,4.4c2.2,1.6,3.6,1.3,5.9,2
	c1.7,0.5,5,3,5,5.3c0,0.3-1.6,2.5-1.7,3.4c0.5,0.3,3.6-0.3,4.7-0.5c-0.3,0.3-1.9,1.6-2.3,1.2c0.3,0.5,1.6,1.1,1.9,1.4
	c1.1-3.8,3-1.2,5.2-0.3c2,0.8,4.4,0.9,6.2,1.2c1.7,0.3,16.9,6.7,18.1,8.1c1.6,1.6-0.8,10.2-2,11.7c-1.4,2.2-7.7,4.2-8.6,7
	c-0.8,2.2-1.6,2.5-1.6,2.5c-7.8,20.5-48.1,32.8-50.8,33.3C155.8,186.9,192,147.7,192,99.7L192,99.7z"/>
</svg>
