<?xml version="1.0" encoding="utf-8"?>
<!-- Generator: Adobe Illustrator 21.0.2, SVG Export Plug-In . SVG Version: 6.00 Build 0)  -->
<svg version="1.1" id="Layer_1" xmlns="http://www.w3.org/2000/svg" xmlns:xlink="http://www.w3.org/1999/xlink" x="0px" y="0px"
	 viewBox="0 0 200 200" style="enable-background:new 0 0 200 200;" xml:space="preserve">
<style type="text/css">
	.st0{fill:#656565;}
</style>
<path class="st0" d="M196.7,182.9H187V61.9c0-3.3-1.7-6.3-4.5-7.9L132.9,25c-2.8-1.6-6.3-1.7-9.2,0c-2.8,1.6-4.6,4.7-4.6,7.9v150
	h-10.4V9.1c0-3.1-1.5-5.9-4.1-7.6c-2.6-1.7-5.8-2-8.6-0.8L18.5,34c-3.4,1.4-5.5,4.7-5.5,8.4v140.5H3.3c-1.8,0-3.2,1.5-3.2,3.2v10.5
	c0,1.8,1.5,3.2,3.2,3.2h193.5c1.8,0,3.2-1.5,3.2-3.2v-10.5C200,184.4,198.5,182.9,196.7,182.9L196.7,182.9z M144.4,57.8
	c0-1.8,1.4-3.2,3.2-3.2h10.3c1.8,0,3.2,1.5,3.2,3.2v10.3c0,1.8-1.4,3.2-3.2,3.2h-10.3c-1.8,0-3.2-1.5-3.2-3.2V57.8z M144.4,83.7
	c0-1.8,1.4-3.2,3.2-3.2h10.3c1.8,0,3.2,1.5,3.2,3.2V94c0,1.8-1.4,3.2-3.2,3.2h-10.3c-1.8,0-3.2-1.5-3.2-3.2V83.7z M144.4,109.6
	c0-1.8,1.4-3.2,3.2-3.2h10.3c1.8,0,3.2,1.5,3.2,3.2v10.3c0,1.8-1.4,3.2-3.2,3.2h-10.3c-1.8,0-3.2-1.5-3.2-3.2V109.6z M144.4,135.6
	c0-1.8,1.4-3.2,3.2-3.2h10.3c1.8,0,3.2,1.5,3.2,3.2v10.3c0,1.8-1.4,3.2-3.2,3.2h-10.3c-1.8,0-3.2-1.5-3.2-3.2V135.6z M144.4,161.5
	c0-1.8,1.4-3.2,3.2-3.2h10.3c1.8,0,3.2,1.5,3.2,3.2v10.3c0,1.8-1.4,3.2-3.2,3.2h-10.3c-1.8,0-3.2-1.5-3.2-3.2V161.5z M67.9,31.9
	c0-1.8,1.4-3.2,3.2-3.2h10.3c1.8,0,3.2,1.5,3.2,3.2v10.3c0,1.8-1.4,3.2-3.2,3.2H71.2c-1.8,0-3.2-1.5-3.2-3.2
	C67.9,42.2,67.9,31.9,67.9,31.9z M67.9,57.8c0-1.8,1.4-3.2,3.2-3.2h10.3c1.8,0,3.2,1.5,3.2,3.2v10.3c0,1.8-1.4,3.2-3.2,3.2H71.2
	c-1.8,0-3.2-1.5-3.2-3.2V57.8L67.9,57.8z M67.9,83.7c0-1.8,1.4-3.2,3.2-3.2h10.3c1.8,0,3.2,1.5,3.2,3.2V94c0,1.8-1.4,3.2-3.2,3.2
	H71.2c-1.8,0-3.2-1.5-3.2-3.2V83.7L67.9,83.7z M67.9,109.6c0-1.8,1.4-3.2,3.2-3.2h10.3c1.8,0,3.2,1.5,3.2,3.2v10.3
	c0,1.8-1.4,3.2-3.2,3.2H71.2c-1.8,0-3.2-1.5-3.2-3.2C67.9,119.9,67.9,109.6,67.9,109.6z M67.9,135.6c0-1.8,1.4-3.2,3.2-3.2h10.3
	c1.8,0,3.2,1.5,3.2,3.2v10.3c0,1.8-1.4,3.2-3.2,3.2H71.2c-1.8,0-3.2-1.5-3.2-3.2C67.9,145.9,67.9,135.6,67.9,135.6z M67.9,161.5
	c0-1.8,1.4-3.2,3.2-3.2h10.3c1.8,0,3.2,1.5,3.2,3.2v10.3c0,1.8-1.4,3.2-3.2,3.2H71.2c-1.8,0-3.2-1.5-3.2-3.2
	C67.9,171.8,67.9,161.5,67.9,161.5z M36.8,57.8c0-1.8,1.5-3.2,3.2-3.2h10.3c1.8,0,3.2,1.5,3.2,3.2v10.3c0,1.8-1.5,3.2-3.2,3.2H40
	c-1.8,0-3.2-1.5-3.2-3.2V57.8L36.8,57.8z M36.8,83.7c0-1.8,1.5-3.2,3.2-3.2h10.3c1.8,0,3.2,1.5,3.2,3.2V94c0,1.8-1.5,3.2-3.2,3.2H40
	c-1.8,0-3.2-1.5-3.2-3.2V83.7L36.8,83.7z M36.8,109.6c0-1.8,1.5-3.2,3.2-3.2h10.3c1.8,0,3.2,1.5,3.2,3.2v10.3c0,1.8-1.5,3.2-3.2,3.2
	H40c-1.8,0-3.2-1.5-3.2-3.2V109.6z M36.8,135.6c0-1.8,1.5-3.2,3.2-3.2h10.3c1.8,0,3.2,1.5,3.2,3.2v10.3c0,1.8-1.5,3.2-3.2,3.2H40
	c-1.8,0-3.2-1.5-3.2-3.2V135.6z M36.8,161.5c0-1.8,1.5-3.2,3.2-3.2h10.3c1.8,0,3.2,1.5,3.2,3.2v10.3c0,1.8-1.5,3.2-3.2,3.2H40
	c-1.8,0-3.2-1.5-3.2-3.2V161.5z"/>
</svg>
