<?xml version="1.0" encoding="utf-8"?>
<!-- Generator: Adobe Illustrator 21.0.2, SVG Export Plug-In . SVG Version: 6.00 Build 0)  -->
<svg version="1.1" id="Layer_1" xmlns="http://www.w3.org/2000/svg" xmlns:xlink="http://www.w3.org/1999/xlink" x="0px" y="0px"
	 viewBox="0 0 200 200" style="enable-background:new 0 0 200 200;" xml:space="preserve">
<style type="text/css">
	.st0{fill:#656565;}
</style>
<path class="st0" d="M151.6,86.1c-11.1,0-20.8,7.2-26.1,18c-3.4-2.6-7.4-4.1-11.7-4.1c-5,0-9.6,2.1-13.3,5.5
	c-4.8-7.5-12.2-12.4-20.6-12.4c-3.2,0-6.3,0.7-9.2,2c-1.6-2.7-4.5-4.4-7.9-4.4c-5.1,0-9.2,4.1-9.2,9.2c0,3.3,1.8,6.2,4.4,7.8
	c-0.9,1.7-1.7,3.5-2.3,5.4c-0.7,0.5-1.4,1-2.1,1.6c-3.3-5.2-8.4-8.5-14.2-8.5c-9.9,0-18,9.9-18,22c0,4.1,2.7,7.3,6,7.3h24
	c0.2,0,0.5,0,0.7-0.1c0.2,0,0.4,0.1,0.6,0.1h9.8h10.4h24.4c0.4,0,0.7,0,1-0.1c0.3,0,0.6,0.1,0.9,0.1h29.2c0.4,0,0.9-0.1,1.3-0.2
	c0.5,0.1,1,0.2,1.5,0.2h40.6c5.6,0,10.2-5.6,10.2-12.4C182.1,102.8,168.5,86.1,151.6,86.1L151.6,86.1z"/>
<path class="st0" d="M151.6,82.5c10.3,0,18.6-8.3,18.6-18.6s-8.3-18.6-18.6-18.6S133,53.6,133,63.9C133,74.2,141.4,82.5,151.6,82.5z
	"/>
<path class="st0" d="M79.9,90.2c8.8,0,16-7.1,16-16c0-8.8-7.1-15.9-16-15.9c-8.8,0-15.9,7.1-15.9,15.9C64,83,71.1,90.2,79.9,90.2z"
	/>
<path class="st0" d="M100.5,84.1c0,7.4,6,13.4,13.4,13.4s13.4-6,13.4-13.4s-6-13.4-13.4-13.4S100.5,76.7,100.5,84.1L100.5,84.1z"/>
<path class="st0" d="M28.4,93.3c0,6.1,4.9,11,11,11s11-4.9,11-11c0-6.1-4.9-11-11-11S28.4,87.2,28.4,93.3L28.4,93.3z"/>
</svg>
