<?xml version="1.0" encoding="utf-8"?>
<!-- Generator: Adobe Illustrator 21.0.2, SVG Export Plug-In . SVG Version: 6.00 Build 0)  -->
<svg version="1.1" id="Layer_1" xmlns="http://www.w3.org/2000/svg" xmlns:xlink="http://www.w3.org/1999/xlink" x="0px" y="0px"
	 viewBox="0 0 200 200" style="enable-background:new 0 0 200 200;" xml:space="preserve">
<style type="text/css">
	.st0{fill:#656565;}
</style>
<path class="st0" d="M165.8,45.8L114,15.9c-7.5-4.4-20.5-4.4-28,0L34.2,45.8c-7.7,4.5-14,15.4-14,24.3v59.8c0,8.9,6.3,19.8,14,24.3
	L86,184c3.8,2.2,8.7,3.4,14,3.4c5.3,0,10.3-1.2,14-3.4l51.8-29.9c7.7-4.5,14-15.4,14-24.3V70.1C179.8,61.1,173.5,50.2,165.8,45.8z
	 M95.9,168.9c0,1.8-0.4,3.3-1.1,4.2c-0.5,0.6-1.2,1-2.1,1c-1,0-2.3-0.4-3.6-1.2l-47.7-27.5c-5.6-3.2-10.3-11.4-10.3-17.9V77.2
	c0-1.5,0.3-5.1,3.2-5.1c1,0,2.3,0.4,3.6,1.2l47.7,27.5c5.6,3.2,10.3,11.4,10.3,17.9V168.9z M100,92.3c-3.9,0-7.7-0.9-10.3-2.4
	L42,62.4c-2.1-1.2-3.2-2.6-3.2-3.9c0-1.3,1.2-2.8,3.2-3.9L89.7,27c2.6-1.5,6.4-2.4,10.3-2.4s7.7,0.9,10.3,2.4L158,54.5
	c2.1,1.2,3.2,2.6,3.2,3.9c0,1.3-1.2,2.8-3.2,3.9l-47.7,27.5C107.6,91.4,103.9,92.3,100,92.3z M168.3,127.4c0,6.4-4.7,14.6-10.3,17.9
	l-42.4,24.6L112,171c-2.9,0-3.2-3.6-3.2-5.1v-50.2c0-6.4,4.7-14.6,10.3-17.9l42.4-24.6c1.3-0.8,2.6-1.2,3.6-1.2
	c2.9,0,3.2,3.6,3.2,5.1V127.4z"/>
<path class="st0" d="M46.9,91.9c-3.7,0-6.7,4-6.7,9c0,4.9,3,9,6.7,9c3.7,0,6.7-4,6.7-9S50.5,91.9,46.9,91.9z M46.9,122.4
	c-3.7,0-6.7,4-6.7,9c0,4.9,3,9,6.7,9c3.7,0,6.7-4,6.7-9C53.6,126.4,50.5,122.4,46.9,122.4z M72.6,135.4c-3.7,0-6.7,4-6.7,9
	c0,4.9,3,9,6.7,9s6.7-4,6.7-9C79.3,139.4,76.3,135.4,72.6,135.4z M130.4,108.2c-3.7,0-6.7,4-6.7,9s3,9,6.7,9c3.7,0,6.7-4,6.7-9
	S134.1,108.2,130.4,108.2z M151.9,117.8c-3.7,0-6.7,4-6.7,9c0,4.9,3,9,6.7,9c3.7,0,6.7-4,6.7-9C158.6,121.8,155.6,117.8,151.9,117.8
	z M99.7,51.3c-5.4,0-9.8,3-9.8,6.7c0,3.7,4.4,6.7,9.8,6.7s9.8-3,9.8-6.7C109.6,54.3,105.1,51.3,99.7,51.3z M74.9,105.5
	c-3.7,0-6.7,4-6.7,9c0,4.9,3,9,6.7,9c1.9,0,3.7-1.1,4.9-2.9c1.1-1.7,1.8-3.8,1.8-6C81.6,109.5,78.6,105.5,74.9,105.5z"/>
</svg>
