<?xml version="1.0" encoding="utf-8"?>
<!-- Generator: Adobe Illustrator 26.3.1, SVG Export Plug-In . SVG Version: 6.00 Build 0)  -->
<svg version="1.1" id="Layer_1" xmlns="http://www.w3.org/2000/svg" xmlns:xlink="http://www.w3.org/1999/xlink" x="0px" y="0px"
	 viewBox="0 0 200 200" style="enable-background:new 0 0 200 200;" xml:space="preserve">
<style type="text/css">
	.st0{fill:#00C886;}
	.st1{fill:#FFFFFF;}
</style>
<path class="st0" d="M174.2,150.8h-15.6v-15.6c0-0.9-0.7-1.6-1.6-1.6h-9.4c-0.9,0-1.6,0.7-1.6,1.6v15.6h-15.6
	c-0.9,0-1.6,0.7-1.6,1.6v9.4c0,0.9,0.7,1.6,1.6,1.6h15.6v15.6c0,0.9,0.7,1.6,1.6,1.6h9.4c0.9,0,1.6-0.7,1.6-1.6v-15.6h15.6
	c0.9,0,1.6-0.7,1.6-1.6v-9.4C175.8,151.5,175.1,150.8,174.2,150.8z M72.9,97.3c-0.2-1.7-0.3-3.4-0.3-5.2c0-3.1,0.3-6.1,0.8-9.1
	c0.1-0.7-0.2-1.4-0.9-1.7c-2.7-1.2-5.1-2.8-7.2-4.9c-5-4.9-7.8-11.6-7.6-18.6c0.2-6.3,2.7-12.2,7.1-16.7c4.8-4.9,11.3-7.6,18.2-7.6
	c6.2,0.1,12.2,2.5,16.8,6.7c1.5,1.4,2.9,3,4,4.8c0.4,0.6,1.2,0.9,1.8,0.6c3.4-1.2,7.1-2,10.8-2.4c1.1-0.1,1.7-1.3,1.2-2.3
	c-6.3-12.6-19.3-21.2-34.3-21.5C61.8,19.2,43.8,37,43.8,58.6c0,12.3,5.6,23.2,14.5,30.4c-6.2,2.9-11.9,6.8-16.9,11.8
	c-10.7,10.7-16.8,24.8-17.1,39.8c0,0.9,0.7,1.6,1.6,1.6h11c0.8,0,1.5-0.7,1.6-1.5c0.4-11.3,5-21.9,13-30c5.7-5.7,12.8-9.7,20.4-11.7
	C72.5,98.8,73,98.1,72.9,97.3z"/>
<path class="st1" d="M160.9,92.2c0-21.4-17.2-38.7-38.5-39.1c-21.6-0.3-39.7,17.4-39.7,39.1c0,12.3,5.7,23.2,14.5,30.4
	c-6.2,2.9-11.9,6.8-16.9,11.8c-10.7,10.7-16.8,24.8-17.1,39.8c0,0.9,0.7,1.6,1.6,1.6h10.9c0.8,0,1.5-0.7,1.6-1.5
	c0.4-11.3,5-21.9,13-30c8.4-8.4,19.6-13,31.5-13C143.4,131.2,160.9,113.8,160.9,92.2z M139.6,109.9c-4.7,4.7-11,7.3-17.7,7.3
	s-12.9-2.6-17.7-7.3c-4.8-4.8-7.4-11.2-7.3-17.9c0.1-6.4,2.6-12.6,7.1-17.2c4.7-4.8,11-7.5,17.7-7.6c6.6-0.1,13,2.5,17.8,7.1
	c4.8,4.7,7.5,11.1,7.5,17.9C146.9,98.9,144.3,105.1,139.6,109.9L139.6,109.9z"/>
</svg>
