<?xml version="1.0" encoding="utf-8"?>
<!-- Generator: Adobe Illustrator 26.3.1, SVG Export Plug-In . SVG Version: 6.00 Build 0)  -->
<svg version="1.1" id="Layer_1" xmlns="http://www.w3.org/2000/svg" xmlns:xlink="http://www.w3.org/1999/xlink" x="0px" y="0px"
	 viewBox="0 0 200 200" style="enable-background:new 0 0 200 200;" xml:space="preserve">
<style type="text/css">
	.st0{fill:#FFFFFF;}
	.st1{fill:#00C886;}
</style>
<path class="st0" d="M181.2,31.2H18.8c-3.5,0-6.2,2.8-6.2,6.2v125c0,3.5,2.8,6.2,6.2,6.2h162.5c3.5,0,6.2-2.8,6.2-6.2v-125
	C187.5,34,184.7,31.2,181.2,31.2z M26.6,45.3h146.9v23.4H26.6V45.3z M173.4,154.7H26.6V85.9h146.9V154.7z"/>
<path class="st1" d="M127.1,142.2h32.2c0.9,0,1.6-0.7,1.6-1.6v-14.1c0-0.9-0.7-1.6-1.6-1.6h-32.2c-0.9,0-1.6,0.7-1.6,1.6v14.1
	C125.6,141.5,126.3,142.2,127.1,142.2z"/>
</svg>
