<?xml version="1.0" encoding="utf-8"?>
<!-- Generator: Adobe Illustrator 26.3.1, SVG Export Plug-In . SVG Version: 6.00 Build 0)  -->
<svg version="1.1" id="Layer_1" xmlns="http://www.w3.org/2000/svg" xmlns:xlink="http://www.w3.org/1999/xlink" x="0px" y="0px"
	 viewBox="0 0 200 200" style="enable-background:new 0 0 200 200;" xml:space="preserve">
<style type="text/css">
	.st0{fill:#00C886;}
</style>
<path class="st0" d="M100.1,20.8c19.6,0,35.4,15.9,35.4,35.4l0,10.4h18.6c6.9,0,12.5,5.6,12.5,12.5v75c0,6.9-5.6,12.5-12.5,12.5
	H45.8c-6.9,0-12.5-5.6-12.5-12.5v-75c0-6.9,5.6-12.5,12.5-12.5h18.9V56.2C64.7,36.7,80.6,20.8,100.1,20.8
	C100.1,20.8,100.1,20.8,100.1,20.8L100.1,20.8z M154.2,79.2H45.8v75h108.3L154.2,79.2L154.2,79.2z M107.4,100v33.3H94.9V100H107.4z
	 M100.1,33.3c-12.7,0-22.9,10.3-22.9,22.9l0,0v10.4h45.8V56.2C123.1,43.6,112.8,33.3,100.1,33.3z"/>
</svg>
