<?xml version="1.0" encoding="utf-8"?>
<!-- Generator: Adobe Illustrator 26.3.1, SVG Export Plug-In . SVG Version: 6.00 Build 0)  -->
<svg version="1.1" id="Layer_1" xmlns="http://www.w3.org/2000/svg" xmlns:xlink="http://www.w3.org/1999/xlink" x="0px" y="0px"
	 viewBox="0 0 200 200" style="enable-background:new 0 0 200 200;" xml:space="preserve">
<style type="text/css">
	.st0{fill:#003937;}
</style>
<path class="st0" d="M167.7,149.1c-3.7-8.8-9-16.6-15.7-23.3c-6.7-6.7-14.6-12-23.3-15.7c-0.1,0-0.2-0.1-0.2-0.1
	c12.2-8.8,20.1-23.1,20.1-39.3c0-26.8-21.7-48.4-48.4-48.4S51.6,43.9,51.6,70.7c0,16.2,7.9,30.5,20.1,39.3c-0.1,0-0.2,0.1-0.2,0.1
	c-8.7,3.7-16.6,9-23.3,15.7c-6.7,6.7-12,14.6-15.7,23.3c-3.6,8.6-5.6,17.6-5.8,27c0,0.9,0.7,1.6,1.6,1.6h11.7c0.9,0,1.5-0.7,1.6-1.5
	c0.4-15.1,6.4-29.2,17.1-39.9c11.1-11.1,25.8-17.2,41.4-17.2s30.4,6.1,41.4,17.2c10.7,10.7,16.8,24.8,17.1,39.9
	c0,0.9,0.7,1.5,1.6,1.5h11.7c0.9,0,1.6-0.7,1.6-1.6C173.2,166.8,171.3,157.7,167.7,149.1z M100,104.3c-9,0-17.4-3.5-23.8-9.8
	s-9.8-14.8-9.8-23.8s3.5-17.4,9.8-23.8S91,37.1,100,37.1s17.4,3.5,23.7,9.8c6.3,6.3,9.8,14.8,9.8,23.8s-3.5,17.4-9.8,23.8
	C117.4,100.8,109,104.3,100,104.3z"/>
</svg>
