<?xml version="1.0" encoding="utf-8"?>
<!-- Generator: Adobe Illustrator 26.3.1, SVG Export Plug-In . SVG Version: 6.00 Build 0)  -->
<svg version="1.1" id="Layer_1" xmlns="http://www.w3.org/2000/svg" xmlns:xlink="http://www.w3.org/1999/xlink" x="0px" y="0px"
	 viewBox="0 0 200 200" style="enable-background:new 0 0 200 200;" xml:space="preserve">
<style type="text/css">
	.st0{fill:#FFFFFF;}
	.st1{fill:#00C886;}
</style>
<path class="st0" d="M161,136.7c-5-5-10.7-8.9-16.9-11.8c8.8-7.2,14.5-18.1,14.5-30.4c0-21.6-18-39.4-39.7-39.1
	c-21.3,0.3-38.5,17.7-38.5,39.1c0,12.3,5.7,23.2,14.5,30.4c-6.2,2.9-11.9,6.8-16.9,11.8c-10.7,10.7-16.7,24.8-17.1,39.8
	c0,0.9,0.7,1.6,1.6,1.6h10.9c0.8,0,1.5-0.7,1.6-1.5c0.4-11.3,5-21.9,13-30c8.4-8.4,19.6-13,31.5-13s23.1,4.6,31.5,13
	c8,8,12.6,18.7,13,30c0,0.8,0.7,1.5,1.6,1.5h10.9c0.9,0,1.6-0.7,1.6-1.6C177.7,161.5,171.7,147.4,161,136.7z M119.5,119.5
	c-6.7,0-13-2.6-17.7-7.3c-4.8-4.8-7.4-11.2-7.3-17.9c0.1-6.4,2.6-12.6,7.1-17.2c4.7-4.8,11-7.5,17.7-7.6c6.6-0.1,13,2.5,17.8,7.1
	c4.8,4.7,7.5,11.1,7.5,17.9c0,6.7-2.6,12.9-7.3,17.7C132.5,116.9,126.2,119.5,119.5,119.5L119.5,119.5z"/>
<path class="st1" d="M70.6,99.7c-0.2-1.7-0.3-3.4-0.3-5.2c0-3.1,0.3-6.1,0.8-9.1c0.1-0.7-0.2-1.4-0.9-1.7c-2.7-1.2-5.1-2.8-7.2-4.9
	c-5-4.9-7.8-11.6-7.6-18.6c0.2-6.3,2.7-12.2,7.1-16.7c4.8-4.9,11.3-7.6,18.2-7.6c6.2,0.1,12.2,2.5,16.8,6.7c1.5,1.4,2.9,3,4,4.8
	c0.4,0.6,1.2,0.9,1.8,0.6c3.4-1.2,7.1-2,10.8-2.4c1.1-0.1,1.7-1.3,1.2-2.3c-6.3-12.6-19.3-21.2-34.3-21.5
	c-21.7-0.3-39.7,17.4-39.7,39c0,12.3,5.6,23.2,14.5,30.4C49.7,94.2,44,98.1,39,103.1c-10.7,10.7-16.8,24.8-17.1,39.8
	c0,0.9,0.7,1.6,1.6,1.6h11c0.8,0,1.5-0.7,1.6-1.5c0.4-11.3,5-21.9,13-30c5.7-5.7,12.8-9.7,20.4-11.7
	C70.2,101.2,70.7,100.5,70.6,99.7L70.6,99.7z"/>
</svg>
