<?xml version="1.0" encoding="utf-8"?>
<!-- Generator: Adobe Illustrator 26.3.1, SVG Export Plug-In . SVG Version: 6.00 Build 0)  -->
<svg version="1.1" id="Layer_1" xmlns="http://www.w3.org/2000/svg" xmlns:xlink="http://www.w3.org/1999/xlink" x="0px" y="0px"
	 viewBox="0 0 241.4 200" style="enable-background:new 0 0 241.4 200;" xml:space="preserve">
<style type="text/css">
	.st0{fill:#469F78;}
	.st1{fill:#336C53;}
	.st2{fill:#90FFAE;}
</style>
<g>
	<path class="st0" d="M214.5,199.6H27c-14.9,0-27-12.1-27-27V27.4c0-14.9,12.1-27,27-27h187.4c14.9,0,27,12.1,27,27v145.2
		C241.5,187.5,229.4,199.6,214.5,199.6L214.5,199.6z"/>
	<path class="st1" d="M35.8,0.4v30.9c0,6.4,5.2,11.6,11.6,11.6c6.4,0,11.6-5.2,11.6-11.6V0.4H35.8z M47.4,134.5
		c-6.4,0-11.6-5.2-11.6-11.6V77.1c0-6.4,5.2-11.6,11.6-11.6S59,70.7,59,77.1v45.8C59,129.3,53.8,134.5,47.4,134.5L47.4,134.5z
		 M47.4,157.2c-6.4,0-11.6,5.2-11.6,11.6v30.9H59v-30.9C59,162.4,53.8,157.2,47.4,157.2z M214.5,0.4h-93.7v199.3h93.7
		c14.9,0,27-12.1,27-27V27.4C241.5,12.5,229.4,0.4,214.5,0.4L214.5,0.4z"/>
	<path class="st2" d="M241.5,134.8h-73.1c-19.4,0-35.7-15.9-35.4-35.4c0.3-18.9,15.8-34.2,34.8-34.2h73.8L241.5,134.8L241.5,134.8
		L241.5,134.8z"/>
	<path class="st1" d="M157.3,100c0,7.8,6.3,14.2,14.2,14.2c7.8,0,14.2-6.3,14.2-14.2s-6.3-14.2-14.2-14.2
		C163.6,85.8,157.3,92.2,157.3,100z"/>
</g>
</svg>
