<?xml version="1.0" encoding="utf-8"?>
<!-- Generator: Adobe Illustrator 26.3.1, SVG Export Plug-In . SVG Version: 6.00 Build 0)  -->
<svg version="1.1" id="Layer_1" xmlns="http://www.w3.org/2000/svg" xmlns:xlink="http://www.w3.org/1999/xlink" x="0px" y="0px"
	 viewBox="0 0 200 200" style="enable-background:new 0 0 200 200;" xml:space="preserve">
<style type="text/css">
	.st0{fill:#FFFFFF;}
	.st1{fill:#00C886;}
</style>
<path class="st0" d="M191.4,0c4.8,0,8.6,3.9,8.6,8.6c0,0,0,0,0,0v72.6c0,4.8-3.9,8.6-8.6,8.6c-4.7,0-8.6-3.8-8.6-8.6v-64H17.2v165.6
	h43c4.8,0,8.6,3.8,8.6,8.6c0,4.8-3.8,8.6-8.6,8.6c0,0,0,0,0,0H8.6c-4.8,0-8.6-3.9-8.6-8.6c0,0,0,0,0,0V8.6C0,3.9,3.9,0,8.6,0
	c0,0,0,0,0,0H191.4L191.4,0z"/>
<path class="st1" d="M98.6,159.9c3.4,3.4,3.4,8.9,0,12.3c-3.4,3.3-8.8,3.3-12.2,0l-35.6-35.6c-3.3-3.4-3.3-8.8,0-12.2l35.6-35.2
	c3.5-3.2,9-2.9,12.2,0.6c3,3.3,3,8.3,0,11.6l-20.9,20.1h78.1c20.8,0,37.9,16.2,39,37v2.2c-0.1,21.6-17.6,39-39.1,39h-36
	c-4.8,0-8.6-3.8-8.6-8.6c0-4.8,3.8-8.6,8.6-8.6c0,0,0,0,0,0h36.1c12.1,0,21.9-9.8,21.9-21.9c0-12.1-9.8-21.9-21.9-21.9c0,0,0,0,0,0
	H77.7L98.6,159.9z"/>
</svg>
